<svg width="37" height="35" viewBox="0 0 37 35" fill="none" xmlns="http://www.w3.org/2000/svg">
<g clip-path="url(#clip0_1565_1719)">
<path d="M37.0015 16.4208C36.7773 13.0122 35.5027 9.74006 33.3347 7.00772C31.1667 4.27538 28.2001 2.20225 24.8005 1.04386C21.401 -0.114529 17.717 -0.30755 14.2028 0.488587C10.6886 1.28472 7.49767 3.03522 5.02334 5.52433C2.54901 8.01343 0.899422 11.1323 0.277894 14.4966C-0.343634 17.861 0.0900641 21.3236 1.52553 24.4578C2.961 27.592 5.3355 30.2608 8.35636 32.1352C11.3772 34.0096 14.9124 35.0077 18.5262 35.0064H29.2914C31.3368 35.0051 33.2978 34.2363 34.7436 32.8691C36.1894 31.5018 37.0015 29.648 37.0015 27.7151V16.4208ZM33.9182 27.7167C33.9182 28.8759 33.4309 29.9877 32.5636 30.8074C31.6962 31.6271 30.5198 32.0876 29.2932 32.0876H18.528C16.3527 32.0866 14.2021 31.6524 12.2164 30.8132C10.2306 29.974 8.45433 28.7487 7.00334 27.2172C5.54482 25.6863 4.44958 23.8783 3.79107 21.9146C3.13256 19.9509 2.92602 17.8767 3.1853 15.8314C3.59456 12.606 5.12796 9.60116 7.5438 7.29034C9.95964 4.97953 13.1205 3.49422 16.5282 3.06852C17.1927 2.98967 17.8618 2.94963 18.5315 2.94864C22.125 2.93848 25.6076 4.12456 28.3682 6.29878C29.98 7.56459 31.303 9.12652 32.257 10.8899C33.211 12.6533 33.7761 14.5814 33.9182 16.5573V27.7167Z" fill="#5A5A5A"/>
<path d="M12.0407 13.4305H19.0883C19.5556 13.4305 20.0038 13.2551 20.3342 12.9428C20.6646 12.6306 20.8502 12.2071 20.8502 11.7655C20.8502 11.3238 20.6646 10.9003 20.3342 10.5881C20.0038 10.2758 19.5556 10.1004 19.0883 10.1004H12.0407C11.5734 10.1004 11.1253 10.2758 10.7949 10.5881C10.4644 10.9003 10.2788 11.3238 10.2788 11.7655C10.2788 12.2071 10.4644 12.6306 10.7949 12.9428C11.1253 13.2551 11.5734 13.4305 12.0407 13.4305Z" fill="#5A5A5A"/>
<path d="M25.5476 15.8516H11.4523C10.985 15.8516 10.5369 16.027 10.2065 16.3393C9.87606 16.6515 9.69043 17.075 9.69043 17.5166C9.69043 17.9582 9.87606 18.3818 10.2065 18.694C10.5369 19.0063 10.985 19.1817 11.4523 19.1817H25.5476C26.0149 19.1817 26.463 19.0063 26.7934 18.694C27.1238 18.3818 27.3095 17.9582 27.3095 17.5166C27.3095 17.075 27.1238 16.6515 26.7934 16.3393C26.463 16.027 26.0149 15.8516 25.5476 15.8516Z" fill="#5A5A5A"/>
<path d="M25.5476 21.6044H11.4523C10.985 21.6044 10.5369 21.7798 10.2065 22.0921C9.87606 22.4044 9.69043 22.8279 9.69043 23.2695C9.69043 23.7111 9.87606 24.1346 10.2065 24.4469C10.5369 24.7592 10.985 24.9346 11.4523 24.9346H25.5476C26.0149 24.9346 26.463 24.7592 26.7934 24.4469C27.1238 24.1346 27.3095 23.7111 27.3095 23.2695C27.3095 22.8279 27.1238 22.4044 26.7934 22.0921C26.463 21.7798 26.0149 21.6044 25.5476 21.6044Z" fill="#5A5A5A"/>
</g>
<defs>
<clipPath id="clip0_1565_1719">
<rect width="37" height="35" fill="white"/>
</clipPath>
</defs>
</svg>
