<svg width="373" height="257" viewBox="0 0 373 257" fill="none" xmlns="http://www.w3.org/2000/svg">
<path d="M346.699 224.602C345.264 224.823 342.145 223.912 342.138 223.912C342.132 223.912 343.36 222.029 343.449 221.925C344.526 220.663 347.334 218.855 349.045 219.566C349.326 219.691 349.577 219.875 349.782 220.104C349.988 220.333 350.142 220.602 350.237 220.895C350.331 221.188 350.363 221.497 350.33 221.803C350.297 222.109 350.2 222.404 350.045 222.67C349.424 223.836 347.92 224.402 346.699 224.602Z" fill="#5A3F86"/>
<path d="M317.962 219.248C317.962 219.248 317.962 217.013 317.962 216.868C318.162 215.226 319.508 212.169 321.329 211.817C321.635 211.767 321.948 211.783 322.248 211.862C322.547 211.942 322.827 212.085 323.067 212.28C323.308 212.476 323.504 212.72 323.643 212.997C323.783 213.274 323.862 213.577 323.875 213.887C323.992 215.184 323.061 216.502 322.143 217.337C321.067 218.275 317.962 219.248 317.962 219.248Z" fill="#5A3F86"/>
<path d="M311.469 211.983C312.359 212.673 314.602 213.197 315.154 213.321C315.388 213.742 315.623 214.198 315.878 214.701C316.32 215.598 316.81 216.619 317.258 217.765C317.382 218.068 317.5 218.399 317.624 218.717C317.307 218.22 316.858 217.544 316.81 217.482C315.885 216.364 313.436 214.722 311.925 215.35C311.677 215.457 311.454 215.616 311.27 215.815C311.087 216.013 310.948 216.249 310.861 216.505C310.775 216.761 310.743 217.033 310.768 217.302C310.793 217.571 310.875 217.832 311.007 218.068C311.545 219.089 312.856 219.614 313.926 219.793C314.995 219.973 317.334 219.407 317.831 219.276C318.093 219.966 318.341 220.725 318.521 221.511C318.928 222.932 319.208 224.387 319.356 225.858H319.266C319.031 225.368 318.507 224.34 318.459 224.257C317.658 223.043 315.402 221.166 313.829 221.601C313.571 221.681 313.334 221.815 313.131 221.993C312.928 222.171 312.765 222.39 312.652 222.635C312.539 222.88 312.478 223.146 312.474 223.416C312.47 223.686 312.523 223.954 312.629 224.202C313.043 225.272 314.291 225.941 315.333 226.237C316.541 226.576 319.266 226.155 319.37 226.141C319.478 227.604 319.489 229.072 319.404 230.536C319.349 231.619 319.252 232.716 319.142 233.82C318.983 233.468 318.3 232.123 318.238 232.026C317.444 230.812 315.188 228.935 313.615 229.37C313.357 229.45 313.118 229.583 312.915 229.761C312.712 229.939 312.548 230.157 312.435 230.403C312.321 230.648 312.261 230.915 312.258 231.185C312.254 231.455 312.308 231.723 312.415 231.971C312.829 233.041 314.077 233.71 315.119 234.006C316.299 234.338 318.907 233.944 319.128 233.91C319.08 234.407 319.031 234.91 318.976 235.407C318.797 237.042 318.611 238.678 318.479 240.299C318.431 240.858 318.404 241.417 318.376 241.969C318.128 241.451 317.651 240.513 317.603 240.444C316.803 239.223 314.547 237.346 312.974 237.781C312.716 237.861 312.478 237.995 312.275 238.173C312.072 238.351 311.909 238.57 311.796 238.815C311.683 239.06 311.623 239.326 311.619 239.596C311.615 239.866 311.667 240.133 311.773 240.382C312.187 241.458 313.436 242.12 314.478 242.417C315.519 242.714 317.734 242.417 318.355 242.341C318.314 243.266 318.293 244.183 318.321 245.101C318.321 245.494 318.321 245.895 318.376 246.267C318.431 246.64 318.438 247.019 318.466 247.385C318.562 248.151 318.645 248.861 318.749 249.565C318.797 249.924 318.852 250.255 318.907 250.607C318.728 250.041 318.438 249.151 318.404 249.075C317.796 247.758 315.851 245.557 314.264 245.75C313.996 245.789 313.74 245.883 313.511 246.028C313.283 246.173 313.087 246.364 312.937 246.589C312.788 246.814 312.687 247.069 312.642 247.335C312.597 247.602 312.609 247.875 312.677 248.137C312.925 249.262 314.057 250.11 315.043 250.559C316.03 251.007 318.686 251.069 319.004 251.069C319.135 251.918 319.273 252.746 319.418 253.512C319.563 254.278 319.735 255.175 319.894 255.92H320.936C320.749 255.126 320.556 254.264 320.363 253.332C320.218 252.642 320.08 251.897 319.942 251.138C321.201 250.848 322.413 250.383 323.544 249.758C324.169 250.29 324.826 250.783 325.51 251.235C325.151 252.022 324.82 252.78 324.503 253.505C324.137 254.367 323.813 255.168 323.516 255.92H324.606C324.848 255.271 325.11 254.595 325.4 253.85C325.69 253.105 325.945 252.504 326.248 251.78C326.552 251.884 328.96 252.711 330.154 252.608C331.23 252.511 332.582 252.084 333.19 251.104C333.339 250.881 333.44 250.63 333.486 250.366C333.532 250.102 333.522 249.831 333.457 249.571C333.392 249.311 333.273 249.067 333.108 248.856C332.943 248.645 332.736 248.47 332.5 248.344C331.037 247.654 328.47 249.034 327.463 250.103C327.401 250.166 326.725 251.042 326.393 251.483C326.573 251.056 326.759 250.635 326.959 250.193C327.242 249.551 327.559 248.889 327.863 248.24L328.38 247.24C328.553 246.902 328.753 246.591 328.939 246.26C329.222 245.784 329.54 245.308 329.857 244.825C330.485 245.156 332.362 246.081 333.41 246.143C334.459 246.205 335.894 245.991 336.639 245.122C336.823 244.923 336.962 244.688 337.048 244.432C337.135 244.176 337.166 243.904 337.14 243.635C337.114 243.366 337.031 243.106 336.897 242.871C336.763 242.636 336.582 242.432 336.363 242.272C335.025 241.341 332.279 242.362 331.12 243.245L330.595 243.735C330.92 243.28 331.237 242.817 331.575 242.355C332.548 241.065 333.576 239.788 334.597 238.498L335.232 237.691C335.763 237.967 337.785 238.988 338.882 239.071C339.979 239.154 341.366 238.919 342.111 238.05C342.294 237.851 342.434 237.615 342.52 237.358C342.606 237.101 342.638 236.829 342.612 236.56C342.586 236.29 342.503 236.029 342.369 235.794C342.235 235.558 342.053 235.354 341.835 235.193C340.503 234.269 337.75 235.29 336.591 236.173C336.55 236.173 336.287 236.456 335.984 236.739C336.536 236.049 337.067 235.324 337.578 234.6C338.458 233.364 339.256 232.071 339.965 230.729C340.151 230.826 342.497 232.075 343.718 232.15C344.802 232.213 346.202 231.999 346.947 231.122C347.131 230.924 347.27 230.689 347.357 230.433C347.443 230.176 347.474 229.905 347.448 229.636C347.422 229.367 347.339 229.106 347.205 228.871C347.072 228.636 346.89 228.433 346.671 228.273C345.34 227.341 342.587 228.369 341.428 229.246C341.352 229.308 340.386 230.232 340.048 230.577C340.044 230.561 340.044 230.545 340.048 230.529C340.707 229.199 341.25 227.814 341.669 226.389C342.048 225.113 342.352 223.816 342.58 222.505C342.808 221.29 342.932 220.159 343.042 219.165C343.097 218.627 343.139 218.13 343.166 217.668C343.166 217.668 344.105 215.943 344.153 215.826C344.684 214.446 344.905 211.548 343.643 210.52C343.428 210.356 343.182 210.238 342.919 210.175C342.657 210.112 342.384 210.105 342.118 210.155C341.853 210.204 341.6 210.309 341.378 210.462C341.156 210.616 340.968 210.814 340.827 211.044C340.193 212.003 340.372 213.404 340.738 214.432C341.103 215.46 342.677 217.192 343.07 217.578C343.028 218.054 342.98 218.565 342.911 219.131C342.78 220.124 342.628 221.242 342.38 222.45C342.311 222.767 342.228 223.14 342.152 223.45C342.152 222.857 342.152 222.07 342.152 221.973C341.993 220.525 340.841 217.834 339.247 217.496C338.981 217.447 338.708 217.456 338.445 217.521C338.182 217.586 337.936 217.706 337.723 217.873C337.51 218.039 337.335 218.25 337.209 218.489C337.082 218.728 337.008 218.992 336.991 219.262C336.874 220.4 337.681 221.566 338.468 222.305C339.254 223.043 341.524 223.864 342.014 224.03C341.835 224.768 341.635 225.52 341.379 226.293C340.938 227.702 340.37 229.07 339.682 230.377H339.592C339.668 229.832 339.799 228.687 339.799 228.59C339.799 227.141 338.958 224.333 337.412 223.829C337.153 223.752 336.88 223.731 336.611 223.767C336.343 223.802 336.085 223.894 335.855 224.036C335.624 224.178 335.426 224.367 335.274 224.59C335.121 224.814 335.018 225.067 334.97 225.334C334.728 226.451 335.404 227.7 336.108 228.521C336.922 229.473 339.434 230.591 339.523 230.66C338.81 231.944 338.01 233.177 337.129 234.351C336.529 235.235 335.839 236.132 335.149 236.953C335.211 236.573 335.384 235.069 335.384 234.959C335.384 233.51 334.542 230.702 332.996 230.198C332.737 230.121 332.464 230.099 332.196 230.135C331.927 230.17 331.669 230.262 331.439 230.404C331.208 230.546 331.011 230.735 330.858 230.959C330.705 231.182 330.602 231.436 330.554 231.702C330.319 232.82 331.009 234.062 331.699 234.89C332.493 235.814 334.894 236.925 335.094 237.022L334.155 238.201C333.107 239.464 332.044 240.727 331.037 242.003C330.692 242.445 330.347 242.893 330.036 243.342C330.112 242.769 330.23 241.727 330.23 241.638C330.23 240.182 329.388 237.374 327.842 236.87C327.583 236.794 327.31 236.773 327.042 236.809C326.774 236.845 326.517 236.937 326.287 237.079C326.056 237.221 325.859 237.409 325.706 237.632C325.553 237.855 325.449 238.108 325.4 238.374C325.158 239.499 325.828 240.741 326.538 241.569C327.249 242.396 329.243 243.369 329.809 243.638C329.271 244.39 328.746 245.143 328.27 245.915C328.07 246.246 327.842 246.605 327.67 246.916L327.132 247.902C326.787 248.592 326.442 249.22 326.159 249.869L325.717 250.828C325.883 250.262 326.131 249.358 326.145 249.269C326.366 247.833 325.952 244.929 324.503 244.197C324.258 244.083 323.991 244.021 323.721 244.016C323.451 244.011 323.182 244.063 322.933 244.169C322.684 244.274 322.46 244.43 322.275 244.628C322.09 244.825 321.949 245.059 321.86 245.315C321.809 245.449 321.772 245.588 321.75 245.729C320.894 246.679 320.3 247.834 320.025 249.082C320.025 249.172 319.928 250.276 319.901 250.842C319.818 250.379 319.735 249.924 319.659 249.462C319.542 248.772 319.438 248.04 319.335 247.337C319.3 246.964 319.259 246.591 319.218 246.219C319.176 245.846 319.169 245.474 319.142 245.094C319.142 244.535 319.142 243.963 319.142 243.39C319.832 243.314 321.902 243.052 322.833 242.528C323.765 242.003 324.82 241.03 324.965 239.892C325.007 239.625 324.992 239.352 324.922 239.09C324.852 238.829 324.727 238.586 324.557 238.376C324.387 238.165 324.174 237.994 323.933 237.871C323.692 237.748 323.428 237.677 323.157 237.663C321.529 237.629 319.804 239.995 319.321 241.368C319.321 241.417 319.238 241.713 319.156 242.058C319.156 241.5 319.156 240.941 319.225 240.375C319.321 238.767 319.473 237.132 319.611 235.49C319.645 235.152 319.666 234.8 319.694 234.469C320.294 234.407 322.543 234.144 323.495 233.593C324.448 233.041 325.483 232.102 325.628 230.957C325.669 230.69 325.655 230.417 325.584 230.156C325.514 229.896 325.39 229.652 325.219 229.443C325.049 229.233 324.836 229.062 324.595 228.94C324.354 228.818 324.09 228.748 323.82 228.735C322.191 228.694 320.467 231.067 319.984 232.44C319.984 232.489 319.887 232.847 319.797 233.248C319.859 232.357 319.915 231.467 319.942 230.584C319.995 229.067 319.947 227.548 319.797 226.037C320.004 226.037 322.647 225.761 323.709 225.154C324.648 224.609 325.697 223.657 325.841 222.519C325.883 222.252 325.869 221.979 325.799 221.719C325.729 221.458 325.605 221.215 325.436 221.005C325.266 220.795 325.054 220.623 324.814 220.499C324.574 220.376 324.31 220.305 324.041 220.29C322.412 220.249 320.68 222.622 320.204 223.995C320.17 224.092 319.873 225.375 319.783 225.865V225.782C319.595 224.302 319.281 222.841 318.845 221.415C318.456 220.143 317.995 218.894 317.465 217.675C316.982 216.537 316.472 215.522 316.009 214.632C315.754 214.149 315.513 213.715 315.319 213.314C315.319 213.314 315.154 211.355 315.126 211.244C314.823 209.823 313.394 207.263 311.773 207.105C311.503 207.085 311.231 207.123 310.976 207.215C310.721 207.307 310.489 207.452 310.294 207.64C310.098 207.828 309.945 208.055 309.843 208.307C309.741 208.558 309.694 208.828 309.703 209.099C309.682 210.244 310.6 211.293 311.469 211.983Z" fill="#5A3F86"/>
<path d="M175.884 224.602C174.449 224.823 171.323 223.912 171.323 223.912C171.323 223.912 172.545 222.029 172.634 221.925C173.711 220.663 176.519 218.855 178.23 219.566C178.51 219.692 178.761 219.876 178.965 220.105C179.17 220.334 179.324 220.604 179.418 220.897C179.511 221.19 179.542 221.499 179.509 221.804C179.476 222.11 179.378 222.405 179.224 222.67C178.61 223.836 177.105 224.402 175.884 224.602Z" fill="#5A3F86"/>
<path d="M147.147 219.248C147.113 219.248 147.147 217.013 147.147 216.868C147.347 215.226 148.693 212.169 150.514 211.817C150.82 211.767 151.133 211.783 151.433 211.862C151.732 211.942 152.012 212.085 152.252 212.28C152.493 212.476 152.689 212.72 152.828 212.997C152.968 213.274 153.047 213.577 153.06 213.887C153.177 215.184 152.246 216.502 151.328 217.337C150.238 218.275 147.147 219.248 147.147 219.248Z" fill="#5A3F86"/>
<path d="M140.654 211.983C141.544 212.673 143.78 213.197 144.339 213.321C144.567 213.742 144.808 214.198 145.063 214.701C145.505 215.598 145.995 216.619 146.443 217.765C146.561 218.068 146.685 218.399 146.802 218.717C146.485 218.22 146.043 217.544 145.995 217.482C145.063 216.364 142.621 214.722 141.103 215.35C140.855 215.458 140.633 215.617 140.451 215.816C140.268 216.015 140.13 216.251 140.044 216.507C139.958 216.763 139.927 217.034 139.952 217.303C139.978 217.572 140.06 217.833 140.192 218.068C140.723 219.089 142.041 219.614 143.111 219.793C144.18 219.973 146.519 219.407 147.016 219.276C147.271 219.966 147.52 220.725 147.706 221.511C148.116 222.932 148.398 224.387 148.548 225.858H148.458C148.216 225.368 147.699 224.34 147.644 224.257C146.85 223.043 144.594 221.166 143.021 221.601C142.762 221.68 142.523 221.812 142.319 221.99C142.115 222.168 141.951 222.387 141.837 222.632C141.724 222.878 141.664 223.145 141.661 223.415C141.658 223.686 141.712 223.954 141.82 224.202C142.234 225.272 143.483 225.941 144.525 226.237C145.733 226.576 148.458 226.155 148.561 226.141C148.658 227.604 148.658 229.073 148.561 230.536C148.506 231.619 148.41 232.716 148.292 233.82C148.141 233.468 147.458 232.123 147.395 232.026C146.602 230.812 144.339 228.935 142.773 229.37C142.514 229.45 142.276 229.583 142.072 229.761C141.869 229.938 141.705 230.157 141.591 230.402C141.477 230.647 141.416 230.914 141.412 231.184C141.407 231.454 141.459 231.722 141.565 231.971C141.986 233.041 143.235 233.71 144.277 234.006C145.45 234.338 148.065 233.944 148.285 233.91C148.237 234.407 148.189 234.91 148.134 235.407C147.954 237.042 147.768 238.678 147.63 240.299C147.589 240.858 147.561 241.417 147.533 241.969C147.278 241.451 146.809 240.513 146.754 240.444C145.96 239.223 143.704 237.346 142.131 237.781C141.872 237.859 141.633 237.992 141.429 238.17C141.225 238.347 141.061 238.566 140.947 238.812C140.834 239.058 140.774 239.325 140.771 239.595C140.768 239.866 140.822 240.134 140.93 240.382C141.344 241.458 142.593 242.12 143.635 242.417C144.677 242.714 146.892 242.417 147.513 242.341C147.471 243.266 147.451 244.183 147.478 245.101C147.478 245.494 147.478 245.895 147.533 246.267C147.589 246.64 147.596 247.019 147.623 247.385C147.72 248.151 147.802 248.861 147.906 249.565C147.954 249.924 148.009 250.255 148.058 250.607C147.885 250.041 147.596 249.151 147.554 249.075C146.954 247.758 145.008 245.557 143.414 245.75C143.147 245.789 142.892 245.885 142.664 246.03C142.436 246.175 142.241 246.366 142.092 246.591C141.943 246.816 141.843 247.07 141.799 247.337C141.754 247.603 141.767 247.876 141.834 248.137C142.083 249.262 143.214 250.11 144.201 250.559C145.188 251.007 147.844 251.069 148.161 251.069C148.292 251.918 148.43 252.746 148.575 253.512C148.72 254.278 148.893 255.175 149.051 255.92H150.093C149.907 255.126 149.714 254.264 149.521 253.332C149.376 252.642 149.231 251.897 149.093 251.138C150.354 250.849 151.569 250.385 152.701 249.758C153.324 250.289 153.979 250.782 154.661 251.235C154.309 252.022 153.971 252.78 153.66 253.505C153.295 254.367 152.97 255.168 152.674 255.92H153.764C154.005 255.271 154.261 254.595 154.55 253.85C154.84 253.105 155.102 252.504 155.406 251.78C155.71 251.884 158.117 252.711 159.311 252.608C160.387 252.511 161.74 252.084 162.347 251.104C162.495 250.881 162.595 250.629 162.641 250.366C162.686 250.102 162.676 249.831 162.611 249.572C162.546 249.312 162.428 249.069 162.264 248.857C162.099 248.646 161.893 248.471 161.657 248.344C160.194 247.654 157.628 249.034 156.62 250.103C156.558 250.166 155.882 251.042 155.544 251.483C155.73 251.056 155.917 250.635 156.117 250.193C156.393 249.551 156.717 248.889 157.02 248.24L157.538 247.24C157.704 246.902 157.911 246.591 158.097 246.26C158.38 245.784 158.697 245.308 159.014 244.825C159.642 245.156 161.519 246.081 162.568 246.143C163.617 246.205 165.045 245.991 165.797 245.122C165.979 244.923 166.118 244.688 166.203 244.432C166.289 244.176 166.32 243.904 166.294 243.636C166.268 243.367 166.185 243.107 166.052 242.872C165.919 242.637 165.738 242.433 165.521 242.272C164.182 241.341 161.436 242.362 160.277 243.245L159.753 243.735C160.07 243.28 160.394 242.817 160.732 242.355C161.705 241.065 162.726 239.788 163.755 238.498L164.389 237.691C164.921 237.967 166.935 238.988 168.039 239.071C169.143 239.154 170.523 238.919 171.268 238.05C171.452 237.851 171.591 237.615 171.678 237.358C171.764 237.101 171.795 236.829 171.769 236.56C171.743 236.29 171.66 236.029 171.526 235.794C171.393 235.558 171.211 235.354 170.992 235.193C169.654 234.269 166.908 235.29 165.749 236.173C165.707 236.173 165.438 236.456 165.141 236.739C165.686 236.049 166.225 235.324 166.735 234.6C167.616 233.364 168.413 232.071 169.122 230.729C169.309 230.826 171.655 232.075 172.876 232.15C173.959 232.213 175.36 231.999 176.105 231.122C176.288 230.924 176.428 230.689 176.514 230.433C176.6 230.176 176.631 229.905 176.605 229.636C176.579 229.367 176.497 229.106 176.363 228.871C176.229 228.636 176.047 228.433 175.829 228.273C174.497 227.341 171.744 228.369 170.585 229.246C170.502 229.308 169.543 230.232 169.205 230.577V230.529C169.87 229.2 170.415 227.815 170.834 226.389C171.212 225.113 171.517 223.816 171.744 222.505C171.965 221.29 172.096 220.159 172.207 219.165C172.262 218.627 172.296 218.13 172.331 217.668C172.331 217.668 173.276 215.943 173.324 215.826C173.849 214.446 174.076 211.548 172.814 210.52C172.599 210.355 172.352 210.238 172.089 210.175C171.826 210.112 171.552 210.105 171.286 210.154C171.02 210.204 170.767 210.309 170.544 210.462C170.321 210.615 170.133 210.814 169.992 211.044C169.364 212.003 169.543 213.404 169.902 214.432C170.261 215.46 171.848 217.192 172.241 217.578C172.2 218.054 172.151 218.565 172.082 219.131C171.951 220.124 171.8 221.242 171.544 222.45C171.482 222.767 171.399 223.14 171.323 223.45C171.323 222.857 171.323 222.07 171.323 221.973C171.172 220.525 170.019 217.834 168.426 217.496C168.159 217.447 167.886 217.456 167.623 217.521C167.36 217.586 167.114 217.706 166.901 217.873C166.688 218.039 166.513 218.25 166.387 218.489C166.261 218.728 166.186 218.992 166.169 219.262C166.045 220.4 166.859 221.566 167.646 222.305C168.432 223.043 170.702 223.864 171.192 224.03C171.013 224.768 170.813 225.52 170.558 226.293C170.113 227.701 169.545 229.068 168.86 230.377H168.771C168.846 229.832 168.978 228.687 168.978 228.59C168.978 227.141 168.136 224.333 166.59 223.829C166.331 223.752 166.058 223.731 165.79 223.767C165.521 223.802 165.263 223.894 165.033 224.036C164.802 224.178 164.604 224.367 164.452 224.59C164.299 224.814 164.196 225.067 164.148 225.334C163.906 226.451 164.576 227.7 165.286 228.521C166.1 229.473 168.612 230.591 168.736 230.66C168.02 231.942 167.221 233.175 166.342 234.351C165.7 235.228 165.01 236.09 164.272 236.946C164.341 236.566 164.513 235.062 164.513 234.952C164.513 233.503 163.672 230.695 162.119 230.191C161.86 230.114 161.588 230.092 161.32 230.128C161.052 230.164 160.795 230.255 160.565 230.398C160.335 230.54 160.137 230.729 159.985 230.952C159.834 231.176 159.731 231.429 159.684 231.695C159.442 232.813 160.111 234.062 160.822 234.883C161.616 235.807 164.017 236.918 164.217 237.015L163.347 238.201C162.292 239.464 161.236 240.727 160.229 242.003C159.884 242.445 159.539 242.893 159.221 243.342C159.304 242.769 159.422 241.727 159.422 241.638C159.422 240.182 158.58 237.374 157.034 236.87C156.775 236.794 156.502 236.773 156.234 236.809C155.966 236.845 155.709 236.937 155.479 237.079C155.248 237.221 155.051 237.409 154.898 237.632C154.745 237.855 154.641 238.108 154.592 238.374C154.35 239.499 155.02 240.741 155.73 241.569C156.441 242.396 158.435 243.369 159.001 243.638C158.456 244.39 157.938 245.143 157.455 245.915C157.262 246.246 157.034 246.605 156.862 246.916C156.689 247.226 156.496 247.571 156.324 247.902C155.979 248.592 155.634 249.22 155.351 249.869L154.909 250.828C155.075 250.262 155.316 249.358 155.33 249.269C155.558 247.833 155.144 244.929 153.695 244.197C153.45 244.083 153.183 244.021 152.913 244.016C152.643 244.011 152.374 244.063 152.125 244.169C151.876 244.274 151.652 244.43 151.467 244.628C151.282 244.825 151.141 245.059 151.052 245.315C151.001 245.449 150.964 245.588 150.942 245.729C150.087 246.68 149.491 247.835 149.21 249.082C149.21 249.172 149.12 250.276 149.086 250.842C149.01 250.379 148.927 249.924 148.844 249.462C148.727 248.772 148.63 248.04 148.527 247.337C148.486 246.964 148.451 246.591 148.41 246.219C148.368 245.846 148.361 245.474 148.334 245.094C148.334 244.535 148.334 243.963 148.334 243.39C149.024 243.314 151.094 243.052 152.025 242.528C152.957 242.003 154.012 241.03 154.157 239.892C154.199 239.625 154.184 239.352 154.114 239.09C154.044 238.829 153.919 238.586 153.749 238.376C153.578 238.165 153.366 237.994 153.125 237.871C152.884 237.748 152.62 237.677 152.349 237.663C150.721 237.629 148.996 239.995 148.513 241.368C148.513 241.417 148.43 241.713 148.348 242.058C148.348 241.5 148.348 240.941 148.41 240.375C148.513 238.767 148.658 237.132 148.803 235.49L148.886 234.469C149.486 234.407 151.728 234.144 152.687 233.593C153.647 233.041 154.675 232.102 154.813 230.957C154.856 230.69 154.842 230.418 154.772 230.157C154.703 229.896 154.579 229.653 154.409 229.443C154.239 229.233 154.027 229.062 153.786 228.94C153.545 228.818 153.281 228.748 153.012 228.735C151.383 228.694 149.652 231.067 149.176 232.44C149.176 232.489 149.079 232.847 148.989 233.248C149.051 232.357 149.107 231.467 149.134 230.584C149.183 229.067 149.135 227.548 148.989 226.037C149.196 226.037 151.839 225.761 152.901 225.154C153.84 224.609 154.888 223.657 155.033 222.519C155.075 222.251 155.061 221.978 154.99 221.717C154.92 221.456 154.796 221.212 154.625 221.002C154.455 220.792 154.242 220.62 154.001 220.497C153.76 220.375 153.496 220.304 153.226 220.29C151.597 220.249 149.872 222.622 149.389 223.995C149.389 224.092 149.065 225.375 148.975 225.865V225.782C148.788 224.301 148.472 222.84 148.03 221.415C147.644 220.142 147.183 218.893 146.65 217.675C146.167 216.537 145.65 215.522 145.194 214.632C144.939 214.149 144.698 213.715 144.504 213.314C144.504 213.314 144.339 211.355 144.311 211.244C144.008 209.823 142.579 207.263 140.958 207.105C140.688 207.085 140.416 207.123 140.161 207.215C139.906 207.307 139.674 207.452 139.479 207.64C139.283 207.828 139.13 208.055 139.028 208.307C138.926 208.558 138.879 208.828 138.888 209.099C138.861 210.244 139.785 211.293 140.654 211.983Z" fill="#5A3F86"/>
<path d="M285.051 224.602C283.622 224.823 280.497 223.912 280.497 223.912C280.497 223.912 281.711 222.029 281.808 221.925C282.877 220.663 285.685 218.855 287.396 219.566C287.677 219.691 287.928 219.875 288.134 220.104C288.339 220.333 288.494 220.602 288.588 220.895C288.683 221.188 288.714 221.497 288.681 221.803C288.648 222.109 288.551 222.404 288.397 222.67C287.776 223.836 286.272 224.402 285.051 224.602Z" fill="#5A3F86"/>
<path d="M256.314 219.248C256.279 219.248 256.314 217.013 256.314 216.868C256.507 215.226 257.859 212.169 259.674 211.817C259.98 211.767 260.293 211.783 260.592 211.862C260.892 211.942 261.171 212.085 261.412 212.28C261.652 212.476 261.849 212.72 261.988 212.997C262.127 213.274 262.206 213.577 262.22 213.887C262.337 215.184 261.406 216.502 260.495 217.337C259.418 218.275 256.314 219.248 256.314 219.248Z" fill="#5A3F86"/>
<path d="M249.821 211.983C250.711 212.673 252.953 213.197 253.512 213.321C253.74 213.742 253.981 214.198 254.202 214.701C254.644 215.598 255.134 216.619 255.582 217.765C255.706 218.068 255.824 218.399 255.948 218.717C255.63 218.22 255.189 217.544 255.134 217.482C254.209 216.364 251.76 214.722 250.249 215.35C250 215.457 249.777 215.615 249.594 215.815C249.411 216.014 249.272 216.249 249.186 216.506C249.1 216.762 249.069 217.034 249.096 217.303C249.122 217.572 249.204 217.833 249.338 218.068C249.869 219.089 251.18 219.614 252.25 219.793C253.319 219.973 255.658 219.407 256.155 219.276C256.417 219.966 256.665 220.725 256.879 221.511C257.287 222.932 257.566 224.387 257.714 225.858H257.624C257.39 225.368 256.865 224.34 256.817 224.257C256.017 223.043 253.761 221.166 252.194 221.601C251.936 221.681 251.698 221.814 251.494 221.992C251.29 222.169 251.126 222.388 251.013 222.633C250.899 222.878 250.838 223.145 250.833 223.415C250.829 223.685 250.881 223.953 250.987 224.202C251.401 225.272 252.65 225.941 253.699 226.237C254.899 226.576 257.624 226.155 257.728 226.141C257.835 227.604 257.849 229.072 257.769 230.536C257.714 231.619 257.611 232.716 257.5 233.82C257.342 233.468 256.658 232.123 256.603 232.026C255.803 230.812 253.547 228.935 251.974 229.37C251.716 229.45 251.478 229.584 251.275 229.762C251.073 229.94 250.909 230.159 250.796 230.404C250.683 230.649 250.623 230.915 250.619 231.185C250.615 231.455 250.667 231.723 250.773 231.971C251.187 233.041 252.436 233.71 253.478 234.006C254.658 234.338 257.273 233.944 257.486 233.91C257.438 234.407 257.39 234.91 257.335 235.407C257.155 237.042 256.969 238.678 256.838 240.299C256.79 240.858 256.762 241.417 256.734 241.969C256.486 241.451 256.044 240.513 255.962 240.444C255.161 239.223 252.905 237.346 251.339 237.781C251.081 237.86 250.842 237.994 250.638 238.171C250.435 238.349 250.271 238.568 250.157 238.813C250.043 239.058 249.982 239.324 249.978 239.595C249.973 239.865 250.026 240.133 250.131 240.382C250.545 241.458 251.794 242.12 252.843 242.417C253.892 242.714 256.093 242.417 256.714 242.341C256.672 243.266 256.658 244.183 256.679 245.101C256.679 245.494 256.679 245.895 256.734 246.267C256.79 246.64 256.796 247.019 256.831 247.385C256.921 248.151 257.003 248.861 257.107 249.565C257.155 249.924 257.21 250.255 257.266 250.607C257.086 250.041 256.796 249.151 256.762 249.075C256.155 247.758 254.209 245.557 252.622 245.75C252.355 245.789 252.098 245.883 251.87 246.028C251.641 246.173 251.445 246.364 251.296 246.589C251.146 246.814 251.045 247.069 251.001 247.335C250.956 247.602 250.967 247.875 251.035 248.137C251.284 249.262 252.415 250.11 253.402 250.559C254.492 251.056 257.052 251.069 257.362 251.069C257.493 251.918 257.631 252.746 257.776 253.512C257.921 254.278 258.094 255.175 258.252 255.92H259.301C259.108 255.124 258.915 254.262 258.721 253.332C258.577 252.642 258.439 251.897 258.301 251.138C259.559 250.848 260.772 250.383 261.902 249.758C262.527 250.29 263.184 250.783 263.869 251.235C263.51 252.022 263.179 252.78 262.868 253.505C262.502 254.367 262.178 255.168 261.875 255.92H262.965C263.206 255.271 263.468 254.595 263.758 253.85C264.048 253.105 264.303 252.504 264.607 251.78C264.91 251.884 267.318 252.711 268.512 252.608C269.595 252.511 270.941 252.084 271.548 251.104C271.697 250.881 271.798 250.63 271.844 250.366C271.89 250.102 271.88 249.831 271.815 249.571C271.75 249.311 271.632 249.067 271.467 248.856C271.302 248.645 271.094 248.47 270.858 248.344C269.395 247.654 266.835 249.034 265.821 250.103C265.759 250.166 265.083 251.042 264.752 251.483C264.938 251.056 265.117 250.635 265.318 250.193C265.6 249.551 265.918 248.889 266.221 248.24L266.739 247.24C266.911 246.902 267.111 246.591 267.298 246.26C267.581 245.784 267.898 245.308 268.215 244.825C268.85 245.156 270.72 246.081 271.769 246.143C272.817 246.205 274.253 245.991 274.998 245.122C275.181 244.923 275.321 244.688 275.407 244.432C275.493 244.176 275.524 243.904 275.498 243.635C275.472 243.366 275.389 243.106 275.256 242.871C275.122 242.636 274.94 242.432 274.722 242.272C273.39 241.341 270.637 242.362 269.478 243.245L268.954 243.735C269.278 243.28 269.595 242.817 269.94 242.355C270.906 241.065 271.934 239.788 272.955 238.498L273.59 237.691C274.122 237.967 276.143 238.988 277.24 239.071C278.337 239.154 279.724 238.919 280.469 238.05C280.653 237.851 280.792 237.615 280.879 237.358C280.965 237.101 280.996 236.829 280.97 236.56C280.944 236.29 280.861 236.029 280.727 235.794C280.594 235.558 280.412 235.354 280.193 235.193C278.862 234.269 276.109 235.29 274.956 236.173C274.915 236.173 274.646 236.456 274.349 236.739C274.894 236.049 275.426 235.324 275.936 234.6C276.819 233.364 277.619 232.071 278.33 230.729C278.517 230.826 280.856 232.075 282.077 232.15C283.16 232.213 284.561 231.999 285.306 231.122C285.49 230.924 285.63 230.69 285.716 230.434C285.803 230.178 285.835 229.906 285.809 229.637C285.784 229.368 285.702 229.108 285.569 228.873C285.436 228.637 285.254 228.433 285.037 228.273C283.698 227.341 280.945 228.369 279.793 229.246C279.71 229.308 278.744 230.232 278.413 230.577C278.412 230.561 278.412 230.545 278.413 230.529C279.073 229.199 279.615 227.814 280.035 226.389C280.413 225.113 280.718 223.816 280.945 222.505C281.173 221.29 281.304 220.159 281.408 219.165C281.463 218.627 281.504 218.13 281.532 217.668C281.532 217.668 282.477 215.943 282.518 215.826C283.05 214.446 283.27 211.548 282.008 210.52C281.794 210.356 281.547 210.238 281.285 210.175C281.022 210.112 280.749 210.105 280.483 210.155C280.218 210.204 279.966 210.309 279.743 210.462C279.521 210.616 279.333 210.814 279.193 211.044C278.558 212.003 278.737 213.404 279.103 214.432C279.469 215.46 281.042 217.192 281.442 217.578C281.394 218.054 281.345 218.565 281.276 219.131C281.145 220.124 280.994 221.242 280.745 222.45C280.676 222.767 280.593 223.14 280.518 223.45C280.518 222.857 280.518 222.07 280.518 221.973C280.359 220.525 279.207 217.834 277.613 217.496C277.346 217.447 277.073 217.456 276.81 217.521C276.548 217.586 276.302 217.706 276.088 217.873C275.875 218.039 275.7 218.25 275.574 218.489C275.448 218.728 275.374 218.992 275.357 219.262C275.239 220.4 276.047 221.566 276.84 222.305C277.633 223.043 279.89 223.864 280.38 224.03C280.2 224.768 280 225.52 279.752 226.293C279.304 227.702 278.734 229.068 278.047 230.377H277.958C278.034 229.832 278.172 228.687 278.172 228.59C278.172 227.141 277.323 224.333 275.777 223.829C275.518 223.752 275.245 223.731 274.977 223.767C274.708 223.802 274.451 223.894 274.22 224.036C273.99 224.178 273.792 224.367 273.639 224.59C273.487 224.814 273.383 225.067 273.335 225.334C273.093 226.451 273.77 227.7 274.473 228.521C275.294 229.473 277.799 230.591 277.923 230.66C277.205 231.941 276.405 233.174 275.529 234.351C274.88 235.228 274.191 236.09 273.494 236.946C273.556 236.566 273.728 235.062 273.728 234.952C273.728 233.503 272.886 230.695 271.341 230.191C271.081 230.114 270.809 230.092 270.54 230.128C270.272 230.164 270.014 230.255 269.784 230.397C269.553 230.539 269.355 230.728 269.203 230.952C269.05 231.175 268.946 231.429 268.898 231.695C268.657 232.813 269.333 234.062 270.037 234.883C270.837 235.807 273.231 236.918 273.432 237.015C273.114 237.401 272.804 237.794 272.479 238.181C271.431 239.443 270.368 240.706 269.368 241.983C269.016 242.424 268.678 242.873 268.36 243.321C268.436 242.748 268.553 241.707 268.553 241.617C268.553 240.161 267.712 237.353 266.166 236.849C265.907 236.773 265.634 236.753 265.366 236.789C265.098 236.825 264.841 236.917 264.611 237.058C264.38 237.2 264.183 237.389 264.03 237.612C263.877 237.835 263.773 238.087 263.724 238.353C263.482 239.478 264.158 240.72 264.862 241.548C265.566 242.376 267.574 243.349 268.14 243.618C267.594 244.37 267.07 245.122 266.594 245.895C266.394 246.226 266.166 246.585 265.994 246.895L265.462 247.861C265.117 248.551 264.772 249.179 264.496 249.827C264.338 250.152 264.2 250.469 264.048 250.786C264.214 250.221 264.462 249.317 264.476 249.227C264.697 247.792 264.289 244.887 262.834 244.156C262.589 244.041 262.322 243.98 262.052 243.975C261.781 243.97 261.513 244.022 261.264 244.127C261.015 244.232 260.791 244.389 260.606 244.586C260.421 244.784 260.28 245.018 260.191 245.274C260.143 245.408 260.106 245.547 260.081 245.688C259.225 246.637 258.631 247.793 258.356 249.041C258.356 249.131 258.259 250.235 258.232 250.8C258.149 250.338 258.066 249.883 257.99 249.42C257.873 248.73 257.769 247.999 257.673 247.295L257.549 246.177C257.5 245.798 257.5 245.432 257.473 245.053C257.473 244.494 257.473 243.921 257.473 243.349C258.163 243.273 260.232 243.011 261.164 242.486C262.095 241.962 263.151 240.989 263.296 239.851C263.338 239.584 263.323 239.311 263.253 239.051C263.184 238.79 263.06 238.547 262.89 238.337C262.72 238.127 262.509 237.955 262.268 237.831C262.028 237.708 261.765 237.637 261.495 237.622C259.867 237.587 258.135 239.954 257.659 241.327C257.659 241.375 257.569 241.672 257.486 242.017C257.486 241.458 257.521 240.899 257.555 240.333C257.652 238.726 257.804 237.091 257.942 235.449C257.976 235.11 257.997 234.759 258.032 234.427C258.625 234.365 260.874 234.103 261.826 233.551C262.778 232.999 263.813 232.061 263.958 230.915C264 230.649 263.986 230.376 263.915 230.115C263.845 229.854 263.72 229.611 263.55 229.402C263.379 229.192 263.167 229.021 262.926 228.899C262.684 228.777 262.42 228.707 262.151 228.694C260.529 228.652 258.797 231.026 258.321 232.399C258.321 232.447 258.218 232.806 258.128 233.206C258.19 232.316 258.245 231.426 258.273 230.543C258.326 229.026 258.277 227.507 258.128 225.996C258.342 225.996 260.985 225.72 262.04 225.113C262.985 224.568 264.027 223.616 264.172 222.477C264.215 222.21 264.202 221.937 264.132 221.676C264.063 221.415 263.939 221.171 263.769 220.961C263.599 220.751 263.387 220.579 263.146 220.456C262.905 220.333 262.641 220.263 262.371 220.249C260.743 220.207 259.011 222.581 258.535 223.954C258.501 224.05 258.204 225.334 258.114 225.823V225.782C257.933 224.301 257.619 222.839 257.176 221.415C256.787 220.143 256.326 218.894 255.796 217.675C255.313 216.537 254.802 215.522 254.34 214.632C254.085 214.149 253.85 213.715 253.616 213.314H253.65C253.65 213.314 253.485 211.355 253.457 211.244C253.153 209.823 251.725 207.263 250.104 207.105C249.833 207.085 249.562 207.123 249.307 207.215C249.052 207.307 248.82 207.452 248.624 207.64C248.429 207.828 248.276 208.055 248.174 208.307C248.072 208.558 248.024 208.828 248.034 209.099C248.034 210.244 248.958 211.293 249.821 211.983Z" fill="#5A3F86"/>
<path d="M40.63 211.845H117.168V250.573C117.168 251.991 116.605 253.351 115.602 254.354C114.599 255.356 113.239 255.92 111.821 255.92H45.9772C44.5591 255.92 43.199 255.356 42.1962 254.354C41.1934 253.351 40.63 251.991 40.63 250.573V211.845Z" fill="#5A3F86" stroke="#263238" stroke-linecap="round" stroke-linejoin="round"/>
<path d="M37.9598 211.845V230.612C37.9598 234.006 41.0302 236.759 44.8181 236.759H64.5787C65.2689 236.754 65.9507 236.911 66.5682 237.22C67.1858 237.528 67.7217 237.978 68.1321 238.533C68.8567 239.49 69.7963 240.264 70.875 240.791C71.9536 241.318 73.1412 241.585 74.3418 241.568H83.4148C84.6156 241.586 85.8035 241.32 86.8824 240.792C87.9612 240.265 88.9007 239.491 89.6245 238.533C90.0403 237.98 90.5809 237.534 91.202 237.231C91.8232 236.927 92.5073 236.775 93.1986 236.787H112.98C116.768 236.787 119.838 234.027 119.838 230.639V211.845H37.9598Z" fill="#5A3F86" stroke="#263238" stroke-linecap="round" stroke-linejoin="round"/>
<path d="M43.9763 198.57H113.732C115.196 198.57 116.6 199.151 117.635 200.187C118.67 201.222 119.252 202.626 119.252 204.09V209.94H38.4565V204.09C38.4565 202.626 39.0381 201.222 40.0732 200.187C41.1084 199.151 42.5124 198.57 43.9763 198.57Z" fill="white" stroke="#263238" stroke-linecap="round" stroke-linejoin="round"/>
<path d="M120.28 203.206H37.4699C35.9418 203.206 34.7031 204.445 34.7031 205.973V211.824C34.7031 213.352 35.9418 214.591 37.4699 214.591H120.28C121.808 214.591 123.046 213.352 123.046 211.824V205.973C123.046 204.445 121.808 203.206 120.28 203.206Z" fill="white" stroke="#263238" stroke-linecap="round" stroke-linejoin="round"/>
<path d="M34.7031 211.852H123.046" stroke="#263238" stroke-linecap="round" stroke-linejoin="round"/>
<path d="M83.6839 209.885H75.1766L73.3551 211.852H85.5054L83.6839 209.885Z" fill="white" stroke="#263238" stroke-linecap="round" stroke-linejoin="round"/>
<path d="M248.99 255.085H258.532L254.22 208.919C254.139 208.254 253.82 207.641 253.321 207.195C252.822 206.748 252.178 206.498 251.508 206.491H226.097C225.427 206.498 224.783 206.748 224.284 207.195C223.785 207.641 223.465 208.254 223.385 208.919L219.1 255.085H228.65L230.03 238.222H247.658L248.99 255.085ZM230.14 236.132L231.278 219.096H246.354L247.493 236.132H230.14Z" fill="#263238" stroke="#263238" stroke-linecap="round" stroke-linejoin="round"/>
<path d="M265.728 131.077C264.887 130.863 256.455 128.317 254.137 127.282C251.819 126.248 250.77 125.599 250.77 125.599L250.977 115.056C250.977 115.056 247.396 119.486 244.443 120.748C241.49 122.011 237.067 122.011 237.067 122.011L236.853 126.02H224.434C221.902 126.02 217.051 130.236 216.21 133.816C215.378 136.879 213.945 139.745 211.994 142.248C210.731 143.938 206.515 148.996 206.515 148.996C206.515 148.996 201.21 132.437 201.21 128.421C201.21 124.405 202.086 122.853 201.665 120.748C201.244 118.644 201.037 118.43 201.037 116.954C201.037 115.477 201.665 113.58 201.665 112.317C201.665 111.054 198.712 112.103 198.712 113.58C198.712 115.056 198.567 118.637 198.567 118.637C198.567 118.637 194.075 115.056 193.868 114.421C193.661 113.787 190.494 111.048 189.439 110.627C188.82 110.378 188.186 110.169 187.541 109.999C187.37 110.042 187.215 110.133 187.094 110.262C186.974 110.39 186.892 110.551 186.859 110.724C186.827 110.897 186.844 111.077 186.91 111.24C186.976 111.404 187.087 111.545 187.231 111.648C188.321 112.738 190.681 115.532 190.681 115.532C190.681 115.532 186.762 111.448 185.692 111.468C184.623 111.489 184.623 112.579 185.396 114.132C186.205 115.497 187.128 116.792 188.155 118.002C188.514 119.093 188.845 120.114 188.845 120.114C188.845 120.114 186.32 123.281 188.845 126.227C191.371 129.173 193.91 131.747 193.91 131.747C193.91 131.747 195.386 139.543 195.593 143.552C195.8 147.561 195.386 151.349 197.491 155.971C199.595 160.594 204.659 165.244 206.136 165.244C207.613 165.244 221.101 151.756 221.101 151.756C221.101 151.756 221.943 161.243 221.943 167.99C221.943 174.738 221.101 176.484 221.101 176.484C220.299 180.516 219.806 184.603 219.625 188.71C219.204 196.3 222.785 203.462 226.373 204.938C229.961 206.415 244.498 206.208 246.816 206.208C249.135 206.208 251.032 205.787 252.336 203.448C253.64 201.109 255.703 194.175 255.703 188.696C255.703 183.218 258.87 172.041 259.498 168.46C260.126 164.879 264.7 154.881 264.7 154.881C267.29 151.319 269.218 147.32 270.393 143.076C272.262 136.135 266.57 131.291 265.728 131.077Z" fill="#C9C9C9" stroke="#263238" stroke-linecap="round" stroke-linejoin="round"/>
<path d="M245.63 123.198C245.63 123.198 239.199 125.992 236.846 126.02V123.439L245.63 123.198Z" fill="#263238" stroke="#263238" stroke-linecap="round" stroke-linejoin="round"/>
<path d="M246.685 206.346C249.004 206.346 250.901 205.925 252.164 203.586C253.426 201.247 255.538 194.306 255.538 188.828C255.538 185.502 256.704 180.086 257.759 175.539L221.646 171.758C221.446 175.497 220.957 176.588 220.957 176.588C220.155 180.62 219.661 184.707 219.48 188.814C219.059 196.403 222.64 203.572 226.221 205.049C229.802 206.525 244.367 206.346 246.685 206.346Z" fill="white" stroke="#263238" stroke-linecap="round" stroke-linejoin="round"/>
<path d="M270.365 143.09C272.262 136.135 266.57 131.291 265.728 131.077C265.121 130.926 260.602 129.58 257.242 128.442C254.337 132.002 246.734 140.475 241.131 139.212C234.921 137.832 233.81 128.255 233.645 126.02H224.413C221.881 126.02 217.031 130.236 216.189 133.817C215.358 136.879 213.924 139.745 211.973 142.248C211.676 142.648 211.2 143.248 210.662 143.918C213.512 147.367 216.085 152.197 217.562 155.178C219.59 153.211 221.06 151.728 221.06 151.728C221.06 151.728 221.902 161.215 221.902 167.963C221.902 174.711 221.101 176.484 221.101 176.484C221.101 176.484 220.763 178.595 220.687 178.954C232.838 184.087 248.196 183.515 256.158 183.853C257.069 178.216 258.987 171.178 259.463 168.474C260.098 164.886 264.666 154.895 264.666 154.895C267.258 151.334 269.189 147.335 270.365 143.09Z" fill="#263238" stroke="#263238" stroke-linecap="round" stroke-linejoin="round"/>
<path d="M221.039 151.735L218.811 139.895" stroke="#263238" stroke-linecap="round" stroke-linejoin="round"/>
<path d="M190.632 115.532L194.048 118.637" stroke="#263238" stroke-linecap="round" stroke-linejoin="round"/>
<path d="M189.418 127.283C189.418 127.283 187.521 124.695 187.679 123.764C187.838 122.832 187.41 122.059 188.783 120.114C189.818 118.617 191.356 117.543 193.116 117.085C194.048 116.926 194.669 116.926 194.358 117.706C194.048 118.485 192.495 119.417 191.716 120.038C190.936 120.659 190.163 121.418 190.632 122.832C190.869 123.586 191.182 124.314 191.564 125.006" fill="#C9C9C9"/>
<path d="M189.418 127.283C189.418 127.283 187.521 124.695 187.679 123.764C187.838 122.832 187.41 122.059 188.783 120.114C189.818 118.617 191.356 117.543 193.116 117.085C194.048 116.926 194.669 116.926 194.358 117.706C194.048 118.485 192.495 119.417 191.716 120.038C190.936 120.659 190.163 121.418 190.632 122.832C190.869 123.586 191.182 124.314 191.564 125.006" stroke="#263238" stroke-linecap="round" stroke-linejoin="round"/>
<path d="M195.745 130.022V127.703C195.745 126.648 191.736 124.329 191.736 124.329V122.432C192.527 122.296 193.303 122.086 194.055 121.804C194.33 121.738 194.569 121.571 194.725 121.335C194.882 121.099 194.943 120.813 194.896 120.535C194.896 120.535 190.681 120.749 190.067 121.383C189.453 122.018 188.797 125.171 188.797 125.171C188.688 125.547 188.69 125.946 188.803 126.321C188.915 126.695 189.134 127.029 189.432 127.283C190.434 128.172 191.515 128.968 192.661 129.663" fill="#C9C9C9"/>
<path d="M195.745 130.022V127.703C195.745 126.648 191.736 124.329 191.736 124.329V122.432C192.527 122.296 193.303 122.086 194.055 121.804C194.33 121.738 194.569 121.571 194.725 121.335C194.882 121.099 194.943 120.813 194.896 120.535C194.896 120.535 190.681 120.749 190.067 121.383C189.453 122.018 188.797 125.171 188.797 125.171C188.688 125.547 188.69 125.946 188.803 126.321C188.915 126.695 189.134 127.029 189.432 127.283C190.434 128.172 191.515 128.968 192.661 129.663" stroke="#263238" stroke-linecap="round" stroke-linejoin="round"/>
<path d="M244.036 159.497L243.594 152.473H241.11L240.662 159.497C240.083 159.534 239.54 159.79 239.142 160.213C238.745 160.635 238.524 161.194 238.523 161.774V173.586C238.523 173.967 238.674 174.333 238.943 174.603C239.212 174.874 239.577 175.026 239.958 175.028H244.788C245.17 175.028 245.537 174.876 245.808 174.606C246.078 174.335 246.23 173.969 246.23 173.586V161.774C246.229 161.185 246 160.619 245.591 160.194C245.182 159.77 244.625 159.52 244.036 159.497Z" fill="#5A3F86" stroke="#263238" stroke-linecap="round" stroke-linejoin="round"/>
<path d="M244.215 151.107H240.455V153.501H244.215V151.107Z" fill="#5A3F86" stroke="#263238" stroke-linecap="round" stroke-linejoin="round"/>
<path d="M262.996 146.498L267.329 165.175C267.329 165.175 262.092 168.625 258.222 169.964C255.699 170.756 252.995 170.756 250.473 169.964C250.473 169.964 247.713 166.776 245.919 166.776C244.126 166.776 238.633 166.776 237.267 167.466C235.901 168.156 236.356 170.654 237.267 170.881C238.178 171.109 238.171 176.795 241.11 177.484C244.05 178.174 249.99 176.574 250.901 176.574C251.812 176.574 262.748 175.663 268.212 174.98C273.677 174.297 279.831 172.22 280.287 170.654C280.742 169.088 275.505 142.634 274.139 138.991C272.773 135.348 269.813 130.794 264.114 131.022" fill="#263238"/>
<path d="M262.996 146.498L267.329 165.175C267.329 165.175 262.092 168.625 258.222 169.964C255.699 170.756 252.995 170.756 250.473 169.964C250.473 169.964 247.713 166.776 245.919 166.776C244.126 166.776 238.633 166.776 237.267 167.466C235.901 168.156 236.356 170.654 237.267 170.881C238.178 171.109 238.171 176.795 241.11 177.484C244.05 178.174 249.99 176.574 250.901 176.574C251.812 176.574 262.748 175.663 268.212 174.98C273.677 174.297 279.831 172.22 280.287 170.654C280.742 169.088 275.505 142.634 274.139 138.991C272.773 135.348 269.813 130.794 264.114 131.022" stroke="#263238" stroke-linecap="round" stroke-linejoin="round"/>
<path d="M280.307 170.647C280.57 169.729 278.927 160.629 277.272 152.349C273.059 152.79 268.976 154.063 265.259 156.096L267.329 165.169C267.329 165.169 262.092 168.618 258.222 169.957C255.699 170.749 252.995 170.749 250.473 169.957C250.473 169.957 247.713 166.769 245.919 166.769C244.126 166.769 238.633 166.769 237.267 167.459C235.901 168.149 236.356 170.647 237.267 170.875C238.178 171.102 238.171 176.795 241.11 177.484C244.05 178.174 249.99 176.574 250.901 176.574C251.812 176.574 262.748 175.663 268.212 174.98C273.677 174.297 279.852 172.241 280.307 170.647Z" fill="#C9C9C9" stroke="#263238" stroke-linecap="round" stroke-linejoin="round"/>
<path d="M235.591 91.0248C235.591 91.0248 231.589 94.1848 230.954 98.1935C230.319 102.202 230.74 109.364 232.217 113.159C233.693 116.954 234.535 123.281 239.179 124.122C241.03 124.434 242.931 124.268 244.701 123.64C246.471 123.013 248.052 121.944 249.293 120.535C250.77 118.637 252.453 113.373 252.453 113.373C253.118 113.201 253.725 112.855 254.21 112.369C254.695 111.884 255.042 111.277 255.213 110.613C255.841 108.295 256.055 107.667 255.634 106.611C255.264 105.829 254.765 105.116 254.158 104.5C254.158 104.5 254.786 96.4893 252.046 93.5432C249.307 90.597 241.49 87.6508 235.591 91.0248Z" fill="#C9C9C9" stroke="#263238" stroke-linecap="round" stroke-linejoin="round"/>
<path d="M235.591 91.0248C234.907 91.5966 234.272 92.2243 233.693 92.9015C236.361 94.0283 239.228 94.6078 242.125 94.6057C245.455 94.6022 248.775 94.2507 252.033 93.557C249.286 90.6039 241.49 87.6508 235.591 91.0248Z" fill="#263238" stroke="#263238" stroke-linecap="round" stroke-linejoin="round"/>
<path d="M230.947 102.195C230.947 102.195 232.631 97.1379 232.631 95.4544C232.631 94.9921 232.631 94.5712 232.672 94.1917C231.808 95.3812 231.218 96.7482 230.947 98.1935C230.782 99.3202 230.69 100.456 230.671 101.595L230.947 102.195Z" fill="#263238" stroke="#263238" stroke-linecap="round" stroke-linejoin="round"/>
<path d="M252.026 93.5569C251.626 95.2929 251.344 97.0541 251.184 98.8283C251.184 100.305 252.447 102.837 252.447 102.837L252.24 107.894C252.24 107.894 253.295 108.529 253.295 106.839C253.295 105.148 253.081 104.769 254.137 104.521C254.137 104.514 254.765 96.5031 252.026 93.5569Z" fill="#263238" stroke="#263238" stroke-linecap="round" stroke-linejoin="round"/>
<path d="M237.481 107.26C237.481 107.26 235.377 105.148 233.266 106.625" stroke="#263238" stroke-linecap="round" stroke-linejoin="round"/>
<path d="M242.118 107.467C242.118 107.467 245.071 105.362 246.754 107.467" stroke="#263238" stroke-linecap="round" stroke-linejoin="round"/>
<path d="M237.481 103.037C237.481 103.037 234.107 102.195 232.845 104.514" stroke="#263238" stroke-width="2" stroke-linecap="round" stroke-linejoin="round"/>
<path d="M242.753 103.037C242.753 103.037 245.913 102.195 247.389 104.514" stroke="#263238" stroke-width="2" stroke-linecap="round" stroke-linejoin="round"/>
<path d="M237.481 111.475C237.481 111.475 237.06 112.945 238.537 112.945C240.013 112.945 240.855 113.159 241.297 112.103" stroke="#263238" stroke-linecap="round" stroke-linejoin="round"/>
<path d="M235.591 114.842C235.591 114.842 238.751 118.009 244.022 114.635" stroke="#263238" stroke-linecap="round" stroke-linejoin="round"/>
<path d="M230.761 189.607C230.761 189.607 224.772 182.294 216.706 177.947C208.641 173.6 200.347 172.427 193.896 173.807C187.445 175.187 187.21 181.355 187.686 184.101C188.162 186.847 196.442 209.72 198.036 213.832C199.63 217.944 203.335 234.669 203.797 236.953C204.259 239.236 200.803 245.191 200.347 247.93C199.892 250.669 197.118 251.821 195.048 252.967C192.978 254.112 195.738 255.727 198.043 255.727C200.347 255.727 206.798 255.727 208.392 255.037C209.986 254.347 211.676 249.696 214.602 247.944C219.211 245.184 218.983 241.086 218.052 239.257C216.61 236.394 214.367 233.993 213.677 231.709C212.987 229.425 210.917 214.536 210.917 211.334V198.984C210.917 198.984 215.747 203.324 219.197 204.697C222.647 206.07 232.796 206.767 234.411 206.525C236.025 206.284 252.15 206.525 252.15 206.525C252.15 206.525 264.756 209.975 264.569 191.084C264.507 184.225 255.696 169.784 248.272 178.595C245.312 182.1 240.144 190.746 237.84 197.149" fill="white"/>
<path d="M230.761 189.607C230.761 189.607 224.772 182.294 216.706 177.947C208.641 173.6 200.347 172.427 193.896 173.807C187.445 175.187 187.21 181.355 187.686 184.101C188.162 186.847 196.442 209.72 198.036 213.832C199.63 217.944 203.335 234.669 203.797 236.953C204.259 239.236 200.803 245.191 200.347 247.93C199.892 250.669 197.118 251.821 195.048 252.967C192.978 254.112 195.738 255.727 198.043 255.727C200.347 255.727 206.798 255.727 208.392 255.037C209.986 254.347 211.676 249.696 214.602 247.944C219.211 245.184 218.983 241.086 218.052 239.257C216.61 236.394 214.367 233.993 213.677 231.709C212.987 229.425 210.917 214.536 210.917 211.334V198.984C210.917 198.984 215.747 203.324 219.197 204.697C222.647 206.07 232.796 206.767 234.411 206.525C236.025 206.284 252.15 206.525 252.15 206.525C252.15 206.525 264.756 209.975 264.569 191.084C264.507 184.225 255.696 169.784 248.272 178.595C245.312 182.1 240.144 190.746 237.84 197.149" stroke="#263238" stroke-linecap="round" stroke-linejoin="round"/>
<path d="M217.596 238.553C216.906 241.713 215.63 245.674 213.153 246.909C209.634 248.675 210.51 253.733 203.252 254.616C198.229 255.223 196.263 253.829 195.524 252.918L195.048 253.174C192.978 254.319 195.738 255.934 198.043 255.934C200.347 255.934 206.798 255.934 208.392 255.244C209.986 254.554 211.676 249.896 214.602 248.151C219.211 245.391 218.983 241.251 218.052 239.457C217.934 239.147 217.769 238.85 217.596 238.553Z" fill="white" stroke="#263238" stroke-linecap="round" stroke-linejoin="round"/>
<path d="M210.945 198.991C210.945 198.991 211.442 199.432 212.222 200.081C213.339 183.977 208.62 176.829 205.412 173.862C201.614 173.085 197.701 173.066 193.896 173.807C187.438 175.187 187.21 181.355 187.686 184.101C188.162 186.847 196.442 209.72 198.036 213.832C199.63 217.944 203.335 234.669 203.797 236.953C203.797 237.049 203.797 237.153 203.797 237.256C204.33 237.235 204.864 237.286 205.384 237.408C206.992 237.87 209.524 239.478 211.373 238.098C213.222 236.718 213.677 231.695 213.677 231.695C212.987 229.404 210.917 214.522 210.917 211.32L210.945 198.991Z" fill="#C9C9C9" stroke="#263238" stroke-linecap="round" stroke-linejoin="round"/>
<path d="M206.874 186.509C206.429 185.836 205.942 185.191 205.418 184.577" stroke="#263238" stroke-linecap="round" stroke-linejoin="round"/>
<path d="M210.945 198.991C210.727 195.631 209.88 192.343 208.447 189.297" stroke="#263238" stroke-linecap="round" stroke-linejoin="round"/>
<path d="M257.594 236.373C257.594 236.373 258.877 241.168 260.029 242.548C261.181 243.928 266.48 250.386 266.48 252.456C266.48 254.526 264.638 254.526 263.031 254.995C261.733 255.361 252.081 255.14 248.355 255.037C247.444 255.037 247.396 254.022 247.134 253.146C246.63 251.456 247.361 248.772 247.727 246.247C248.348 241.914 248.051 240.299 248.976 238.657C249.901 237.015 248.383 235.662 250.225 235.662C252.067 235.662 257.594 236.373 257.594 236.373Z" fill="white" stroke="#263238" stroke-linecap="round" stroke-linejoin="round"/>
<path d="M263.024 254.995C264.638 254.533 266.474 254.533 266.474 252.456C266.454 252.165 266.389 251.878 266.28 251.608C264.721 252.856 261.685 253.919 258.001 253.919C253.599 253.919 251.839 253.229 249.859 251.276C248.603 250.021 247.617 249.896 247.065 250.007C246.848 251.042 246.848 252.111 247.065 253.146C247.327 254.022 247.375 255.009 248.286 255.037C252.074 255.14 261.727 255.361 263.024 254.995Z" fill="white" stroke="#263238" stroke-linecap="round" stroke-linejoin="round"/>
<path d="M251.212 255.237C250.849 253.031 251.001 250.772 251.653 248.634" stroke="#263238" stroke-linecap="round" stroke-linejoin="round"/>
<path d="M254.91 173.731C254.91 173.731 248.514 174.207 246.913 177.567C245.312 180.927 244.684 183.998 245.768 194.292C246.823 204.29 247.934 228.715 249.976 238.381C250.432 240.541 255.917 240.306 257.062 238.864C258.208 237.422 262.168 212.845 262.63 202.523C263.093 192.201 263.113 184.294 261.057 180.217C259.001 176.139 257.628 174.207 254.91 173.731Z" fill="#C9C9C9" stroke="#263238" stroke-linecap="round" stroke-linejoin="round"/>
<path d="M330.165 107.798C330.165 107.798 328.868 112.165 327.674 113.814C326.784 115.036 324.977 115.677 324.977 117.133C324.977 118.589 327.467 119.624 327.467 119.624C327.467 119.624 329.537 126.047 329.958 127.503C330.379 128.959 333.277 129.159 334.098 128.952C334.919 128.745 340.528 126.254 340.528 126.254L341.356 109.461L330.165 107.798Z" fill="white" stroke="#263238" stroke-linecap="round" stroke-linejoin="round"/>
<path d="M331.807 114.484C332.165 114.484 332.456 113.971 332.456 113.338C332.456 112.706 332.165 112.193 331.807 112.193C331.449 112.193 331.159 112.706 331.159 113.338C331.159 113.971 331.449 114.484 331.807 114.484Z" fill="#263238"/>
<path d="M330.738 109.902C331.307 109.788 331.897 109.886 332.399 110.177C332.901 110.468 333.279 110.932 333.463 111.482" fill="white"/>
<path d="M330.738 109.902C331.307 109.788 331.897 109.886 332.399 110.177C332.901 110.468 333.279 110.932 333.463 111.482" stroke="#263238" stroke-linecap="round" stroke-linejoin="round"/>
<path d="M329.448 121.232C329.448 121.232 332.166 121.376 333.587 119.796L329.448 121.232Z" fill="white"/>
<path d="M329.448 121.232C329.448 121.232 332.166 121.376 333.587 119.796" stroke="#263238" stroke-linecap="round" stroke-linejoin="round"/>
<path d="M297.468 181.507C297.468 181.507 292.803 181.969 292.334 185.937C291.865 189.904 299.337 201.116 304.933 209.499C310.529 217.882 320.802 230.729 321.734 233.061C322.665 235.393 323.114 242.396 321.044 244.729C318.974 247.061 317.083 248.227 318.712 248.696C320.34 249.165 327.578 248.227 327.578 248.227C327.578 248.227 331.076 242.162 332.249 240.064C333.422 237.967 336.444 232.364 336.444 231.433C336.444 230.501 333.643 226.762 332.477 226.3C331.31 225.837 326.412 224.23 326.412 224.23C326.412 224.23 314.965 205.773 314.268 203.903C313.289 201.748 312.197 199.645 310.998 197.604C310.998 197.604 329.896 206.235 341.356 207.167C352.817 208.098 356.06 207.401 356.06 207.401C356.06 207.401 356.06 205.069 354.68 204.6C353.3 204.131 344.648 200.171 342.315 199.467C339.983 198.763 323.369 190.594 321.499 189.904C319.629 189.214 301.904 181.272 301.904 181.272L297.468 181.507Z" fill="#263238" stroke="#263238" stroke-linecap="round" stroke-linejoin="round"/>
<path d="M338.031 144.939C338.031 144.939 335.961 154.509 336.492 157.413C337.023 160.318 337.003 166.466 337.003 170.399C337.003 174.331 335.982 178.25 336.154 179.623C336.327 180.996 341.108 182.383 345.034 182.383C348.96 182.383 363.311 182.549 365.36 181.355C367.41 180.162 367.244 175.891 366.899 173.669C366.554 171.447 366.209 151.286 365.878 147.699C365.547 144.111 365.188 139.847 363.994 136.597C362.801 133.347 356.48 130.104 350.195 131.988C343.909 133.872 338.031 144.939 338.031 144.939Z" fill="white" stroke="#263238" stroke-linecap="round" stroke-linejoin="round"/>
<path d="M338.921 109.33C338.921 109.33 339.211 123.529 337.775 129.835C336.34 136.142 334.477 140.592 335.34 144.608C336.202 148.623 341.363 151.349 343.226 150.348C345.089 149.348 345.524 142.455 351.257 138.301C356.991 134.148 361.869 136.721 363.304 139.592C364.337 141.937 365.108 144.39 365.602 146.905C367.48 144.643 368.49 141.786 368.451 138.846C368.313 134.113 365.443 127.372 362.428 123.067C360.337 119.901 358.56 116.539 357.122 113.028L338.921 109.33Z" fill="#263238" stroke="#263238" stroke-linecap="round" stroke-linejoin="round"/>
<path d="M337.217 94.5505L330.372 104.3L318.96 101.188C321.912 104.197 325.429 106.594 329.31 108.239C335.74 110.937 343.619 111.558 350.257 111.558C356.894 111.558 368.306 113.842 368.306 113.842C368.306 113.842 363.532 111.351 362.29 110.73C361.419 110.315 360.517 109.969 359.592 109.695C359.592 109.695 358.143 98.9111 358.143 97.8693C358.143 96.8274 341.363 93.3086 339.7 93.3086C339.218 93.3086 338.743 93.4208 338.312 93.6364C337.881 93.8519 337.506 94.1649 337.217 94.5505Z" fill="white" stroke="#263238" stroke-linecap="round" stroke-linejoin="round"/>
<path d="M339.286 110.73C339.286 110.73 351.32 114.463 358.371 115.084C365.422 115.705 370.604 114.256 368.327 113.842C366.05 113.428 346.131 109.902 339.286 110.73Z" fill="white" stroke="#263238" stroke-linecap="round" stroke-linejoin="round"/>
<path d="M330.372 104.3C330.372 104.3 331.407 105.756 341.57 108.239C347.462 109.737 353.564 110.229 359.62 109.695L359.206 105.335L333.491 100.153L330.372 104.3Z" fill="#263238" stroke="#263238" stroke-linecap="round" stroke-linejoin="round"/>
<path d="M365.595 179.403C365.595 179.403 369.797 188.034 369.328 196.438C368.858 204.842 360.696 207.843 356.26 208.333C351.823 208.823 336.195 205.083 332.021 202.503C327.847 199.922 316.386 194.099 316.386 194.099C316.386 194.099 322.32 196.521 324.666 218.972C324.901 221.256 328.116 232.482 330.255 233.461C334.795 235.531 335.25 237.111 334.084 239.913C332.918 242.714 327.785 252.974 326.149 254.609C324.514 256.244 316.58 255.989 315.648 255.775L314.717 255.54C314.717 255.54 316.097 253.678 317.518 252.042C318.939 250.407 320.085 246.674 320.085 244.577C320.085 242.479 320.423 238.981 319.726 235.945C319.029 232.91 300.973 196.9 298.634 192.236C296.295 187.572 295.184 180.61 296.564 179.637C300.531 176.836 321.996 178.257 330.158 179.403C338.32 180.548 340.19 181.038 340.19 181.038L363.29 181.507L365.595 179.403Z" fill="white" stroke="#263238" stroke-linecap="round" stroke-linejoin="round"/>
<path d="M316.366 194.099C316.366 194.099 312.861 191.201 311.722 190.518L316.366 194.099Z" fill="white"/>
<path d="M316.366 194.099C316.366 194.099 312.861 191.201 311.722 190.518" stroke="#263238" stroke-linecap="round" stroke-linejoin="round"/>
<path d="M369.328 196.438C369.797 188.034 365.595 179.403 365.595 179.403L363.263 181.507L340.163 181.038C340.163 181.038 339.162 180.789 335.464 180.203C337.72 185.405 340.528 195.32 334.25 203.579C340.183 205.994 352.423 208.74 356.26 208.333C360.696 207.843 368.858 204.835 369.328 196.438Z" fill="#5A3F86" stroke="#263238" stroke-linecap="round" stroke-linejoin="round"/>
<path d="M346.069 189.724C348.767 190.559 352.141 191.587 354.466 192.208C358.93 193.395 361.014 191.905 361.014 191.015C361.014 190.125 363.691 191.905 363.691 188.634C363.739 186.926 363.539 185.22 363.097 183.57" stroke="#263238" stroke-linecap="round" stroke-linejoin="round"/>
<path d="M358.93 186.254C358.93 186.254 363.07 191.608 364.291 196.369" stroke="#263238" stroke-linecap="round" stroke-linejoin="round"/>
<path d="M341.681 188.338L343.475 188.903" stroke="#263238" stroke-linecap="round" stroke-linejoin="round"/>
<path d="M335.471 180.203C337.727 185.405 340.535 195.32 334.257 203.579C335.154 203.945 336.202 204.317 337.334 204.69C338.714 202.792 340.659 199.005 341.108 192.471C341.501 186.633 340.542 182.984 339.638 180.921C339.01 180.796 337.755 180.562 335.471 180.203Z" fill="white" stroke="#263238" stroke-linecap="round" stroke-linejoin="round"/>
<path d="M332.877 234.993C332.03 234.412 331.142 233.893 330.22 233.441C330.542 236.605 330.011 239.797 328.682 242.686C327.893 244.497 326.956 246.239 325.88 247.896C324.026 246.892 322.015 246.208 319.933 245.874C319.853 246.374 319.747 246.869 319.616 247.357C321.461 247.806 323.271 248.39 325.032 249.103C323.721 250.835 322.658 251.663 322.148 251.787C321.637 251.911 319.712 251.449 318.173 251.014C317.971 251.368 317.74 251.705 317.484 252.022C316.104 253.657 314.682 255.52 314.682 255.52L315.614 255.754C316.545 255.989 324.48 256.223 326.115 254.588C327.044 253.425 327.856 252.172 328.537 250.849C328.695 250.573 328.854 250.283 329.013 249.993C331.021 246.336 333.311 241.651 334.043 239.899C335.216 237.091 334.781 236.387 332.877 234.993Z" fill="#263238" stroke="#263238" stroke-linecap="round" stroke-linejoin="round"/>
<path d="M362.932 255.299H372.481L368.196 209.133C368.117 208.467 367.799 207.852 367.3 207.404C366.801 206.956 366.155 206.705 365.485 206.698H340.039C339.369 206.706 338.725 206.958 338.228 207.406C337.73 207.854 337.413 208.468 337.334 209.133L333.049 255.299H342.591L343.971 238.429H361.607L362.932 255.299ZM344.089 236.332L345.227 219.296H360.31L361.448 236.332H344.089Z" fill="#263238" stroke="#263238" stroke-linecap="round" stroke-linejoin="round"/>
<path d="M316.152 163.402L315.703 156.385H313.192L312.744 163.402C312.164 163.439 311.621 163.695 311.224 164.118C310.827 164.541 310.605 165.099 310.605 165.679V177.484C310.605 177.865 310.756 178.23 311.025 178.499C311.294 178.768 311.659 178.92 312.04 178.92H316.87C317.25 178.92 317.615 178.768 317.884 178.499C318.153 178.23 318.305 177.865 318.305 177.484V165.679C318.304 165.097 318.081 164.537 317.68 164.113C317.28 163.69 316.733 163.436 316.152 163.402Z" fill="#5A3F86" stroke="#263238" stroke-linecap="round" stroke-linejoin="round"/>
<path d="M316.359 155.019H312.599V157.413H316.359V155.019Z" fill="#5A3F86" stroke="#263238" stroke-linecap="round" stroke-linejoin="round"/>
<path d="M354.1 169.205L353.079 175.014C353.079 175.014 338.555 176.891 335.312 176.726C332.069 176.56 325.742 175.87 325.742 175.87C325.742 175.87 320.105 171.254 319.933 170.571C319.76 169.888 318.394 169.881 318.394 169.881V172.11C317.68 172.549 316.86 172.788 316.021 172.8C314.641 172.8 313.261 172.703 312.074 172.703C310.887 172.703 310.004 172.531 310.197 173.393C310.391 174.255 310.708 175.608 311.053 176.981C311.309 177.853 311.857 178.611 312.605 179.127C312.605 179.127 333.96 180.838 338.569 181.197C343.178 181.555 359.413 183.956 360.951 183.591H361C361.876 183.392 362.663 182.913 363.243 182.227C363.823 181.541 364.164 180.686 364.215 179.789L364.905 169.246L354.1 169.205Z" fill="white" stroke="#263238" stroke-linecap="round" stroke-linejoin="round"/>
<path d="M352.03 140.157C350.579 143.002 349.987 146.207 350.326 149.382C350.836 154.847 349.808 166.466 349.981 168.177C350.153 169.888 354.762 170.399 354.762 170.399H363.484C363.484 170.399 366.243 169.37 366.733 167.832C367.223 166.293 364.663 152.287 363.973 148.354C363.283 144.421 363.125 138.619 357.653 137.253" fill="white"/>
<path d="M352.03 140.157C350.579 143.002 349.987 146.207 350.326 149.382C350.836 154.847 349.808 166.466 349.981 168.177C350.153 169.888 354.762 170.399 354.762 170.399H363.484C363.484 170.399 366.243 169.37 366.733 167.832C367.223 166.293 364.663 152.287 363.973 148.354C363.283 144.421 363.125 138.619 357.653 137.253" stroke="#263238" stroke-linecap="round" stroke-linejoin="round"/>
<path d="M129.539 255.016H139.081L134.797 208.85C134.725 208.183 134.409 207.566 133.91 207.117C133.411 206.669 132.763 206.421 132.092 206.422H106.639C105.968 206.421 105.32 206.669 104.821 207.117C104.322 207.566 104.006 208.183 103.934 208.85L99.6497 255.016H109.192L110.572 238.146H128.159L129.539 255.016ZM110.696 236.049L111.834 219.02H126.91L128.049 236.049H110.696Z" fill="#263238" stroke="#263238" stroke-linecap="round" stroke-linejoin="round"/>
<path d="M149.921 120.569C149.921 120.569 156.075 121.259 157.214 125.813C158.352 130.367 157.214 144.263 157.214 150.41C157.214 156.558 157.669 166.355 157.214 172.048C156.758 177.74 156.758 195.506 157.214 196.196C157.669 196.886 153.074 197.107 153.074 197.107C153.074 197.107 149.658 180.934 148.975 173.869C148.292 166.804 148.52 151.79 148.52 151.79V120.341L149.921 120.569Z" fill="white" stroke="#263238" stroke-linecap="round" stroke-linejoin="round"/>
<path d="M153.108 197.107C153.108 197.107 157.669 196.879 157.248 196.196C156.827 195.513 156.793 177.747 157.248 172.048C157.703 166.348 157.248 156.558 157.248 150.41C157.248 148.561 157.351 146.001 157.462 143.214L148.589 143.524V151.804C148.589 151.804 148.361 166.838 149.044 173.883C149.727 180.927 153.108 197.107 153.108 197.107Z" fill="white" stroke="#263238" stroke-linecap="round" stroke-linejoin="round"/>
<path d="M152.197 133.327C152.197 136.742 150.818 145.629 150.376 148.589C149.934 151.549 138.509 174.932 138.509 174.932L109.833 177.747C109.833 177.747 110.523 156.786 110.744 149.272C110.965 141.758 113.249 130.367 115.526 127.407C117.803 124.447 133.175 123.681 133.175 123.681C133.175 123.681 146.505 119.658 148.554 120.341C150.604 121.025 151.742 121.48 152.425 122.846" fill="white"/>
<path d="M152.197 133.327C152.197 136.742 150.818 145.629 150.376 148.589C149.934 151.549 138.509 174.932 138.509 174.932L109.833 177.747C109.833 177.747 110.523 156.786 110.744 149.272C110.965 141.758 113.249 130.367 115.526 127.407C117.803 124.447 133.175 123.681 133.175 123.681C133.175 123.681 146.505 119.658 148.554 120.341C150.604 121.025 151.742 121.48 152.425 122.846" stroke="#263238" stroke-linecap="round" stroke-linejoin="round"/>
<path d="M133.237 123.136C133.237 123.136 129.787 124.157 129.994 126.206C130.201 128.255 137.681 140.226 141.268 143.29C144.856 146.353 144.511 128.8 144.511 128.8C144.511 128.8 141.606 122.287 133.237 123.136Z" fill="white" stroke="#263238" stroke-linecap="round" stroke-linejoin="round"/>
<path d="M141.724 129.684L140.578 134.92L144.449 129.684C143.546 129.544 142.627 129.544 141.724 129.684Z" fill="#263238" stroke="#263238" stroke-linecap="round" stroke-linejoin="round"/>
<path d="M117.278 206.732H128.518C128.518 206.732 132.458 207.857 137.329 201.109C142.2 194.361 146.512 177.126 146.512 177.126C146.512 177.126 135.079 182.749 129.643 189.497C124.206 196.245 117.278 206.732 117.278 206.732Z" fill="#263238" stroke="#263238" stroke-linecap="round" stroke-linejoin="round"/>
<path d="M108.24 169.998C107.869 170.113 107.505 170.249 107.15 170.405C103.084 172.24 99.827 175.492 97.9868 179.554C94.3438 187.296 98.4284 201.737 104.348 204.469C110.268 207.201 120.873 207.229 123.84 204.283C126.807 201.337 139.447 187.068 139.447 187.068L150.148 175.449C150.148 175.449 150.376 168.391 146.698 166.342C143.021 164.292 126.2 167.252 118.451 168.618C110.703 169.985 108.24 169.998 108.24 169.998Z" fill="#263238" stroke="#263238" stroke-linecap="round" stroke-linejoin="round"/>
<path d="M108.295 205.925C108.295 205.925 114.505 207.305 118.555 206.228C125.924 204.269 128.904 200.474 128.904 200.474" stroke="#737373" stroke-linecap="round" stroke-linejoin="round"/>
<path d="M146.56 96.31C146.56 96.31 140.24 89.8243 133.582 89.6518C126.924 89.4793 116.837 100.926 116.837 106.211C116.837 111.496 120.425 113.904 120.086 115.781C119.748 117.658 119.231 119.196 117.692 119.196H115.471C115.471 119.196 119.741 125.689 125.206 126.882C130.671 128.076 133.582 126.882 134.265 125.861C135.819 123.344 137.188 120.717 138.364 118.002C139.557 115.098 142.973 109.461 144.684 109.116C146.395 108.771 148.134 109.806 148.134 112.365C148.134 114.925 149.162 117.147 152.066 116.809C154.971 116.471 157.869 108.605 156.848 102.458C155.827 96.3099 150.666 91.8735 146.56 96.31Z" fill="#263238" stroke="#263238" stroke-linecap="round" stroke-linejoin="round"/>
<path d="M148.492 104.824C148.492 104.824 150.383 108.833 150.383 110.716C150.322 112.376 150.163 114.03 149.907 115.67C149.907 115.67 151.797 117.789 151.797 118.734C151.797 119.679 149.203 121.087 149.203 121.087C149.408 123.626 148.652 126.15 147.085 128.159C144.491 131.222 140.716 129.573 138.598 128.393C136.48 127.214 133.175 123.681 133.175 123.681C132.778 121.945 132.944 120.127 133.651 118.492C134.824 115.67 137.653 112.131 141.662 109.523C145.67 106.915 147.554 106.715 148.492 104.824Z" fill="white" stroke="#263238" stroke-linecap="round" stroke-linejoin="round"/>
<path d="M146.284 115.388C146.284 115.995 145.995 116.485 145.636 116.485C145.277 116.485 144.946 115.995 144.946 115.388C144.946 114.78 145.236 114.297 145.636 114.297C146.036 114.297 146.284 114.753 146.284 115.388Z" fill="#263238"/>
<path d="M143.69 113.766C143.69 113.766 144.78 111.979 147.561 112.276" stroke="#263238" stroke-linecap="round" stroke-linejoin="round"/>
<path d="M143.097 122.108C144.331 123.093 145.888 123.585 147.464 123.488" stroke="#263238" stroke-linecap="round" stroke-linejoin="round"/>
<path d="M138.005 175.477C134.657 177.933 132.37 181.572 131.609 185.654C130.498 192.339 130.174 211.872 129.222 220.29C128.269 228.708 125.192 238.015 122.812 241.037C120.431 244.059 112.338 249.931 112.814 252.332C113.29 254.733 116.471 256.313 120.611 255.837C124.751 255.361 129.677 251.539 130.96 245.653C132.244 239.768 139.316 224.72 141.544 217.399C143.773 210.079 146.45 200.454 147.064 192.022C147.678 183.591 147.865 173.566 138.005 175.477Z" fill="white" stroke="#263238" stroke-linecap="round" stroke-linejoin="round"/>
<path d="M138.005 175.477C134.657 177.933 132.37 181.572 131.609 185.654C130.498 192.34 130.174 211.872 129.222 220.29C129.111 221.284 128.966 222.284 128.801 223.291C131.89 224.696 135.272 225.337 138.66 225.161C139.833 222.208 140.868 219.49 141.503 217.399C143.732 210.085 146.409 200.454 147.023 192.022C147.637 183.591 147.865 173.566 138.005 175.477Z" fill="#263238" stroke="#263238" stroke-linecap="round" stroke-linejoin="round"/>
<path d="M134.369 177.74C132.752 182.385 131.479 187.142 130.56 191.974C129.373 198.873 129.47 210.755 129.47 210.755" stroke="#737373" stroke-linecap="round" stroke-linejoin="round"/>
<path d="M130.919 242.949C130.919 242.949 130.76 240.879 128.056 239.133C125.351 237.387 123.288 240.403 123.288 240.403C123.129 240.623 122.977 240.837 122.819 241.037C120.431 244.059 112.317 249.952 112.794 252.332C113.27 254.712 116.45 256.313 120.59 255.837C124.73 255.361 129.656 251.539 130.94 245.653C131.14 244.756 131.436 243.638 131.816 242.362L130.919 242.949Z" fill="#5A3F86" stroke="#263238" stroke-linecap="round" stroke-linejoin="round"/>
<path d="M137.625 172.958C137.397 179.258 138.727 185.517 141.496 191.18C146.05 200.067 159.042 224.464 159.042 224.464V233.372C159.042 234.973 164.058 238.388 167.018 240.209C169.978 242.031 176.581 244.536 178.402 244.08C180.224 243.625 181.852 242.01 180.914 239.754C179.976 237.498 170.433 226.769 169.295 224.492C168.156 222.215 163.858 212.845 162.719 208.519C161.581 204.193 156.075 181.417 154.247 175.718C152.418 170.019 150.604 166.155 148.099 165.472C145.595 164.789 139.447 166.611 137.853 167.542" fill="#263238"/>
<path d="M137.625 172.958C137.397 179.258 138.727 185.517 141.496 191.18C146.05 200.067 159.042 224.464 159.042 224.464V233.372C159.042 234.973 164.058 238.388 167.018 240.209C169.978 242.031 176.581 244.536 178.402 244.08C180.224 243.625 181.852 242.01 180.914 239.754C179.976 237.498 170.433 226.769 169.295 224.492C168.156 222.215 163.858 212.845 162.719 208.519C161.581 204.193 156.075 181.417 154.247 175.718C152.418 170.019 150.604 166.155 148.099 165.472C145.595 164.789 139.447 166.611 137.853 167.542" stroke="#263238" stroke-linecap="round" stroke-linejoin="round"/>
<path d="M139.799 172.289C139.799 172.289 137.398 185.233 145.746 200.04" stroke="#737373" stroke-linecap="round" stroke-linejoin="round"/>
<path d="M169.295 224.464C168.156 222.187 163.858 212.818 162.719 208.492C162.719 208.395 162.664 208.278 162.637 208.16C159.325 209.939 155.638 210.903 151.88 210.976C155.744 218.262 159.042 224.464 159.042 224.464V233.372C159.042 234.973 164.058 238.388 167.018 240.209C169.978 242.031 176.581 244.535 178.402 244.08C180.224 243.625 181.852 242.01 180.914 239.754C179.976 237.498 170.433 226.741 169.295 224.464Z" fill="white" stroke="#263238" stroke-linecap="round" stroke-linejoin="round"/>
<path d="M169.295 224.464C169.184 224.244 169.033 223.919 168.853 223.505C165.155 225.058 164.513 229.473 164.513 229.473L159.042 224.464V233.372C159.042 234.972 164.058 238.388 167.018 240.209C169.978 242.031 176.581 244.535 178.402 244.08C180.224 243.625 181.852 242.01 180.914 239.754C179.975 237.498 170.433 226.741 169.295 224.464Z" fill="#5A3F86" stroke="#263238" stroke-linecap="round" stroke-linejoin="round"/>
<path d="M171.799 240.409C167.162 238.347 162.861 235.597 159.042 232.254V233.372C159.042 234.973 164.058 238.388 167.018 240.209C169.978 242.031 176.581 244.535 178.402 244.08C180.107 243.652 181.604 242.238 181.059 240.202C180.01 241.693 177.636 242.838 171.799 240.409Z" fill="white" stroke="#263238" stroke-linecap="round" stroke-linejoin="round"/>
<path d="M120.77 125.585C120.77 125.585 113.477 124.895 110.289 129.035C107.101 133.175 105.735 140.875 105.735 145.663C105.735 150.452 104.597 170.944 105.28 172.31C105.963 173.676 147.871 167.073 148.748 166.845C149.624 166.618 154.447 175.953 154.902 176.643C155.358 177.333 155.592 180.513 155.592 181.652C155.592 182.79 159.235 180.058 159.235 180.058C159.145 177.54 158.914 175.03 158.545 172.537C157.448 167.625 154.757 165.362 150.341 163.43L118.941 160.925L121.011 140.192" fill="white"/>
<path d="M120.77 125.585C120.77 125.585 113.477 124.895 110.289 129.035C107.101 133.175 105.735 140.875 105.735 145.663C105.735 150.452 104.597 170.944 105.28 172.31C105.963 173.676 147.871 167.073 148.748 166.845C149.624 166.618 154.447 175.953 154.902 176.643C155.358 177.333 155.592 180.513 155.592 181.652C155.592 182.79 159.235 180.058 159.235 180.058C159.145 177.54 158.914 175.03 158.545 172.537C157.448 167.625 154.757 165.362 150.341 163.43L118.941 160.925L121.011 140.192" stroke="#263238" stroke-linecap="round" stroke-linejoin="round"/>
<path d="M150.376 163.395L118.941 160.925L119.562 149.886L105.639 149.03C105.376 155.012 104.721 171.192 105.28 172.31C105.97 173.69 147.871 167.073 148.748 166.845C149.624 166.618 154.447 175.953 154.902 176.643C155.358 177.333 155.592 180.513 155.592 181.652C155.592 182.79 159.235 180.058 159.235 180.058C159.145 177.54 158.915 175.03 158.545 172.537C157.483 167.59 154.792 165.327 150.376 163.395Z" fill="white" stroke="#263238" stroke-linecap="round" stroke-linejoin="round"/>
<path d="M117.651 254.223C114.967 253.029 114.201 251.18 114.022 249.765C113.187 250.793 112.683 251.69 112.814 252.332C113.29 254.719 116.471 256.313 120.611 255.837C123.509 255.499 126.821 253.519 128.939 250.317C125.31 253.381 120.88 255.658 117.651 254.223Z" fill="white" stroke="#263238" stroke-linecap="round" stroke-linejoin="round"/>
<path d="M59.1635 64.9509L58.6391 56.7403H55.7136L55.1962 64.9302C54.5207 64.9706 53.8861 65.2673 53.422 65.7597C52.9578 66.2521 52.699 66.903 52.6985 67.5797V81.379C52.6985 81.8237 52.8751 82.2501 53.1896 82.5646C53.504 82.879 53.9304 83.0556 54.3751 83.0556H59.9638C60.4085 83.0556 60.835 82.879 61.1494 82.5646C61.4638 82.2501 61.6404 81.8237 61.6404 81.379V67.5797C61.635 66.91 61.3768 66.267 60.9175 65.7796C60.4582 65.2921 59.8317 64.9961 59.1635 64.9509Z" fill="#5A3F86" stroke="#263238" stroke-linecap="round" stroke-linejoin="round"/>
<path d="M59.3705 55.1672H54.9893V57.9547H59.3705V55.1672Z" fill="#5A3F86" stroke="#263238" stroke-linecap="round" stroke-linejoin="round"/>
<path d="M12.7425 180.044C12.7425 180.044 13.7982 188.676 11.4799 193.098C9.16162 197.521 4.95283 207.629 4.74584 215.867C4.53885 224.105 4.31805 245.536 4.31805 247.868C4.31805 250.2 2.63454 253.974 4.31805 254.816C6.00157 255.658 20.7462 255.444 20.7462 255.444C20.7462 255.444 28.7429 256.285 28.3358 253.76C27.9287 251.235 15.7025 246.812 14.8607 245.343C14.019 243.873 15.1367 241.775 15.3437 240.092C15.5507 238.408 15.2816 227.866 17.5999 219.441C19.9182 211.017 24.334 205.973 24.9688 196.493C25.6035 187.013 26.2314 182.183 26.2314 182.183L12.7425 180.044Z" fill="#263238" stroke="#263238" stroke-linecap="round" stroke-linejoin="round"/>
<path d="M14.8469 245.315C14.7434 245.129 14.6399 244.922 14.5433 244.708L13.7982 246.578L13.5843 248.047C13.5843 248.047 8.43714 248.351 4.30424 248.185C4.16625 250.517 2.71732 253.981 4.30424 254.788C5.89116 255.596 20.7323 255.416 20.7323 255.416C20.7323 255.416 28.729 256.258 28.322 253.733C27.9149 251.207 15.6887 246.785 14.8469 245.315Z" fill="#263238" stroke="#263238" stroke-linecap="round" stroke-linejoin="round"/>
<path d="M25.5828 254.154C18.5382 254.154 7.41596 253.464 3.57975 253.194C3.54388 253.498 3.59405 253.806 3.72457 254.083C3.85508 254.36 4.0607 254.595 4.31801 254.761C6.00843 255.602 20.7461 255.389 20.7461 255.389C20.7461 255.389 27.7631 256.127 28.3358 254.147L25.5828 254.154Z" fill="#263238" stroke="#263238" stroke-linecap="round" stroke-linejoin="round"/>
<path d="M16.7443 180.969C16.7443 180.969 16.9513 188.758 16.9513 190.442C16.9513 192.126 11.9008 199.915 11.9008 207.498C11.9008 215.081 14.8469 238.94 15.4817 242.307C16.1165 245.674 14.426 253.257 14.426 253.257C14.426 253.257 13.7982 255.147 17.5861 255.568C21.374 255.989 39.0578 255.989 40.355 255.782C41.6521 255.575 42.6733 252.836 40.9897 251.573C39.3062 250.31 27.0938 246.936 26.2521 244.625C25.4103 242.314 27.7217 205.808 30.04 199.708C32.3583 193.609 32.9516 189.214 33.5864 183.694C34.2212 178.174 16.7443 180.969 16.7443 180.969Z" fill="white" stroke="#263238" stroke-linecap="round" stroke-linejoin="round"/>
<path d="M40.9553 251.573C39.3546 250.372 28.2944 247.281 26.466 244.991C26.3168 245.485 26.2423 245.999 26.2452 246.516V249.676C26.2452 249.676 20.4702 249.02 15.2748 248.654C14.9229 251.145 14.4537 253.257 14.4537 253.257C14.4537 253.257 13.8258 255.147 17.6138 255.568C21.4017 255.989 39.0855 255.989 40.3827 255.782C41.6798 255.575 42.6388 252.836 40.9553 251.573Z" fill="white" stroke="#263238" stroke-linecap="round" stroke-linejoin="round"/>
<path d="M40.3205 255.782C40.6542 255.677 40.9559 255.489 41.1972 255.235C41.4385 254.982 41.6116 254.671 41.7004 254.333C32.598 254.698 23.4809 254.38 14.4261 253.381C14.364 253.802 14.4261 255.223 17.6137 255.575C21.374 255.989 39.0579 255.989 40.3205 255.782Z" fill="white" stroke="#263238" stroke-linecap="round" stroke-linejoin="round"/>
<path d="M42.135 103.189C42.135 103.189 48.4413 117.388 50.0214 119.748C51.7607 122.675 52.7116 126.003 52.7812 129.408C52.7812 132.568 53.1745 136.114 51.4013 137.494C49.6486 138.71 47.5851 139.399 45.4538 139.481C44.5499 139.481 44.0738 138.791 43.4736 138.329C43.1443 138.119 42.8812 137.82 42.7146 137.466C42.5559 137.059 44.336 136.342 45.2813 135.714C47.0545 134.527 46.8613 131.174 46.8613 131.174C46.8613 131.174 44.6879 128.807 44.2946 126.448C44.066 124.878 44.066 123.284 44.2946 121.714L38.7749 115.008L42.135 103.189Z" fill="white" stroke="#263238" stroke-linecap="round" stroke-linejoin="round"/>
<path d="M45.4745 139.488C45.4745 139.488 44.0945 139.081 45.3158 138.522C46.0057 138.184 47.565 137.832 48.1239 137.315C48.9651 136.625 49.5346 135.659 49.7315 134.589C49.8143 133.465 49.8143 132.816 49.8143 132.816" stroke="#263238" stroke-linecap="round" stroke-linejoin="round"/>
<path d="M44.1705 138.605C44.1705 138.605 43.5288 137.798 44.2533 137.397C44.9777 136.997 46.7371 136.707 47.2201 136.273C47.7031 135.838 48.4276 133.699 48.5104 132.899" stroke="#263238" stroke-linecap="round" stroke-linejoin="round"/>
<path d="M42.7146 137.466C42.7146 137.466 43.5219 136.5 44.0048 136.418C44.6969 136.178 45.3683 135.883 46.0126 135.534C46.5715 135.293 47.1373 134.251 47.3926 132.568" stroke="#263238" stroke-linecap="round" stroke-linejoin="round"/>
<path d="M47.6548 123.301C47.6548 123.301 46.2749 126.855 47.4616 128.628C48.6483 130.401 49.428 131.388 49.6281 132.374C49.8282 133.361 48.8415 137.301 50.4147 137.501C51.9878 137.701 51.4013 134.934 51.6014 131.388C51.8015 127.841 52.7812 126.461 51.4013 123.108" fill="white"/>
<path d="M47.6548 123.301C47.6548 123.301 46.2749 126.855 47.4616 128.628C48.6483 130.401 49.428 131.388 49.6281 132.374C49.8282 133.361 48.8415 137.301 50.4147 137.501C51.9878 137.701 51.4013 134.934 51.6014 131.388C51.8015 127.841 52.7812 126.461 51.4013 123.108" stroke="#263238" stroke-linecap="round" stroke-linejoin="round"/>
<path d="M6.91918 116.974C6.91918 116.974 5.68414 124.405 6.56729 129.001C7.26328 132.15 8.39417 135.187 9.92743 138.025C9.92743 138.025 6.91918 168.094 6.91918 172.165C6.91918 176.236 6.73979 179.244 6.73979 179.244C6.73979 179.244 13.1082 184.55 24.0786 184.722C35.0491 184.895 43.5357 184.37 43.5357 184.37L41.7694 137.846L43.0044 121.218C43.0044 121.218 24.6099 121.749 18.9453 120.528C14.8743 119.565 10.8595 118.379 6.91918 116.974Z" fill="#5A3F86" stroke="#263238" stroke-linecap="round" stroke-linejoin="round"/>
<path d="M21.7812 122.46C21.7812 122.46 21.0912 131.126 21.4224 135.569C21.7536 140.012 21.2499 152.377 21.2499 153.612V155.378" stroke="#263238" stroke-linecap="round" stroke-linejoin="round"/>
<path d="M29.3845 124.405C29.3845 124.405 29.9158 132.188 22.3124 135.369" stroke="#263238" stroke-linecap="round" stroke-linejoin="round"/>
<path d="M12.0525 158.545C12.0525 158.545 10.8106 170.75 10.4587 172.875C10.1068 175.001 15.7645 177.65 23.0161 178.885C30.2676 180.12 35.5735 178.885 36.636 177.119C37.6986 175.352 36.1047 160.491 36.1047 160.491C36.1047 160.491 21.4222 160.842 12.0525 158.545Z" fill="#5A3F86" stroke="#263238" stroke-linecap="round" stroke-linejoin="round"/>
<path d="M11.8733 153.591C15.7709 155.167 19.8919 156.122 24.0857 156.42C28.5586 156.738 33.0463 156.798 37.5262 156.599V163.319C33.4805 163.852 29.4007 164.083 25.3207 164.009C20.521 164.004 15.7708 163.04 11.3489 161.174L11.8733 153.591Z" fill="#5A3F86" stroke="#263238" stroke-linecap="round" stroke-linejoin="round"/>
<path d="M7.27112 176.588C7.27112 176.588 14.1708 180.658 25.4931 181.714C36.8155 182.77 41.9419 181.541 41.9419 181.541" stroke="#263238" stroke-linecap="round" stroke-linejoin="round"/>
<path d="M31.6339 53.8287C31.6339 53.8287 37.8436 60.6938 40.3343 65.8755C43.0193 71.3262 44.2301 77.385 43.8463 83.4489C43.5151 90.3072 42.8458 111.558 43.1563 113.732C43.4668 115.905 43.3219 123.101 43.3219 123.101C43.3219 123.101 41.4866 123.605 30.2746 124.109C19.0627 124.612 6.34658 118.92 6.34658 118.92C6.34658 118.92 6.18099 113.228 6.68466 110.723C7.18834 108.219 7.37463 97.5035 7.37463 97.5035C7.37463 97.5035 5.19434 73.4099 5.19434 64.2058C5.19434 55.0016 15.5438 48.1433 15.5438 48.1433L31.6339 53.8287Z" fill="white" stroke="#263238" stroke-linecap="round" stroke-linejoin="round"/>
<path d="M37.6572 40.1121C37.6572 40.1121 34.3109 43.1203 33.8072 45.4662C33.3035 47.8121 32.9724 55.5052 32.9724 55.5052L16.0751 43.7758L16.5719 39.0909C16.5719 39.0909 13.398 31.3978 17.9104 28.3827C22.4228 25.3675 30.3298 25.7056 33.3035 30.5561C35.1457 33.5484 36.6081 36.7584 37.6572 40.1121Z" fill="white" stroke="#263238" stroke-linecap="round" stroke-linejoin="round"/>
<path d="M32.7792 8.00798C32.7792 8.00798 34.6904 8.59445 36.3118 11.6924C37.9332 14.7904 39.5547 19.4959 40.286 20.386C41.0174 21.276 44.2671 22.4559 44.2671 23.477C44.2671 24.4982 41.7626 27.3063 41.7626 27.3063C41.7626 27.3063 41.7626 33.516 42.7906 34.8201C43.8187 36.1241 44.1223 39.5326 41.6177 40.7124C39.1131 41.8922 37.3399 41.5956 33.2208 39.9741C29.1017 38.3527 25.5552 37.9042 25.5552 34.5234C25.5552 31.1426 23.2025 26.1265 23.0507 24.9467C22.8989 23.7668 23.7889 18.6128 26.2935 14.0452C28.7981 9.47761 31.3027 7.56641 32.7792 8.00798Z" fill="white" stroke="#263238" stroke-linecap="round" stroke-linejoin="round"/>
<path d="M41.6176 40.7124C44.1222 39.5325 43.8255 36.1448 42.7906 34.82C41.176 36.5864 41.176 38.2078 36.8982 37.6213C32.6205 37.0348 28.2254 35.7032 27.6182 34.0818C27.011 32.4604 24.2305 22.2972 24.2305 22.2972L23.3956 22.1247C23.1696 23.0479 23.0629 23.9963 23.0782 24.9466C23.23 26.1265 25.5828 31.1563 25.5828 34.5234C25.5828 37.8904 29.1223 38.3527 33.2483 39.9741C37.3743 41.5955 39.113 41.8922 41.6176 40.7124Z" fill="#263238" stroke="#263238" stroke-linecap="round" stroke-linejoin="round"/>
<path d="M33.8073 22.2972C34.1342 21.7884 34.5969 21.3811 35.1431 21.1214C35.6893 20.8617 36.2973 20.7599 36.8983 20.8276" stroke="#263238" stroke-linecap="round" stroke-linejoin="round"/>
<path d="M36.1669 16.5497C36.1669 16.5497 33.8072 14.7834 32.1858 17.7296" stroke="#263238" stroke-linecap="round" stroke-linejoin="round"/>
<path d="M40.8793 29.666C40.8793 29.666 38.8094 30.9907 36.3118 28.9277" stroke="#263238" stroke-linecap="round" stroke-linejoin="round"/>
<path d="M33.2208 8.74624C33.2208 8.74624 34.6904 8.30466 34.1039 5.06182C33.5174 1.81897 22.9058 -0.685602 12.5908 2.41235C2.27576 5.5103 -0.0770247 13.4518 0.806132 21.1173C1.68929 28.7829 11.1211 36.7313 12.5908 37.3247C12.5908 37.3247 12.4459 40.4157 11.5627 40.5675C11.115 40.6335 10.6724 40.7303 10.238 40.8573C10.238 40.8573 10.238 41.2989 13.6257 42.182C17.0134 43.0652 18.4555 41.7404 18.4555 41.7404V43.3619C18.4555 43.3619 20.3736 43.9552 22.2917 42.0371C24.2098 40.119 23.1748 34.3785 22.7333 33.1987C22.2917 32.0188 21.2567 29.5142 20.8152 28.0446C20.3736 26.575 24.7963 26.8648 25.3827 24.0635C25.9692 21.2622 25.0861 21.7107 27.0042 19.9237C28.9223 18.1367 29.9503 16.2462 29.764 13.714C29.5777 11.1818 33.2208 8.74624 33.2208 8.74624Z" fill="#263238" stroke="#263238" stroke-linecap="round" stroke-linejoin="round"/>
<path d="M5.69798 31.5772C4.28777 31.6584 2.93973 32.1851 1.84797 33.0813C0.00575453 34.5855 0.343837 38.1043 2.18605 39.774C4.02826 41.4437 5.1943 41.9543 4.86312 42.6236C4.53193 43.2928 5.69798 44.6314 7.3746 42.9548C9.05121 41.2781 10.0517 37.435 8.37505 35.5928C6.69843 33.7506 6.87092 32.2465 6.87092 32.2465L5.69798 31.5772Z" fill="#263238" stroke="#263238" stroke-linecap="round" stroke-linejoin="round"/>
<path d="M19.0833 27.3961C19.0833 27.3961 17.4136 32.2259 9.54797 32.2259" stroke="#737373" stroke-linecap="round" stroke-linejoin="round"/>
<path d="M10.3828 33.7507C10.3828 33.7507 13.7291 35.2548 18.7521 32.4121" stroke="#737373" stroke-linecap="round" stroke-linejoin="round"/>
<path d="M24.2305 27.603C24.2305 27.603 23.4922 24.8018 21.1394 24.8018C18.7867 24.8018 19.0695 29.5142 20.8428 32.6122C22.616 35.7101 25.6725 32.3155 25.6725 31.8739" fill="white"/>
<path d="M24.2305 27.603C24.2305 27.603 23.4922 24.8018 21.1394 24.8018C18.7867 24.8018 19.0695 29.5142 20.8428 32.6122C22.616 35.7101 25.6725 32.3155 25.6725 31.8739" stroke="#263238" stroke-linecap="round" stroke-linejoin="round"/>
<path d="M16.0751 41.9543C16.0751 41.9543 32.6343 52.3038 33.6416 53.1593C34.649 54.0149 32.3031 61.025 32.3031 61.025L13.7361 49.1506C13.7361 49.1506 14.7365 43.1203 16.0751 41.9543Z" fill="white" stroke="#263238" stroke-linecap="round" stroke-linejoin="round"/>
<path d="M11.3903 56.009C11.3903 56.009 8.04394 59.1828 7.37467 66.7173C6.7054 74.2517 15.4059 107.874 16.7444 108.716C17.7198 109.245 18.8086 109.531 19.9183 109.55L48.8969 86.5193C48.8969 86.5193 58.2597 83.8146 60.2123 83.0005C62.1649 82.1863 63.4551 79.2332 63.262 76.5631C63.0688 73.8929 64.0554 71.4711 62.572 71.5815C61.0886 71.6919 58.9014 71.8575 57.2385 72.1473C55.5757 72.4371 51.9465 71.7885 51.9465 71.7885C51.9465 71.7885 49.2349 72.7407 49.0486 74.7692C48.7184 76.8976 48.2575 79.0036 47.6687 81.0755L26.4453 91.6457L24.7756 63.7021" fill="white"/>
<path d="M11.3903 56.009C11.3903 56.009 8.04393 59.1828 7.37467 66.7173C6.7054 74.2517 15.4059 107.874 16.7444 108.716C17.7198 109.245 18.8086 109.531 19.9183 109.55L48.8969 86.5193C48.8969 86.5193 58.2597 83.8146 60.2123 83.0005C62.1649 82.1863 63.4551 79.2332 63.262 76.5631C63.0688 73.8929 64.0554 71.4711 62.572 71.5815C61.0886 71.6919 58.9014 71.8575 57.2385 72.1473C55.5757 72.4371 51.9465 71.7885 51.9465 71.7885C51.9465 71.7885 49.2349 72.7407 49.0486 74.7692C48.7184 76.8976 48.2575 79.0036 47.6687 81.0755L26.4453 91.6457L24.7756 63.7021" stroke="#263238" stroke-linecap="round" stroke-linejoin="round"/>
<path d="M63.248 76.5631C63.0479 73.8929 64.0415 71.4711 62.5581 71.5815C61.0746 71.6919 58.8874 71.8575 57.2246 72.1473C55.5618 72.4371 51.9326 71.7885 51.9326 71.7885C51.9326 71.7885 49.221 72.7407 49.0347 74.7692C48.7044 76.8976 48.2436 79.0036 47.6548 81.0755L26.4452 91.6457L26.0036 84.2769L11.1901 89.7483C13.4808 99.4079 16.0612 108.288 16.7098 108.716C17.6852 109.245 18.7739 109.531 19.8836 109.55L48.8622 86.5193C48.8622 86.5193 58.2251 83.8146 60.1777 83.0005C62.1303 82.1863 63.4136 79.2332 63.248 76.5631Z" fill="white" stroke="#263238" stroke-linecap="round" stroke-linejoin="round"/>
</svg>
