<svg width="164" height="57" viewBox="0 0 164 57" fill="none" xmlns="http://www.w3.org/2000/svg">
<path d="M51.132 31L44.524 22.32V31H39.736V11.344H44.524V19.968L51.076 11.344H56.704L49.088 20.976L56.984 31H51.132ZM73.9874 22.936C73.9874 23.384 73.9594 23.8507 73.9034 24.336H63.0674C63.1421 25.3067 63.4501 26.0533 63.9914 26.576C64.5514 27.08 65.2328 27.332 66.0354 27.332C67.2301 27.332 68.0608 26.828 68.5274 25.82H73.6234C73.3621 26.8467 72.8861 27.7707 72.1954 28.592C71.5234 29.4133 70.6741 30.0573 69.6474 30.524C68.6208 30.9907 67.4728 31.224 66.2034 31.224C64.6728 31.224 63.3101 30.8973 62.1154 30.244C60.9208 29.5907 59.9874 28.6573 59.3154 27.444C58.6434 26.2307 58.3074 24.812 58.3074 23.188C58.3074 21.564 58.6341 20.1453 59.2874 18.932C59.9594 17.7187 60.8928 16.7853 62.0874 16.132C63.2821 15.4787 64.6541 15.152 66.2034 15.152C67.7154 15.152 69.0594 15.4693 70.2354 16.104C71.4114 16.7387 72.3261 17.644 72.9794 18.82C73.6514 19.996 73.9874 21.368 73.9874 22.936ZM69.0874 21.676C69.0874 20.8547 68.8074 20.2013 68.2474 19.716C67.6874 19.2307 66.9874 18.988 66.1474 18.988C65.3448 18.988 64.6634 19.2213 64.1034 19.688C63.5621 20.1547 63.2261 20.8173 63.0954 21.676H69.0874ZM96.4493 15.208C98.3907 15.208 99.9307 15.796 101.069 16.972C102.227 18.148 102.805 19.7813 102.805 21.872V31H98.0453V22.516C98.0453 21.508 97.7747 20.7333 97.2333 20.192C96.7107 19.632 95.9827 19.352 95.0493 19.352C94.116 19.352 93.3787 19.632 92.8373 20.192C92.3147 20.7333 92.0533 21.508 92.0533 22.516V31H87.2933V22.516C87.2933 21.508 87.0227 20.7333 86.4813 20.192C85.9587 19.632 85.2307 19.352 84.2973 19.352C83.364 19.352 82.6267 19.632 82.0853 20.192C81.5627 20.7333 81.3013 21.508 81.3013 22.516V31H76.5133V15.376H81.3013V17.336C81.7867 16.6827 82.4213 16.1693 83.2053 15.796C83.9893 15.404 84.876 15.208 85.8653 15.208C87.0413 15.208 88.0867 15.46 89.0013 15.964C89.9347 16.468 90.6627 17.1867 91.1853 18.12C91.7267 17.2613 92.464 16.5613 93.3973 16.02C94.3307 15.4787 95.348 15.208 96.4493 15.208ZM115.674 15.208C117.503 15.208 118.959 15.8053 120.042 17C121.143 18.176 121.694 19.8 121.694 21.872V31H116.934V22.516C116.934 21.4707 116.663 20.6587 116.122 20.08C115.581 19.5013 114.853 19.212 113.938 19.212C113.023 19.212 112.295 19.5013 111.754 20.08C111.213 20.6587 110.942 21.4707 110.942 22.516V31H106.154V15.376H110.942V17.448C111.427 16.7573 112.081 16.216 112.902 15.824C113.723 15.4133 114.647 15.208 115.674 15.208ZM140.449 15.376V31H135.661V28.872C135.176 29.5627 134.513 30.1227 133.673 30.552C132.852 30.9627 131.937 31.168 130.929 31.168C129.734 31.168 128.68 30.9067 127.765 30.384C126.85 29.8427 126.141 29.068 125.637 28.06C125.133 27.052 124.881 25.8667 124.881 24.504V15.376H129.641V23.86C129.641 24.9053 129.912 25.7173 130.453 26.296C130.994 26.8747 131.722 27.164 132.637 27.164C133.57 27.164 134.308 26.8747 134.849 26.296C135.39 25.7173 135.661 24.9053 135.661 23.86V15.376H140.449Z" fill="#4B1C7C"/>
<path d="M49.436 43.636L47.012 52H45.788L43.844 45.268L41.828 52L40.616 52.012L38.276 43.636H39.44L41.264 50.728L43.28 43.636H44.504L46.424 50.704L48.26 43.636H49.436ZM56.631 48.46C56.631 48.668 56.619 48.888 56.595 49.12H51.339C51.379 49.768 51.599 50.276 51.999 50.644C52.407 51.004 52.899 51.184 53.475 51.184C53.947 51.184 54.339 51.076 54.651 50.86C54.971 50.636 55.195 50.34 55.323 49.972H56.499C56.323 50.604 55.971 51.12 55.443 51.52C54.915 51.912 54.259 52.108 53.475 52.108C52.851 52.108 52.291 51.968 51.795 51.688C51.307 51.408 50.923 51.012 50.643 50.5C50.363 49.98 50.223 49.38 50.223 48.7C50.223 48.02 50.359 47.424 50.631 46.912C50.903 46.4 51.283 46.008 51.771 45.736C52.267 45.456 52.835 45.316 53.475 45.316C54.099 45.316 54.651 45.452 55.131 45.724C55.611 45.996 55.979 46.372 56.235 46.852C56.499 47.324 56.631 47.86 56.631 48.46ZM55.503 48.232C55.503 47.816 55.411 47.46 55.227 47.164C55.043 46.86 54.791 46.632 54.471 46.48C54.159 46.32 53.811 46.24 53.427 46.24C52.875 46.24 52.403 46.416 52.011 46.768C51.627 47.12 51.407 47.608 51.351 48.232H55.503ZM59.1644 43.12V52H58.0724V43.12H59.1644ZM60.6176 48.7C60.6176 48.02 60.7536 47.428 61.0256 46.924C61.2976 46.412 61.6736 46.016 62.1536 45.736C62.6416 45.456 63.1976 45.316 63.8216 45.316C64.6296 45.316 65.2936 45.512 65.8136 45.904C66.3416 46.296 66.6896 46.84 66.8576 47.536H65.6816C65.5696 47.136 65.3496 46.82 65.0216 46.588C64.7016 46.356 64.3016 46.24 63.8216 46.24C63.1976 46.24 62.6936 46.456 62.3096 46.888C61.9256 47.312 61.7336 47.916 61.7336 48.7C61.7336 49.492 61.9256 50.104 62.3096 50.536C62.6936 50.968 63.1976 51.184 63.8216 51.184C64.3016 51.184 64.7016 51.072 65.0216 50.848C65.3416 50.624 65.5616 50.304 65.6816 49.888H66.8576C66.6816 50.56 66.3296 51.1 65.8016 51.508C65.2736 51.908 64.6136 52.108 63.8216 52.108C63.1976 52.108 62.6416 51.968 62.1536 51.688C61.6736 51.408 61.2976 51.012 61.0256 50.5C60.7536 49.988 60.6176 49.388 60.6176 48.7ZM71.1826 52.108C70.5666 52.108 70.0066 51.968 69.5026 51.688C69.0066 51.408 68.6146 51.012 68.3266 50.5C68.0466 49.98 67.9066 49.38 67.9066 48.7C67.9066 48.028 68.0506 47.436 68.3386 46.924C68.6346 46.404 69.0346 46.008 69.5386 45.736C70.0426 45.456 70.6066 45.316 71.2306 45.316C71.8546 45.316 72.4186 45.456 72.9226 45.736C73.4266 46.008 73.8226 46.4 74.1106 46.912C74.4066 47.424 74.5546 48.02 74.5546 48.7C74.5546 49.38 74.4026 49.98 74.0986 50.5C73.8026 51.012 73.3986 51.408 72.8866 51.688C72.3746 51.968 71.8066 52.108 71.1826 52.108ZM71.1826 51.148C71.5746 51.148 71.9426 51.056 72.2866 50.872C72.6306 50.688 72.9066 50.412 73.1146 50.044C73.3306 49.676 73.4386 49.228 73.4386 48.7C73.4386 48.172 73.3346 47.724 73.1266 47.356C72.9186 46.988 72.6466 46.716 72.3106 46.54C71.9746 46.356 71.6106 46.264 71.2186 46.264C70.8186 46.264 70.4506 46.356 70.1146 46.54C69.7866 46.716 69.5226 46.988 69.3226 47.356C69.1226 47.724 69.0226 48.172 69.0226 48.7C69.0226 49.236 69.1186 49.688 69.3106 50.056C69.5106 50.424 69.7746 50.7 70.1026 50.884C70.4306 51.06 70.7906 51.148 71.1826 51.148ZM83.8984 45.304C84.4104 45.304 84.8664 45.412 85.2664 45.628C85.6664 45.836 85.9824 46.152 86.2144 46.576C86.4464 47 86.5624 47.516 86.5624 48.124V52H85.4824V48.28C85.4824 47.624 85.3184 47.124 84.9904 46.78C84.6704 46.428 84.2344 46.252 83.6824 46.252C83.1144 46.252 82.6624 46.436 82.3264 46.804C81.9904 47.164 81.8224 47.688 81.8224 48.376V52H80.7424V48.28C80.7424 47.624 80.5784 47.124 80.2504 46.78C79.9304 46.428 79.4944 46.252 78.9424 46.252C78.3744 46.252 77.9224 46.436 77.5864 46.804C77.2504 47.164 77.0824 47.688 77.0824 48.376V52H75.9904V45.424H77.0824V46.372C77.2984 46.028 77.5864 45.764 77.9464 45.58C78.3144 45.396 78.7184 45.304 79.1584 45.304C79.7104 45.304 80.1984 45.428 80.6224 45.676C81.0464 45.924 81.3624 46.288 81.5704 46.768C81.7544 46.304 82.0584 45.944 82.4824 45.688C82.9064 45.432 83.3784 45.304 83.8984 45.304ZM94.3537 48.46C94.3537 48.668 94.3417 48.888 94.3177 49.12H89.0617C89.1017 49.768 89.3217 50.276 89.7217 50.644C90.1297 51.004 90.6217 51.184 91.1977 51.184C91.6697 51.184 92.0617 51.076 92.3737 50.86C92.6937 50.636 92.9177 50.34 93.0457 49.972H94.2217C94.0457 50.604 93.6937 51.12 93.1657 51.52C92.6377 51.912 91.9817 52.108 91.1977 52.108C90.5737 52.108 90.0137 51.968 89.5177 51.688C89.0297 51.408 88.6457 51.012 88.3657 50.5C88.0857 49.98 87.9457 49.38 87.9457 48.7C87.9457 48.02 88.0817 47.424 88.3537 46.912C88.6257 46.4 89.0057 46.008 89.4937 45.736C89.9897 45.456 90.5577 45.316 91.1977 45.316C91.8217 45.316 92.3737 45.452 92.8537 45.724C93.3337 45.996 93.7017 46.372 93.9577 46.852C94.2217 47.324 94.3537 47.86 94.3537 48.46ZM93.2257 48.232C93.2257 47.816 93.1337 47.46 92.9497 47.164C92.7657 46.86 92.5137 46.632 92.1937 46.48C91.8817 46.32 91.5337 46.24 91.1497 46.24C90.5977 46.24 90.1257 46.416 89.7337 46.768C89.3497 47.12 89.1297 47.608 89.0737 48.232H93.2257ZM103.182 47.692C103.486 47.74 103.762 47.864 104.01 48.064C104.266 48.264 104.466 48.512 104.61 48.808C104.762 49.104 104.838 49.42 104.838 49.756C104.838 50.18 104.73 50.564 104.514 50.908C104.298 51.244 103.982 51.512 103.566 51.712C103.158 51.904 102.674 52 102.114 52H98.9943V43.636H101.994C102.562 43.636 103.046 43.732 103.446 43.924C103.846 44.108 104.146 44.36 104.346 44.68C104.546 45 104.646 45.36 104.646 45.76C104.646 46.256 104.51 46.668 104.238 46.996C103.974 47.316 103.622 47.548 103.182 47.692ZM100.086 47.248H101.922C102.434 47.248 102.83 47.128 103.11 46.888C103.39 46.648 103.53 46.316 103.53 45.892C103.53 45.468 103.39 45.136 103.11 44.896C102.83 44.656 102.426 44.536 101.898 44.536H100.086V47.248ZM102.018 51.1C102.562 51.1 102.986 50.972 103.29 50.716C103.594 50.46 103.746 50.104 103.746 49.648C103.746 49.184 103.586 48.82 103.266 48.556C102.946 48.284 102.518 48.148 101.982 48.148H100.086V51.1H102.018ZM105.946 48.688C105.946 48.016 106.082 47.428 106.354 46.924C106.626 46.412 106.998 46.016 107.47 45.736C107.95 45.456 108.482 45.316 109.066 45.316C109.642 45.316 110.142 45.44 110.566 45.688C110.99 45.936 111.306 46.248 111.514 46.624V45.424H112.618V52H111.514V50.776C111.298 51.16 110.974 51.48 110.542 51.736C110.118 51.984 109.622 52.108 109.054 52.108C108.47 52.108 107.942 51.964 107.47 51.676C106.998 51.388 106.626 50.984 106.354 50.464C106.082 49.944 105.946 49.352 105.946 48.688ZM111.514 48.7C111.514 48.204 111.414 47.772 111.214 47.404C111.014 47.036 110.742 46.756 110.398 46.564C110.062 46.364 109.69 46.264 109.282 46.264C108.874 46.264 108.502 46.36 108.166 46.552C107.83 46.744 107.562 47.024 107.362 47.392C107.162 47.76 107.062 48.192 107.062 48.688C107.062 49.192 107.162 49.632 107.362 50.008C107.562 50.376 107.83 50.66 108.166 50.86C108.502 51.052 108.874 51.148 109.282 51.148C109.69 51.148 110.062 51.052 110.398 50.86C110.742 50.66 111.014 50.376 111.214 50.008C111.414 49.632 111.514 49.196 111.514 48.7ZM114.055 48.7C114.055 48.02 114.191 47.428 114.463 46.924C114.735 46.412 115.111 46.016 115.591 45.736C116.079 45.456 116.635 45.316 117.259 45.316C118.067 45.316 118.731 45.512 119.251 45.904C119.779 46.296 120.127 46.84 120.295 47.536H119.119C119.007 47.136 118.787 46.82 118.459 46.588C118.139 46.356 117.739 46.24 117.259 46.24C116.635 46.24 116.131 46.456 115.747 46.888C115.363 47.312 115.171 47.916 115.171 48.7C115.171 49.492 115.363 50.104 115.747 50.536C116.131 50.968 116.635 51.184 117.259 51.184C117.739 51.184 118.139 51.072 118.459 50.848C118.779 50.624 118.999 50.304 119.119 49.888H120.295C120.119 50.56 119.767 51.1 119.239 51.508C118.711 51.908 118.051 52.108 117.259 52.108C116.635 52.108 116.079 51.968 115.591 51.688C115.111 51.408 114.735 51.012 114.463 50.5C114.191 49.988 114.055 49.388 114.055 48.7ZM125.424 52L122.844 49.096V52H121.752V43.12H122.844V48.34L125.376 45.424H126.9L123.804 48.7L126.912 52H125.424ZM129.056 50.488L127.712 53.716H126.98L127.856 50.488H129.056ZM138.426 47.68C138.914 47.784 139.306 48.028 139.602 48.412C139.898 48.788 140.046 49.22 140.046 49.708C140.046 50.412 139.798 50.972 139.302 51.388C138.814 51.796 138.13 52 137.25 52H133.326V43.576H137.118C137.974 43.576 138.642 43.772 139.122 44.164C139.61 44.556 139.854 45.088 139.854 45.76C139.854 46.256 139.722 46.668 139.458 46.996C139.202 47.324 138.858 47.552 138.426 47.68ZM135.378 46.984H136.722C137.058 46.984 137.314 46.912 137.49 46.768C137.674 46.616 137.766 46.396 137.766 46.108C137.766 45.82 137.674 45.6 137.49 45.448C137.314 45.296 137.058 45.22 136.722 45.22H135.378V46.984ZM136.89 50.344C137.234 50.344 137.498 50.268 137.682 50.116C137.874 49.956 137.97 49.728 137.97 49.432C137.97 49.136 137.87 48.904 137.67 48.736C137.478 48.568 137.21 48.484 136.866 48.484H135.378V50.344H136.89ZM142.268 44.608C141.908 44.608 141.612 44.504 141.38 44.296C141.156 44.08 141.044 43.816 141.044 43.504C141.044 43.184 141.156 42.92 141.38 42.712C141.612 42.496 141.908 42.388 142.268 42.388C142.62 42.388 142.908 42.496 143.132 42.712C143.364 42.92 143.48 43.184 143.48 43.504C143.48 43.816 143.364 44.08 143.132 44.296C142.908 44.504 142.62 44.608 142.268 44.608ZM143.288 45.304V52H141.236V45.304H143.288ZM145.795 44.608C145.435 44.608 145.139 44.504 144.907 44.296C144.683 44.08 144.571 43.816 144.571 43.504C144.571 43.184 144.683 42.92 144.907 42.712C145.139 42.496 145.435 42.388 145.795 42.388C146.147 42.388 146.435 42.496 146.659 42.712C146.891 42.92 147.007 43.184 147.007 43.504C147.007 43.816 146.891 44.08 146.659 44.296C146.435 44.504 146.147 44.608 145.795 44.608ZM146.827 52.864C146.827 53.688 146.619 54.28 146.203 54.64C145.787 55.008 145.207 55.192 144.463 55.192H143.659V53.452H144.151C144.375 53.452 144.535 53.408 144.631 53.32C144.727 53.232 144.775 53.088 144.775 52.888V45.304H146.827V52.864ZM147.895 48.64C147.895 47.952 148.023 47.348 148.279 46.828C148.543 46.308 148.899 45.908 149.347 45.628C149.795 45.348 150.295 45.208 150.847 45.208C151.319 45.208 151.731 45.304 152.083 45.496C152.443 45.688 152.719 45.94 152.911 46.252V45.304H154.963V52H152.911V51.052C152.711 51.364 152.431 51.616 152.071 51.808C151.719 52 151.307 52.096 150.835 52.096C150.291 52.096 149.795 51.956 149.347 51.676C148.899 51.388 148.543 50.984 148.279 50.464C148.023 49.936 147.895 49.328 147.895 48.64ZM152.911 48.652C152.911 48.14 152.767 47.736 152.479 47.44C152.199 47.144 151.855 46.996 151.447 46.996C151.039 46.996 150.691 47.144 150.403 47.44C150.123 47.728 149.983 48.128 149.983 48.64C149.983 49.152 150.123 49.56 150.403 49.864C150.691 50.16 151.039 50.308 151.447 50.308C151.855 50.308 152.199 50.16 152.479 49.864C152.767 49.568 152.911 49.164 152.911 48.652ZM163.287 45.304L159.087 55.18H156.879L158.415 51.772L155.691 45.304H157.983L159.531 49.492L161.067 45.304H163.287Z" fill="#494949"/>
<path fill-rule="evenodd" clip-rule="evenodd" d="M11.9412 12.0228C11.9412 12.0366 11.8385 12.0456 11.6806 12.0456C11.5226 12.0456 11.4199 12.0545 11.4199 12.0683C11.4199 12.0819 11.3331 12.0911 11.2067 12.0911C11.0803 12.0911 10.9935 12.1004 10.9935 12.1139C10.9935 12.1269 10.9224 12.1367 10.8276 12.1367C10.7328 12.1367 10.6618 12.1465 10.6618 12.1595C10.6618 12.1722 10.5986 12.1823 10.5196 12.1823C10.4406 12.1823 10.3775 12.1924 10.3775 12.205C10.3775 12.2177 10.3143 12.2278 10.2353 12.2278C10.1563 12.2278 10.0931 12.2379 10.0931 12.2506C10.0931 12.2631 10.0398 12.2734 9.97467 12.2734C9.90952 12.2734 9.85621 12.2837 9.85621 12.2962C9.85621 12.3087 9.81356 12.319 9.76144 12.319C9.70931 12.319 9.66667 12.3292 9.66667 12.3417C9.66667 12.3543 9.61336 12.3645 9.5482 12.3645C9.48305 12.3645 9.42974 12.3748 9.42974 12.3873C9.42974 12.3998 9.38709 12.4101 9.33497 12.4101C9.28284 12.4101 9.2402 12.4204 9.2402 12.4329C9.2402 12.4454 9.19755 12.4557 9.14542 12.4557C9.0933 12.4557 9.05065 12.4659 9.05065 12.4784C9.05065 12.491 9.00801 12.5012 8.95588 12.5012C8.90376 12.5012 8.86111 12.5115 8.86111 12.524C8.86111 12.5365 8.82913 12.5468 8.79003 12.5468C8.75094 12.5468 8.71895 12.5571 8.71895 12.5696C8.71895 12.5821 8.67631 12.5924 8.62418 12.5924C8.57206 12.5924 8.52941 12.6026 8.52941 12.6151C8.52941 12.6277 8.49743 12.6379 8.45833 12.6379C8.41924 12.6379 8.38726 12.6482 8.38726 12.6607C8.38726 12.6732 8.35527 12.6835 8.31618 12.6835C8.27708 12.6835 8.2451 12.6937 8.2451 12.7063C8.2451 12.7188 8.21311 12.7291 8.17402 12.7291C8.13493 12.7291 8.10294 12.7393 8.10294 12.7518C8.10294 12.7644 8.07096 12.7746 8.03186 12.7746C7.99277 12.7746 7.96078 12.7849 7.96078 12.7974C7.96078 12.8099 7.9288 12.8202 7.88971 12.8202C7.85061 12.8202 7.81863 12.8304 7.81863 12.843C7.81863 12.8555 7.78664 12.8658 7.74755 12.8658C7.70846 12.8658 7.67647 12.876 7.67647 12.8885C7.67647 12.9011 7.65515 12.9113 7.62909 12.9113C7.60302 12.9113 7.5817 12.9216 7.5817 12.9341C7.5817 12.9466 7.54971 12.9569 7.51062 12.9569C7.47153 12.9569 7.43954 12.9671 7.43954 12.9797C7.43954 12.9922 7.40756 13.0025 7.36846 13.0025C7.32937 13.0025 7.29739 13.0127 7.29739 13.0252C7.29739 13.0378 7.27606 13.048 7.25 13.048C7.22394 13.048 7.20261 13.0583 7.20261 13.0708C7.20261 13.0833 7.18129 13.0936 7.15523 13.0936C7.12917 13.0936 7.10784 13.1038 7.10784 13.1164C7.10784 13.1289 7.07586 13.1392 7.03677 13.1392C6.99767 13.1392 6.96569 13.1494 6.96569 13.1619C6.96569 13.1745 6.94436 13.1847 6.9183 13.1847C6.89224 13.1847 6.87092 13.195 6.87092 13.2075C6.87092 13.22 6.83893 13.2303 6.79984 13.2303C6.76074 13.2303 6.72876 13.2405 6.72876 13.2531C6.72876 13.2656 6.70744 13.2759 6.68137 13.2759C6.65531 13.2759 6.63399 13.2861 6.63399 13.2986C6.63399 13.3112 6.61266 13.3214 6.5866 13.3214C6.56054 13.3214 6.53922 13.3317 6.53922 13.3442C6.53922 13.3567 6.50723 13.367 6.46814 13.367C6.42904 13.367 6.39706 13.3772 6.39706 13.3898C6.39706 13.4023 6.37574 13.4126 6.34967 13.4126C6.32361 13.4126 6.30229 13.4228 6.30229 13.4353C6.30229 13.4479 6.28096 13.4581 6.2549 13.4581C6.22884 13.4581 6.20752 13.4684 6.20752 13.4809C6.20752 13.4934 6.18619 13.5037 6.16013 13.5037C6.13407 13.5037 6.11275 13.5139 6.11275 13.5265C6.11275 13.539 6.09142 13.5493 6.06536 13.5493C6.0393 13.5493 6.01797 13.5595 6.01797 13.572C6.01797 13.5846 5.99665 13.5948 5.97059 13.5948C5.94453 13.5948 5.9232 13.6051 5.9232 13.6176C5.9232 13.6301 5.90188 13.6404 5.87582 13.6404C5.84975 13.6404 5.82843 13.6506 5.82843 13.6632C5.82843 13.6757 5.80711 13.686 5.78105 13.686C5.75498 13.686 5.73366 13.6962 5.73366 13.7087C5.73366 13.7213 5.71234 13.7315 5.68628 13.7315C5.66021 13.7315 5.63889 13.7418 5.63889 13.7543C5.63889 13.7668 5.61757 13.7771 5.5915 13.7771C5.56544 13.7771 5.54412 13.7873 5.54412 13.7999C5.54412 13.8124 5.52513 13.8227 5.50196 13.8227C5.47877 13.8227 5.44444 13.8432 5.42565 13.8682C5.40687 13.8933 5.37254 13.9138 5.34935 13.9138C5.32617 13.9138 5.30719 13.924 5.30719 13.9366C5.30719 13.9491 5.28587 13.9594 5.2598 13.9594C5.23374 13.9594 5.21242 13.9696 5.21242 13.9821C5.21242 13.9947 5.19109 14.0049 5.16503 14.0049C5.13897 14.0049 5.11765 14.0152 5.11765 14.0277C5.11765 14.0402 5.09866 14.0505 5.07549 14.0505C5.0523 14.0505 5.01797 14.071 4.99918 14.0961C4.98039 14.1211 4.94841 14.1416 4.9281 14.1416C4.9078 14.1416 4.87581 14.1621 4.85703 14.1872C4.83824 14.2123 4.80391 14.2328 4.78072 14.2328C4.75755 14.2328 4.73856 14.243 4.73856 14.2555C4.73856 14.2681 4.71958 14.2783 4.69641 14.2783C4.67321 14.2783 4.63889 14.2988 4.6201 14.3239C4.60131 14.349 4.56932 14.3695 4.54902 14.3695C4.52871 14.3695 4.49673 14.39 4.47794 14.415C4.45915 14.4401 4.42717 14.4606 4.40686 14.4606C4.38656 14.4606 4.35457 14.4811 4.33578 14.5062C4.317 14.5312 4.28501 14.5517 4.26471 14.5517C4.2444 14.5517 4.21242 14.5722 4.19363 14.5973C4.17484 14.6224 4.14478 14.6429 4.12682 14.6429C4.10888 14.6429 4.06429 14.6736 4.02778 14.7112C3.99127 14.7488 3.94667 14.7796 3.92874 14.7796C3.91078 14.7796 3.88072 14.8001 3.86193 14.8251C3.84314 14.8502 3.81308 14.8707 3.79512 14.8707C3.77718 14.8707 3.73259 14.9014 3.69608 14.939C3.65957 14.9766 3.61692 15.0074 3.60131 15.0074C3.58569 15.0074 3.54305 15.0381 3.50654 15.0757C3.47003 15.1133 3.42738 15.1441 3.41176 15.1441C3.39615 15.1441 3.3535 15.1748 3.31699 15.2124C3.28048 15.25 3.23805 15.2808 3.2227 15.2808C3.20737 15.2808 3.15384 15.3218 3.10376 15.3719C3.05367 15.422 3.00062 15.4631 2.98584 15.4631C2.97105 15.4631 2.89619 15.5246 2.81944 15.5998C2.7427 15.6749 2.66838 15.7365 2.65425 15.7365C2.64016 15.7365 2.49059 15.8697 2.3219 16.0326C2.1532 16.1955 2.00394 16.3288 1.99022 16.3288C1.95674 16.3288 1.75327 16.5259 1.75327 16.5583C1.75327 16.5724 1.71981 16.614 1.67894 16.6507C1.63805 16.6874 1.61076 16.7234 1.61824 16.7306C1.62575 16.7378 1.7174 16.6606 1.82188 16.559C1.92637 16.4575 2.02382 16.3744 2.03844 16.3744C2.05303 16.3744 2.10596 16.3334 2.15605 16.2832C2.20613 16.2331 2.25944 16.1921 2.27451 16.1921C2.28958 16.1921 2.34289 16.1511 2.39297 16.101C2.44306 16.0509 2.49658 16.0099 2.51191 16.0099C2.52727 16.0099 2.5697 15.9791 2.60621 15.9415C2.64272 15.9039 2.68731 15.8732 2.70525 15.8732C2.72321 15.8732 2.75327 15.8526 2.77206 15.8276C2.79085 15.8025 2.82091 15.782 2.83887 15.782C2.8568 15.782 2.9014 15.7513 2.93791 15.7137C2.97442 15.6761 3.01901 15.6453 3.03695 15.6453C3.05491 15.6453 3.08497 15.6248 3.10376 15.5998C3.12255 15.5747 3.15453 15.5542 3.17484 15.5542C3.19514 15.5542 3.22713 15.5337 3.24592 15.5086C3.2647 15.4836 3.29669 15.4631 3.31699 15.4631C3.3373 15.4631 3.36928 15.4425 3.38807 15.4175C3.40686 15.3924 3.43885 15.3719 3.45915 15.3719C3.47945 15.3719 3.51144 15.3514 3.53023 15.3264C3.54902 15.3013 3.58334 15.2808 3.60654 15.2808C3.62971 15.2808 3.64869 15.2705 3.64869 15.258C3.64869 15.2455 3.66768 15.2352 3.69085 15.2352C3.71404 15.2352 3.74837 15.2147 3.76716 15.1897C3.78595 15.1646 3.82027 15.1441 3.84346 15.1441C3.86664 15.1441 3.88562 15.1338 3.88562 15.1213C3.88562 15.1088 3.90461 15.0985 3.92778 15.0985C3.95097 15.0985 3.9853 15.078 4.00409 15.053C4.02287 15.0279 4.0572 15.0074 4.08039 15.0074C4.10356 15.0074 4.12255 14.9971 4.12255 14.9846C4.12255 14.9721 4.14387 14.9618 4.16993 14.9618C4.196 14.9618 4.21732 14.9516 4.21732 14.939C4.21732 14.9265 4.23864 14.9163 4.26471 14.9163C4.29077 14.9163 4.31209 14.906 4.31209 14.8935C4.31209 14.8809 4.33342 14.8707 4.35948 14.8707C4.38554 14.8707 4.40686 14.8604 4.40686 14.8479C4.40686 14.8354 4.42819 14.8251 4.45425 14.8251C4.48031 14.8251 4.50163 14.8149 4.50163 14.8023C4.50163 14.7898 4.52296 14.7796 4.54902 14.7796C4.57508 14.7796 4.59641 14.7693 4.59641 14.7568C4.59641 14.7442 4.61773 14.734 4.64379 14.734C4.66985 14.734 4.69118 14.7237 4.69118 14.7112C4.69118 14.6987 4.7125 14.6884 4.73856 14.6884C4.76462 14.6884 4.78595 14.6782 4.78595 14.6656C4.78595 14.6531 4.80727 14.6429 4.83333 14.6429C4.8594 14.6429 4.88072 14.6326 4.88072 14.6201C4.88072 14.6075 4.9127 14.5973 4.9518 14.5973C4.99089 14.5973 5.02288 14.587 5.02288 14.5745C5.02288 14.562 5.0442 14.5517 5.07026 14.5517C5.09632 14.5517 5.11765 14.5415 5.11765 14.5289C5.11765 14.5164 5.13897 14.5062 5.16503 14.5062C5.19109 14.5062 5.21242 14.4959 5.21242 14.4834C5.21242 14.4708 5.2444 14.4606 5.2835 14.4606C5.32259 14.4606 5.35458 14.4503 5.35458 14.4378C5.35458 14.4253 5.3759 14.415 5.40196 14.415C5.42802 14.415 5.44935 14.4048 5.44935 14.3922C5.44935 14.3797 5.48133 14.3695 5.52042 14.3695C5.55952 14.3695 5.5915 14.3592 5.5915 14.3467C5.5915 14.3341 5.61283 14.3239 5.63889 14.3239C5.66495 14.3239 5.68628 14.3136 5.68628 14.3011C5.68628 14.2886 5.71826 14.2783 5.75735 14.2783C5.79645 14.2783 5.82843 14.2681 5.82843 14.2555C5.82843 14.243 5.86042 14.2328 5.89951 14.2328C5.9386 14.2328 5.97059 14.2225 5.97059 14.21C5.97059 14.1974 6.00257 14.1872 6.04167 14.1872C6.08076 14.1872 6.11275 14.1769 6.11275 14.1644C6.11275 14.1519 6.14473 14.1416 6.18382 14.1416C6.22292 14.1416 6.2549 14.1314 6.2549 14.1188C6.2549 14.1063 6.28689 14.0961 6.32598 14.0961C6.36507 14.0961 6.39706 14.0858 6.39706 14.0733C6.39706 14.0607 6.42904 14.0505 6.46814 14.0505C6.50723 14.0505 6.53922 14.0402 6.53922 14.0277C6.53922 14.0152 6.5712 14.0049 6.61029 14.0049C6.64939 14.0049 6.68137 13.9947 6.68137 13.9821C6.68137 13.9696 6.72402 13.9594 6.77614 13.9594C6.82827 13.9594 6.87092 13.9491 6.87092 13.9366C6.87092 13.924 6.91356 13.9138 6.96569 13.9138C7.01781 13.9138 7.06046 13.9035 7.06046 13.891C7.06046 13.8785 7.1031 13.8682 7.15523 13.8682C7.20735 13.8682 7.25 13.858 7.25 13.8454C7.25 13.8329 7.29265 13.8227 7.34477 13.8227C7.3969 13.8227 7.43954 13.8124 7.43954 13.7999C7.43954 13.7873 7.49285 13.7771 7.55801 13.7771C7.62316 13.7771 7.67647 13.7668 7.67647 13.7543C7.67647 13.7416 7.73966 13.7315 7.81863 13.7315C7.8976 13.7315 7.96078 13.7214 7.96078 13.7087C7.96078 13.6962 8.01409 13.686 8.07925 13.686C8.1444 13.686 8.19771 13.6757 8.19771 13.6632C8.19771 13.6499 8.27668 13.6404 8.38726 13.6404C8.49783 13.6404 8.5768 13.6309 8.5768 13.6176C8.5768 13.6039 8.67157 13.5948 8.81373 13.5948C8.95588 13.5948 9.05065 13.5857 9.05065 13.572C9.05065 13.5572 9.39816 13.5493 10.0458 13.5493C10.6933 13.5493 11.0408 13.5572 11.0408 13.572C11.0408 13.5857 11.1356 13.5948 11.2778 13.5948C11.4199 13.5948 11.5147 13.6039 11.5147 13.6176C11.5147 13.6309 11.5937 13.6404 11.7042 13.6404C11.8148 13.6404 11.8938 13.6499 11.8938 13.6632C11.8938 13.6758 11.957 13.686 12.0359 13.686C12.1149 13.686 12.1781 13.6961 12.1781 13.7087C12.1781 13.7213 12.2314 13.7315 12.2966 13.7315C12.3617 13.7315 12.415 13.7418 12.415 13.7543C12.415 13.7668 12.4683 13.7771 12.5335 13.7771C12.5987 13.7771 12.652 13.7873 12.652 13.7999C12.652 13.8124 12.7053 13.8227 12.7704 13.8227C12.8356 13.8227 12.8889 13.8329 12.8889 13.8454C12.8889 13.858 12.9315 13.8682 12.9837 13.8682C13.0358 13.8682 13.0784 13.8785 13.0784 13.891C13.0784 13.9035 13.1104 13.9138 13.1495 13.9138C13.1886 13.9138 13.2206 13.924 13.2206 13.9366C13.2206 13.9491 13.2632 13.9594 13.3154 13.9594C13.3675 13.9594 13.4101 13.9696 13.4101 13.9821C13.4101 13.9947 13.4421 14.0049 13.4812 14.0049C13.5203 14.0049 13.5523 14.0152 13.5523 14.0277C13.5523 14.0402 13.5843 14.0505 13.6234 14.0505C13.6625 14.0505 13.6944 14.0607 13.6944 14.0733C13.6944 14.0858 13.7264 14.0961 13.7655 14.0961C13.8046 14.0961 13.8366 14.1063 13.8366 14.1188C13.8366 14.1314 13.8792 14.1416 13.9314 14.1416C13.9835 14.1416 14.0261 14.1519 14.0261 14.1644C14.0261 14.1769 14.0475 14.1872 14.0735 14.1872C14.0996 14.1872 14.1209 14.1974 14.1209 14.21C14.1209 14.2225 14.1529 14.2328 14.192 14.2328C14.2311 14.2328 14.2631 14.243 14.2631 14.2555C14.2631 14.2681 14.2951 14.2783 14.3342 14.2783C14.3732 14.2783 14.4052 14.2886 14.4052 14.3011C14.4052 14.3136 14.4266 14.3239 14.4526 14.3239C14.4787 14.3239 14.5 14.3341 14.5 14.3467C14.5 14.3592 14.532 14.3695 14.5711 14.3695C14.6102 14.3695 14.6422 14.3797 14.6422 14.3922C14.6422 14.4048 14.6635 14.415 14.6895 14.415C14.7156 14.415 14.7369 14.4253 14.7369 14.4378C14.7369 14.4503 14.7689 14.4606 14.808 14.4606C14.8471 14.4606 14.8791 14.4708 14.8791 14.4834C14.8791 14.4959 14.9004 14.5062 14.9265 14.5062C14.9525 14.5062 14.9739 14.5164 14.9739 14.5289C14.9739 14.5415 14.9952 14.5517 15.0212 14.5517C15.0473 14.5517 15.0686 14.562 15.0686 14.5745C15.0686 14.587 15.1006 14.5973 15.1397 14.5973C15.1788 14.5973 15.2108 14.6075 15.2108 14.6201C15.2108 14.6326 15.2321 14.6429 15.2582 14.6429C15.2842 14.6429 15.3056 14.6531 15.3056 14.6656C15.3056 14.6782 15.3269 14.6884 15.3529 14.6884C15.379 14.6884 15.4003 14.6987 15.4003 14.7112C15.4003 14.7237 15.4216 14.734 15.4477 14.734C15.4738 14.734 15.4951 14.7442 15.4951 14.7568C15.4951 14.7693 15.5164 14.7796 15.5425 14.7796C15.5685 14.7796 15.5899 14.7898 15.5899 14.8023C15.5899 14.8149 15.6112 14.8251 15.6373 14.8251C15.6633 14.8251 15.6846 14.8354 15.6846 14.8479C15.6846 14.8604 15.706 14.8707 15.732 14.8707C15.7581 14.8707 15.7794 14.8809 15.7794 14.8935C15.7794 14.906 15.8007 14.9163 15.8268 14.9163C15.8529 14.9163 15.8742 14.9265 15.8742 14.939C15.8742 14.9516 15.8932 14.9618 15.9163 14.9618C15.9395 14.9618 15.9739 14.9823 15.9926 15.0074C16.0114 15.0324 16.0458 15.053 16.069 15.053C16.0921 15.053 16.1111 15.0632 16.1111 15.0757C16.1111 15.0883 16.1324 15.0985 16.1585 15.0985C16.1846 15.0985 16.2059 15.1088 16.2059 15.1213C16.2059 15.1338 16.2249 15.1441 16.248 15.1441C16.2712 15.1441 16.3056 15.1646 16.3243 15.1897C16.3431 15.2147 16.3775 15.2352 16.4007 15.2352C16.4238 15.2352 16.4428 15.2455 16.4428 15.258C16.4428 15.2705 16.4618 15.2808 16.485 15.2808C16.5082 15.2808 16.5425 15.3013 16.5613 15.3264C16.5801 15.3514 16.612 15.3719 16.6324 15.3719C16.6527 15.3719 16.6846 15.3924 16.7034 15.4175C16.7222 15.4425 16.7542 15.4631 16.7745 15.4631C16.7948 15.4631 16.8268 15.4836 16.8456 15.5086C16.8644 15.5337 16.8964 15.5542 16.9167 15.5542C16.937 15.5542 16.969 15.5747 16.9877 15.5998C17.0065 15.6248 17.0385 15.6453 17.0588 15.6453C17.0791 15.6453 17.1111 15.6658 17.1299 15.6909C17.1487 15.7159 17.1788 15.7365 17.1967 15.7365C17.2146 15.7365 17.2592 15.7672 17.2958 15.8048C17.3323 15.8424 17.3749 15.8732 17.3905 15.8732C17.4061 15.8732 17.4488 15.9039 17.4853 15.9415C17.5218 15.9791 17.5642 16.0099 17.5796 16.0099C17.5949 16.0099 17.6484 16.0509 17.6985 16.101C17.7486 16.1511 17.8018 16.1921 17.8167 16.1921C17.8316 16.1921 17.8957 16.2434 17.9592 16.306C18.0226 16.3687 18.0863 16.4199 18.1006 16.4199C18.1149 16.4199 18.2325 16.5225 18.3619 16.6478C18.4913 16.7731 18.6086 16.8756 18.6225 16.8756C18.6554 16.8756 18.8121 17.0262 18.8121 17.0578C18.8121 17.0711 18.94 17.2044 19.0964 17.3541C19.2528 17.5037 19.3807 17.6373 19.3807 17.6511C19.3807 17.6648 19.434 17.7259 19.4992 17.7869C19.5643 17.848 19.6176 17.9096 19.6176 17.9239C19.6176 17.9383 19.6603 17.9894 19.7124 18.0376C19.7645 18.0857 19.8072 18.1372 19.8072 18.1519C19.8072 18.1667 19.8392 18.2075 19.8783 18.2426C19.9174 18.2777 19.9493 18.3187 19.9493 18.3337C19.9493 18.3488 19.9813 18.3898 20.0204 18.4249C20.0595 18.46 20.0915 18.5029 20.0915 18.5201C20.0915 18.5374 20.1128 18.5663 20.1389 18.5844C20.165 18.6024 20.1863 18.6332 20.1863 18.6527C20.1863 18.6722 20.2076 18.703 20.2337 18.7211C20.2597 18.7391 20.281 18.7699 20.281 18.7894C20.281 18.8089 20.3024 18.8397 20.3284 18.8578C20.3545 18.8758 20.3758 18.9066 20.3758 18.9261C20.3758 18.9456 20.3971 18.9764 20.4232 18.9945C20.4493 19.0125 20.4706 19.0455 20.4706 19.0678C20.4706 19.0901 20.4812 19.1084 20.4943 19.1084C20.5073 19.1084 20.518 19.1266 20.518 19.1489C20.518 19.1712 20.5393 19.2042 20.5654 19.2223C20.5914 19.2404 20.6127 19.2734 20.6127 19.2957C20.6127 19.318 20.6234 19.3362 20.6364 19.3362C20.6495 19.3362 20.6601 19.3545 20.6601 19.3767C20.6601 19.399 20.6815 19.4321 20.7075 19.4501C20.7336 19.4682 20.7549 19.5012 20.7549 19.5235C20.7549 19.5458 20.7656 19.564 20.7786 19.564C20.7916 19.564 20.8023 19.5845 20.8023 19.6096C20.8023 19.6347 20.813 19.6552 20.826 19.6552C20.839 19.6552 20.8497 19.6757 20.8497 19.7007C20.8497 19.7258 20.8603 19.7463 20.8734 19.7463C20.8864 19.7463 20.8971 19.7668 20.8971 19.7919C20.8971 19.8169 20.9077 19.8374 20.9208 19.8374C20.9338 19.8374 20.9444 19.8579 20.9444 19.883C20.9444 19.9081 20.9551 19.9286 20.9681 19.9286C20.9812 19.9286 20.9918 19.9491 20.9918 19.9741C20.9918 19.9992 21.0025 20.0197 21.0155 20.0197C21.0286 20.0197 21.0392 20.0402 21.0392 20.0653C21.0392 20.0903 21.0499 20.1108 21.0629 20.1108C21.0759 20.1108 21.0866 20.1313 21.0866 20.1564C21.0866 20.1815 21.0973 20.202 21.1103 20.202C21.1233 20.202 21.134 20.2225 21.134 20.2475C21.134 20.2726 21.1446 20.2931 21.1577 20.2931C21.1707 20.2931 21.1814 20.3136 21.1814 20.3387C21.1814 20.3637 21.192 20.3842 21.2051 20.3842C21.2181 20.3842 21.2288 20.4047 21.2288 20.4298C21.2288 20.4549 21.2394 20.4754 21.2525 20.4754C21.2655 20.4754 21.2761 20.4959 21.2761 20.5209C21.2761 20.546 21.2868 20.5665 21.2998 20.5665C21.3129 20.5665 21.3235 20.587 21.3235 20.6121C21.3235 20.6371 21.3342 20.6576 21.3472 20.6576C21.3603 20.6576 21.3709 20.6781 21.3709 20.7032C21.3709 20.7283 21.3816 20.7488 21.3946 20.7488C21.4076 20.7488 21.4183 20.7795 21.4183 20.8171C21.4183 20.8547 21.429 20.8855 21.442 20.8855C21.455 20.8855 21.4657 20.906 21.4657 20.931C21.4657 20.9561 21.4763 20.9766 21.4894 20.9766C21.5024 20.9766 21.5131 21.0074 21.5131 21.0449C21.5131 21.0825 21.5237 21.1133 21.5368 21.1133C21.5498 21.1133 21.5605 21.1338 21.5605 21.1589C21.5605 21.1839 21.5711 21.2044 21.5842 21.2044C21.5972 21.2044 21.6078 21.2352 21.6078 21.2728C21.6078 21.3104 21.6185 21.3411 21.6315 21.3411C21.6446 21.3411 21.6552 21.3719 21.6552 21.4095C21.6552 21.4471 21.6659 21.4778 21.6789 21.4778C21.692 21.4778 21.7026 21.5086 21.7026 21.5462C21.7026 21.5838 21.7133 21.6145 21.7263 21.6145C21.7393 21.6145 21.75 21.6453 21.75 21.6829C21.75 21.7205 21.7607 21.7512 21.7737 21.7512C21.7867 21.7512 21.7974 21.782 21.7974 21.8196C21.7974 21.8572 21.808 21.8879 21.8211 21.8879C21.8341 21.8879 21.8448 21.9187 21.8448 21.9563C21.8448 21.9939 21.8554 22.0246 21.8685 22.0246C21.8815 22.0246 21.8922 22.0656 21.8922 22.1158C21.8922 22.1659 21.9028 22.2069 21.9158 22.2069C21.9289 22.2069 21.9395 22.2479 21.9395 22.298C21.9395 22.3481 21.9502 22.3892 21.9632 22.3892C21.9763 22.3892 21.9869 22.4302 21.9869 22.4803C21.9869 22.5304 21.9976 22.5714 22.0106 22.5714C22.0237 22.5714 22.0343 22.6124 22.0343 22.6626C22.0343 22.7127 22.045 22.7537 22.058 22.7537C22.0712 22.7537 22.0817 22.8145 22.0817 22.8904C22.0817 22.9663 22.0922 23.0271 22.1054 23.0271C22.1184 23.0271 22.1291 23.0784 22.1291 23.141C22.1291 23.2037 22.1397 23.2549 22.1528 23.2549C22.166 23.2549 22.1765 23.3157 22.1765 23.3916C22.1765 23.4676 22.187 23.5283 22.2002 23.5283C22.2137 23.5283 22.2239 23.5967 22.2239 23.6878C22.2239 23.7789 22.234 23.8473 22.2475 23.8473C22.2616 23.8473 22.2712 23.9308 22.2712 24.0523C22.2712 24.1738 22.2809 24.2574 22.2949 24.2574C22.3096 24.2574 22.3186 24.3789 22.3186 24.5763C22.3186 24.7738 22.3277 24.8953 22.3423 24.8953C22.3575 24.8953 22.366 25.0928 22.366 25.4421C22.366 25.7914 22.3575 25.9889 22.3423 25.9889C22.3277 25.9889 22.3186 26.1104 22.3186 26.3079C22.3186 26.5053 22.3096 26.6268 22.2949 26.6268C22.2811 26.6268 22.2712 26.7028 22.2712 26.8091C22.2712 26.9154 22.2614 26.9914 22.2475 26.9914C22.234 26.9914 22.2239 27.0597 22.2239 27.1509C22.2239 27.242 22.2137 27.3103 22.2002 27.3103C22.187 27.3103 22.1765 27.3711 22.1765 27.447C22.1765 27.523 22.166 27.5837 22.1528 27.5837C22.1397 27.5837 22.1291 27.635 22.1291 27.6977C22.1291 27.7603 22.1184 27.8116 22.1054 27.8116C22.0924 27.8116 22.0817 27.8628 22.0817 27.9255C22.0817 27.9881 22.071 28.0394 22.058 28.0394C22.045 28.0394 22.0343 28.0907 22.0343 28.1533C22.0343 28.216 22.0237 28.2672 22.0106 28.2672C21.9976 28.2672 21.9869 28.3082 21.9869 28.3584C21.9869 28.4085 21.9763 28.4495 21.9632 28.4495C21.9502 28.4495 21.9395 28.4803 21.9395 28.5178C21.9395 28.5554 21.9289 28.5862 21.9158 28.5862C21.9028 28.5862 21.8922 28.6272 21.8922 28.6773C21.8922 28.7275 21.8815 28.7685 21.8685 28.7685C21.8554 28.7685 21.8448 28.7992 21.8448 28.8368C21.8448 28.8744 21.8341 28.9052 21.8211 28.9052C21.808 28.9052 21.7974 28.9359 21.7974 28.9735C21.7974 29.0111 21.7867 29.0419 21.7737 29.0419C21.7607 29.0419 21.75 29.0726 21.75 29.1102C21.75 29.1478 21.7393 29.1786 21.7263 29.1786C21.7133 29.1786 21.7026 29.2093 21.7026 29.2469C21.7026 29.2845 21.692 29.3153 21.6789 29.3153C21.6659 29.3153 21.6552 29.346 21.6552 29.3836C21.6552 29.4212 21.6446 29.452 21.6315 29.452C21.6185 29.452 21.6078 29.4827 21.6078 29.5203C21.6078 29.5579 21.5972 29.5887 21.5842 29.5887C21.5711 29.5887 21.5605 29.6092 21.5605 29.6342C21.5605 29.6593 21.5498 29.6798 21.5368 29.6798C21.5237 29.6798 21.5131 29.7106 21.5131 29.7481C21.5131 29.7857 21.5024 29.8165 21.4894 29.8165C21.4763 29.8165 21.4657 29.837 21.4657 29.8621C21.4657 29.8871 21.455 29.9076 21.442 29.9076C21.429 29.9076 21.4183 29.9281 21.4183 29.9532C21.4183 29.9783 21.4076 29.9988 21.3946 29.9988C21.3816 29.9988 21.3709 30.0295 21.3709 30.0671C21.3709 30.1047 21.3603 30.1355 21.3472 30.1355C21.3342 30.1355 21.3235 30.156 21.3235 30.181C21.3235 30.2061 21.3129 30.2266 21.2998 30.2266C21.2868 30.2266 21.2761 30.2471 21.2761 30.2722C21.2761 30.2972 21.2655 30.3177 21.2525 30.3177C21.2394 30.3177 21.2288 30.3382 21.2288 30.3633C21.2288 30.3884 21.2181 30.4089 21.2051 30.4089C21.192 30.4089 21.1814 30.4294 21.1814 30.4544C21.1814 30.4795 21.1707 30.5 21.1577 30.5C21.1446 30.5 21.134 30.5205 21.134 30.5456C21.134 30.5706 21.1233 30.5911 21.1103 30.5911C21.0973 30.5911 21.0866 30.6116 21.0866 30.6367C21.0866 30.6618 21.0759 30.6823 21.0629 30.6823C21.0499 30.6823 21.0392 30.7028 21.0392 30.7278C21.0392 30.7529 21.0286 30.7734 21.0155 30.7734C21.0025 30.7734 20.9918 30.7939 20.9918 30.819C20.9918 30.844 20.9812 30.8645 20.9681 30.8645C20.9551 30.8645 20.9444 30.885 20.9444 30.9101C20.9444 30.9352 20.9338 30.9557 20.9208 30.9557C20.9077 30.9557 20.8971 30.9762 20.8971 31.0012C20.8971 31.0263 20.8864 31.0468 20.8734 31.0468C20.8603 31.0468 20.8497 31.065 20.8497 31.0873C20.8497 31.1096 20.8283 31.1426 20.8023 31.1607C20.7762 31.1788 20.7549 31.2118 20.7549 31.2341C20.7549 31.2564 20.7442 31.2746 20.7312 31.2746C20.7182 31.2746 20.7075 31.2951 20.7075 31.3202C20.7075 31.3452 20.6969 31.3658 20.6838 31.3658C20.6708 31.3658 20.6601 31.3863 20.6601 31.4113C20.6601 31.4364 20.6495 31.4569 20.6364 31.4569C20.6234 31.4569 20.6127 31.4751 20.6127 31.4974C20.6127 31.5197 20.5914 31.5527 20.5654 31.5708C20.5393 31.5889 20.518 31.6219 20.518 31.6442C20.518 31.6665 20.5073 31.6847 20.4943 31.6847C20.4812 31.6847 20.4706 31.703 20.4706 31.7253C20.4706 31.7476 20.4493 31.7806 20.4232 31.7986C20.3971 31.8167 20.3758 31.8475 20.3758 31.867C20.3758 31.8865 20.3545 31.9173 20.3284 31.9353C20.3024 31.9534 20.281 31.9842 20.281 32.0037C20.281 32.0232 20.2597 32.054 20.2337 32.072C20.2076 32.0901 20.1863 32.1209 20.1863 32.1404C20.1863 32.1599 20.165 32.1907 20.1389 32.2087C20.1128 32.2268 20.0915 32.2576 20.0915 32.2771C20.0915 32.2966 20.0702 32.3274 20.0441 32.3454C20.0181 32.3635 19.9967 32.3922 19.9967 32.4092C19.9967 32.4262 19.9541 32.4795 19.902 32.5277C19.8498 32.5759 19.8072 32.6271 19.8072 32.6416C19.8072 32.6561 19.7645 32.7074 19.7124 32.7555C19.6603 32.8037 19.6176 32.8546 19.6176 32.8688C19.6176 32.8829 19.543 32.9652 19.4518 33.0517C19.3606 33.1382 19.2859 33.2198 19.2859 33.233C19.2859 33.2646 18.1802 34.3276 18.1473 34.3276C18.1333 34.3276 18.07 34.3788 18.0065 34.4415C17.9431 34.5041 17.8796 34.5554 17.8656 34.5554C17.8331 34.5554 17.4379 34.9342 17.4379 34.9653C17.4379 34.9956 16.4268 35.968 16.3953 35.968C16.3638 35.968 15.9216 36.3932 15.9216 36.4234C15.9216 36.4538 14.8156 37.5172 14.7841 37.5172C14.7525 37.5172 14.4052 37.8512 14.4052 37.8815C14.4052 37.9189 13.2007 39.0665 13.1615 39.0665C13.1419 39.0665 13.1258 39.0767 13.1258 39.0893C13.1258 39.1018 13.1098 39.1121 13.0902 39.1121C13.0707 39.1121 11.2742 37.3999 9.09804 35.3073C6.4716 32.7816 5.12549 31.5025 5.09398 31.5025C5.06258 31.5025 4.19249 32.3237 2.52326 33.9288C1.13545 35.2633 0 36.3655 0 36.378C0 36.3906 2.94798 39.2357 6.55106 42.7004L13.1021 49L18.8713 43.4523C22.0444 40.401 24.6405 37.8939 24.6405 37.8808C24.6405 37.8677 24.7258 37.7759 24.8301 37.6767C24.9343 37.5775 25.0196 37.4852 25.0196 37.4716C25.0196 37.4579 25.0942 37.3759 25.1855 37.2894C25.2767 37.2029 25.3513 37.1207 25.3513 37.1067C25.3513 37.0928 25.4046 37.0315 25.4698 36.9704C25.5349 36.9094 25.5882 36.8475 25.5882 36.833C25.5882 36.8184 25.6202 36.7777 25.6593 36.7426C25.6984 36.7075 25.7304 36.6665 25.7304 36.6515C25.7304 36.6365 25.7624 36.5954 25.8015 36.5603C25.8406 36.5252 25.8725 36.4842 25.8725 36.4692C25.8725 36.4542 25.9045 36.4132 25.9436 36.3781C25.9827 36.343 26.0147 36.3001 26.0147 36.2828C26.0147 36.2656 26.036 36.2367 26.0621 36.2186C26.0882 36.2005 26.1095 36.1698 26.1095 36.1502C26.1095 36.1307 26.1308 36.0999 26.1569 36.0819C26.1829 36.0638 26.2042 36.0331 26.2042 36.0135C26.2042 35.994 26.2256 35.9633 26.2516 35.9452C26.2777 35.9271 26.299 35.8964 26.299 35.8768C26.299 35.8573 26.3203 35.8266 26.3464 35.8085C26.3725 35.7904 26.3938 35.7597 26.3938 35.7401C26.3938 35.7206 26.4151 35.6899 26.4412 35.6718C26.4672 35.6537 26.4886 35.623 26.4886 35.6034C26.4886 35.5839 26.5099 35.5532 26.5359 35.5351C26.562 35.517 26.5833 35.484 26.5833 35.4617C26.5833 35.4394 26.594 35.4212 26.607 35.4212C26.6201 35.4212 26.6307 35.4029 26.6307 35.3806C26.6307 35.3583 26.652 35.3253 26.6781 35.3073C26.7042 35.2892 26.7255 35.2584 26.7255 35.2389C26.7255 35.2194 26.7468 35.1886 26.7729 35.1706C26.7989 35.1525 26.8203 35.1195 26.8203 35.0972C26.8203 35.0749 26.8309 35.0566 26.844 35.0566C26.857 35.0566 26.8676 35.0361 26.8676 35.0111C26.8676 34.986 26.8783 34.9655 26.8913 34.9655C26.9044 34.9655 26.915 34.9473 26.915 34.925C26.915 34.9027 26.9364 34.8697 26.9624 34.8516C26.9885 34.8335 27.0098 34.8005 27.0098 34.7782C27.0098 34.7559 27.0205 34.7377 27.0335 34.7377C27.0465 34.7377 27.0572 34.7172 27.0572 34.6921C27.0572 34.667 27.0679 34.6465 27.0809 34.6465C27.0939 34.6465 27.1046 34.626 27.1046 34.601C27.1046 34.5759 27.1152 34.5554 27.1283 34.5554C27.1413 34.5554 27.152 34.5349 27.152 34.5098C27.152 34.4848 27.1626 34.4643 27.1757 34.4643C27.1887 34.4643 27.1993 34.4438 27.1993 34.4187C27.1993 34.3936 27.21 34.3731 27.223 34.3731C27.2361 34.3731 27.2467 34.3526 27.2467 34.3276C27.2467 34.3025 27.2574 34.282 27.2704 34.282C27.2835 34.282 27.2941 34.2638 27.2941 34.2415C27.2941 34.2192 27.3154 34.1862 27.3415 34.1681C27.3676 34.15 27.3889 34.117 27.3889 34.0947C27.3889 34.0724 27.3996 34.0542 27.4126 34.0542C27.4256 34.0542 27.4363 34.0234 27.4363 33.9858C27.4363 33.9482 27.4469 33.9175 27.46 33.9175C27.473 33.9175 27.4837 33.897 27.4837 33.8719C27.4837 33.8468 27.4943 33.8263 27.5074 33.8263C27.5204 33.8263 27.531 33.8058 27.531 33.7808C27.531 33.7557 27.5417 33.7352 27.5547 33.7352C27.5678 33.7352 27.5784 33.7147 27.5784 33.6896C27.5784 33.6646 27.5891 33.6441 27.6021 33.6441C27.6152 33.6441 27.6258 33.6236 27.6258 33.5985C27.6258 33.5735 27.6365 33.5529 27.6495 33.5529C27.6625 33.5529 27.6732 33.5324 27.6732 33.5074C27.6732 33.4823 27.6839 33.4618 27.6969 33.4618C27.7099 33.4618 27.7206 33.4311 27.7206 33.3935C27.7206 33.3559 27.7313 33.3251 27.7443 33.3251C27.7573 33.3251 27.768 33.3046 27.768 33.2795C27.768 33.2545 27.7786 33.234 27.7917 33.234C27.8047 33.234 27.8154 33.2032 27.8154 33.1656C27.8154 33.128 27.826 33.0973 27.8391 33.0973C27.8521 33.0973 27.8627 33.0665 27.8627 33.0289C27.8627 32.9913 27.8734 32.9606 27.8864 32.9606C27.8995 32.9606 27.9101 32.9401 27.9101 32.915C27.9101 32.89 27.9208 32.8694 27.9338 32.8694C27.9469 32.8694 27.9575 32.8387 27.9575 32.8011C27.9575 32.7635 27.9682 32.7327 27.9812 32.7327C27.9942 32.7327 28.0049 32.702 28.0049 32.6644C28.0049 32.6268 28.0156 32.596 28.0286 32.596C28.0416 32.596 28.0523 32.5755 28.0523 32.5505C28.0523 32.5254 28.0629 32.5049 28.076 32.5049C28.089 32.5049 28.0997 32.4742 28.0997 32.4366C28.0997 32.399 28.1103 32.3682 28.1234 32.3682C28.1364 32.3682 28.1471 32.3375 28.1471 32.2999C28.1471 32.2623 28.1577 32.2315 28.1708 32.2315C28.1838 32.2315 28.1944 32.2008 28.1944 32.1632C28.1944 32.1256 28.2051 32.0948 28.2181 32.0948C28.2312 32.0948 28.2418 32.0641 28.2418 32.0265C28.2418 31.9889 28.2525 31.9581 28.2655 31.9581C28.2786 31.9581 28.2892 31.9274 28.2892 31.8898C28.2892 31.8522 28.2999 31.8214 28.3129 31.8214C28.3259 31.8214 28.3366 31.7804 28.3366 31.7303C28.3366 31.6802 28.3473 31.6392 28.3603 31.6392C28.3733 31.6392 28.384 31.6084 28.384 31.5708C28.384 31.5332 28.3946 31.5025 28.4077 31.5025C28.4207 31.5025 28.4314 31.4614 28.4314 31.4113C28.4314 31.3612 28.442 31.3202 28.4551 31.3202C28.4681 31.3202 28.4788 31.2894 28.4788 31.2518C28.4788 31.2142 28.4894 31.1835 28.5025 31.1835C28.5155 31.1835 28.5261 31.1425 28.5261 31.0924C28.5261 31.0422 28.5368 31.0012 28.5498 31.0012C28.5629 31.0012 28.5735 30.9602 28.5735 30.9101C28.5735 30.86 28.5842 30.819 28.5972 30.819C28.6103 30.819 28.6209 30.7677 28.6209 30.705C28.6209 30.6424 28.6316 30.5911 28.6446 30.5911C28.6576 30.5911 28.6683 30.5501 28.6683 30.5C28.6683 30.4499 28.679 30.4089 28.692 30.4089C28.705 30.4089 28.7157 30.3576 28.7157 30.2949C28.7157 30.2323 28.7263 30.181 28.7394 30.181C28.7526 30.181 28.7631 30.1203 28.7631 30.0443C28.7631 29.9684 28.7736 29.9076 28.7868 29.9076C28.7999 29.9076 28.8105 29.8469 28.8105 29.7709C28.8105 29.695 28.821 29.6342 28.8342 29.6342C28.8477 29.6342 28.8578 29.5659 28.8578 29.4747C28.8578 29.3836 28.868 29.3153 28.8815 29.3153C28.8954 29.3153 28.9052 29.2393 28.9052 29.133C28.9052 29.0267 28.9151 28.9507 28.9289 28.9507C28.9433 28.9507 28.9526 28.852 28.9526 28.7001C28.9526 28.5482 28.962 28.4495 28.9763 28.4495C28.9918 28.4495 29 28.047 29 27.2876C29 26.5281 28.9918 26.1256 28.9763 26.1256C28.9621 26.1256 28.9526 26.0345 28.9526 25.8978C28.9526 25.7611 28.9431 25.6699 28.9289 25.6699C28.9149 25.6699 28.9052 25.5864 28.9052 25.4649C28.9052 25.3434 28.8956 25.2598 28.8815 25.2598C28.8684 25.2598 28.8578 25.1991 28.8578 25.1231C28.8578 25.0472 28.8473 24.9864 28.8342 24.9864C28.8206 24.9864 28.8105 24.9181 28.8105 24.827C28.8105 24.7358 28.8003 24.6675 28.7868 24.6675C28.7737 24.6675 28.7631 24.6162 28.7631 24.5536C28.7631 24.4909 28.7524 24.4396 28.7394 24.4396C28.7263 24.4396 28.7157 24.3884 28.7157 24.3257C28.7157 24.2631 28.705 24.2118 28.692 24.2118C28.679 24.2118 28.6683 24.1606 28.6683 24.0979C28.6683 24.0352 28.6576 23.984 28.6446 23.984C28.6316 23.984 28.6209 23.943 28.6209 23.8929C28.6209 23.8427 28.6103 23.8017 28.5972 23.8017C28.5842 23.8017 28.5735 23.7607 28.5735 23.7106C28.5735 23.6605 28.5629 23.6195 28.5498 23.6195C28.5368 23.6195 28.5261 23.5784 28.5261 23.5283C28.5261 23.4782 28.5155 23.4372 28.5025 23.4372C28.4894 23.4372 28.4788 23.3962 28.4788 23.3461C28.4788 23.2959 28.4681 23.2549 28.4551 23.2549C28.442 23.2549 28.4314 23.2242 28.4314 23.1866C28.4314 23.149 28.4207 23.1182 28.4077 23.1182C28.3946 23.1182 28.384 23.0772 28.384 23.0271C28.384 22.977 28.3733 22.936 28.3603 22.936C28.3473 22.936 28.3366 22.9052 28.3366 22.8676C28.3366 22.83 28.3259 22.7993 28.3129 22.7993C28.2999 22.7993 28.2892 22.7685 28.2892 22.7309C28.2892 22.6933 28.2786 22.6626 28.2655 22.6626C28.2525 22.6626 28.2418 22.6318 28.2418 22.5942C28.2418 22.5566 28.2312 22.5259 28.2181 22.5259C28.2051 22.5259 28.1944 22.4951 28.1944 22.4575C28.1944 22.4199 28.1838 22.3892 28.1708 22.3892C28.1577 22.3892 28.1471 22.3584 28.1471 22.3208C28.1471 22.2832 28.1364 22.2525 28.1234 22.2525C28.1103 22.2525 28.0997 22.2217 28.0997 22.1841C28.0997 22.1465 28.089 22.1158 28.076 22.1158C28.0629 22.1158 28.0523 22.085 28.0523 22.0474C28.0523 22.0098 28.0416 21.9791 28.0286 21.9791C28.0156 21.9791 28.0049 21.9586 28.0049 21.9335C28.0049 21.9084 27.9942 21.8879 27.9812 21.8879C27.9682 21.8879 27.9575 21.8572 27.9575 21.8196C27.9575 21.782 27.9469 21.7512 27.9338 21.7512C27.9208 21.7512 27.9101 21.7307 27.9101 21.7057C27.9101 21.6806 27.8995 21.6601 27.8864 21.6601C27.8734 21.6601 27.8627 21.6293 27.8627 21.5917C27.8627 21.5542 27.8521 21.5234 27.8391 21.5234C27.826 21.5234 27.8154 21.4926 27.8154 21.455C27.8154 21.4175 27.8047 21.3867 27.7917 21.3867C27.7786 21.3867 27.768 21.3662 27.768 21.3411C27.768 21.3161 27.7573 21.2956 27.7443 21.2956C27.7313 21.2956 27.7206 21.2648 27.7206 21.2272C27.7206 21.1896 27.7099 21.1589 27.6969 21.1589C27.6839 21.1589 27.6732 21.1384 27.6732 21.1133C27.6732 21.0882 27.6625 21.0677 27.6495 21.0677C27.6365 21.0677 27.6258 21.0472 27.6258 21.0222C27.6258 20.9971 27.6152 20.9766 27.6021 20.9766C27.5891 20.9766 27.5784 20.9561 27.5784 20.931C27.5784 20.906 27.5678 20.8855 27.5547 20.8855C27.5417 20.8855 27.531 20.865 27.531 20.8399C27.531 20.8148 27.5204 20.7943 27.5074 20.7943C27.4943 20.7943 27.4837 20.7636 27.4837 20.726C27.4837 20.6884 27.473 20.6576 27.46 20.6576C27.4469 20.6576 27.4363 20.6371 27.4363 20.6121C27.4363 20.587 27.4256 20.5665 27.4126 20.5665C27.3996 20.5665 27.3889 20.546 27.3889 20.5209C27.3889 20.4959 27.3782 20.4754 27.3652 20.4754C27.3522 20.4754 27.3415 20.4549 27.3415 20.4298C27.3415 20.4047 27.3308 20.3842 27.3178 20.3842C27.3048 20.3842 27.2941 20.3637 27.2941 20.3387C27.2941 20.3136 27.2835 20.2931 27.2704 20.2931C27.2574 20.2931 27.2467 20.2748 27.2467 20.2526C27.2467 20.2303 27.2254 20.1972 27.1993 20.1792C27.1733 20.1611 27.152 20.1281 27.152 20.1058C27.152 20.0835 27.1413 20.0653 27.1283 20.0653C27.1152 20.0653 27.1046 20.0448 27.1046 20.0197C27.1046 19.9946 27.0939 19.9741 27.0809 19.9741C27.0679 19.9741 27.0572 19.9536 27.0572 19.9286C27.0572 19.9035 27.0465 19.883 27.0335 19.883C27.0205 19.883 27.0098 19.8648 27.0098 19.8425C27.0098 19.8202 26.9885 19.7872 26.9624 19.7691C26.9364 19.751 26.915 19.718 26.915 19.6957C26.915 19.6734 26.9044 19.6552 26.8913 19.6552C26.8783 19.6552 26.8676 19.6347 26.8676 19.6096C26.8676 19.5845 26.857 19.564 26.844 19.564C26.8309 19.564 26.8203 19.5458 26.8203 19.5235C26.8203 19.5012 26.7989 19.4682 26.7729 19.4501C26.7468 19.4321 26.7255 19.4013 26.7255 19.3818C26.7255 19.3622 26.7042 19.3315 26.6781 19.3134C26.652 19.2954 26.6307 19.2623 26.6307 19.24C26.6307 19.2178 26.6201 19.1995 26.607 19.1995C26.594 19.1995 26.5833 19.1813 26.5833 19.159C26.5833 19.1367 26.562 19.1037 26.5359 19.0856C26.5099 19.0675 26.4886 19.0368 26.4886 19.0172C26.4886 18.9977 26.4672 18.967 26.4412 18.9489C26.4151 18.9308 26.3938 18.9001 26.3938 18.8805C26.3938 18.861 26.3725 18.8303 26.3464 18.8122C26.3203 18.7941 26.299 18.7634 26.299 18.7438C26.299 18.7243 26.2777 18.6936 26.2516 18.6755C26.2256 18.6574 26.2042 18.6267 26.2042 18.6071C26.2042 18.5876 26.1829 18.5569 26.1569 18.5388C26.1308 18.5207 26.1095 18.49 26.1095 18.4704C26.1095 18.4509 26.0882 18.4202 26.0621 18.4021C26.036 18.384 26.0147 18.3551 26.0147 18.3378C26.0147 18.3206 25.9827 18.2777 25.9436 18.2426C25.9045 18.2075 25.8725 18.1665 25.8725 18.1515C25.8725 18.1365 25.8406 18.0955 25.8015 18.0603C25.7624 18.0252 25.7304 17.9846 25.7304 17.97C25.7304 17.9554 25.6771 17.8935 25.6119 17.8325C25.5468 17.7715 25.4935 17.71 25.4935 17.6958C25.4935 17.6817 25.4402 17.6201 25.375 17.5591C25.3098 17.4981 25.2565 17.4367 25.2565 17.4226C25.2565 17.4086 25.1926 17.3367 25.1144 17.2629C25.0362 17.1891 24.9722 17.1179 24.9722 17.1046C24.9722 17.0732 23.7719 15.9187 23.7393 15.9187C23.7256 15.9187 23.6301 15.8367 23.527 15.7365C23.4238 15.6362 23.3275 15.5542 23.3129 15.5542C23.2983 15.5542 23.2453 15.5132 23.1953 15.4631C23.1452 15.4129 23.0919 15.3719 23.0768 15.3719C23.0617 15.3719 23.0084 15.3309 22.9583 15.2808C22.9082 15.2307 22.8547 15.1897 22.8394 15.1897C22.824 15.1897 22.7816 15.1589 22.7451 15.1213C22.7086 15.0837 22.6659 15.053 22.6503 15.053C22.6347 15.053 22.5921 15.0222 22.5556 14.9846C22.519 14.947 22.4745 14.9163 22.4565 14.9163C22.4386 14.9163 22.4085 14.8957 22.3897 14.8707C22.3709 14.8456 22.3408 14.8251 22.3229 14.8251C22.305 14.8251 22.2604 14.7944 22.2239 14.7568C22.1873 14.7192 22.1428 14.6884 22.1248 14.6884C22.1069 14.6884 22.0768 14.6679 22.058 14.6429C22.0392 14.6178 22.0072 14.5973 21.9869 14.5973C21.9666 14.5973 21.9346 14.5768 21.9158 14.5517C21.8971 14.5267 21.8651 14.5062 21.8448 14.5062C21.8245 14.5062 21.7925 14.4857 21.7737 14.4606C21.7549 14.4355 21.7229 14.415 21.7026 14.415C21.6823 14.415 21.6503 14.3945 21.6315 14.3695C21.6127 14.3444 21.5808 14.3239 21.5605 14.3239C21.5402 14.3239 21.5082 14.3034 21.4894 14.2783C21.4706 14.2533 21.4363 14.2328 21.4131 14.2328C21.3899 14.2328 21.3709 14.2225 21.3709 14.21C21.3709 14.1974 21.3519 14.1872 21.3288 14.1872C21.3056 14.1872 21.2712 14.1667 21.2525 14.1416C21.2337 14.1166 21.1993 14.0961 21.1761 14.0961C21.153 14.0961 21.134 14.0858 21.134 14.0733C21.134 14.0607 21.115 14.0505 21.0918 14.0505C21.0686 14.0505 21.0343 14.03 21.0155 14.0049C20.9967 13.9799 20.9624 13.9594 20.9392 13.9594C20.916 13.9594 20.8971 13.9491 20.8971 13.9366C20.8971 13.924 20.8757 13.9138 20.8497 13.9138C20.8236 13.9138 20.8023 13.9035 20.8023 13.891C20.8023 13.8785 20.781 13.8682 20.7549 13.8682C20.7288 13.8682 20.7075 13.858 20.7075 13.8454C20.7075 13.8329 20.6862 13.8227 20.6601 13.8227C20.6341 13.8227 20.6127 13.8124 20.6127 13.7999C20.6127 13.7873 20.5938 13.7771 20.5706 13.7771C20.5474 13.7771 20.5131 13.7566 20.4943 13.7315C20.4755 13.7065 20.4412 13.686 20.418 13.686C20.3948 13.686 20.3758 13.6757 20.3758 13.6632C20.3758 13.6506 20.3545 13.6404 20.3284 13.6404C20.3024 13.6404 20.281 13.6301 20.281 13.6176C20.281 13.6051 20.2597 13.5948 20.2337 13.5948C20.2076 13.5948 20.1863 13.5846 20.1863 13.572C20.1863 13.5595 20.1543 13.5493 20.1152 13.5493C20.0761 13.5493 20.0441 13.539 20.0441 13.5265C20.0441 13.5139 20.0228 13.5037 19.9967 13.5037C19.9707 13.5037 19.9493 13.4934 19.9493 13.4809C19.9493 13.4684 19.928 13.4581 19.902 13.4581C19.8759 13.4581 19.8546 13.4479 19.8546 13.4353C19.8546 13.4228 19.8333 13.4126 19.8072 13.4126C19.7811 13.4126 19.7598 13.4023 19.7598 13.3898C19.7598 13.3772 19.7385 13.367 19.7124 13.367C19.6864 13.367 19.665 13.3567 19.665 13.3442C19.665 13.3317 19.6437 13.3214 19.6176 13.3214C19.5916 13.3214 19.5703 13.3112 19.5703 13.2986C19.5703 13.2861 19.5383 13.2759 19.4992 13.2759C19.4601 13.2759 19.4281 13.2656 19.4281 13.2531C19.4281 13.2405 19.4068 13.2303 19.3807 13.2303C19.3547 13.2303 19.3333 13.22 19.3333 13.2075C19.3333 13.195 19.312 13.1847 19.2859 13.1847C19.2599 13.1847 19.2386 13.1745 19.2386 13.1619C19.2386 13.1494 19.2066 13.1392 19.1675 13.1392C19.1284 13.1392 19.0964 13.1289 19.0964 13.1164C19.0964 13.1038 19.0751 13.0936 19.049 13.0936C19.023 13.0936 19.0016 13.0833 19.0016 13.0708C19.0016 13.0583 18.9697 13.048 18.9306 13.048C18.8915 13.048 18.8595 13.0378 18.8595 13.0252C18.8595 13.0127 18.8382 13.0025 18.8121 13.0025C18.786 13.0025 18.7647 12.9922 18.7647 12.9797C18.7647 12.9671 18.7327 12.9569 18.6936 12.9569C18.6545 12.9569 18.6225 12.9466 18.6225 12.9341C18.6225 12.9216 18.5906 12.9113 18.5515 12.9113C18.5124 12.9113 18.4804 12.9011 18.4804 12.8885C18.4804 12.876 18.4484 12.8658 18.4093 12.8658C18.3702 12.8658 18.3382 12.8555 18.3382 12.843C18.3382 12.8304 18.3169 12.8202 18.2908 12.8202C18.2648 12.8202 18.2435 12.8099 18.2435 12.7974C18.2435 12.7849 18.2115 12.7746 18.1724 12.7746C18.1333 12.7746 18.1013 12.7644 18.1013 12.7518C18.1013 12.7393 18.0587 12.7291 18.0065 12.7291C17.9544 12.7291 17.9118 12.7188 17.9118 12.7063C17.9118 12.6937 17.8798 12.6835 17.8407 12.6835C17.8016 12.6835 17.7696 12.6732 17.7696 12.6607C17.7696 12.6482 17.7376 12.6379 17.6985 12.6379C17.6594 12.6379 17.6275 12.6277 17.6275 12.6151C17.6275 12.6026 17.5955 12.5924 17.5564 12.5924C17.5173 12.5924 17.4853 12.5821 17.4853 12.5696C17.4853 12.5571 17.4426 12.5468 17.3905 12.5468C17.3384 12.5468 17.2958 12.5365 17.2958 12.524C17.2958 12.5115 17.2638 12.5012 17.2247 12.5012C17.1856 12.5012 17.1536 12.491 17.1536 12.4784C17.1536 12.4659 17.1109 12.4557 17.0588 12.4557C17.0067 12.4557 16.9641 12.4454 16.9641 12.4329C16.9641 12.4204 16.9214 12.4101 16.8693 12.4101C16.8172 12.4101 16.7745 12.3998 16.7745 12.3873C16.7745 12.3748 16.7212 12.3645 16.656 12.3645C16.5909 12.3645 16.5376 12.3543 16.5376 12.3417C16.5376 12.3292 16.4949 12.319 16.4428 12.319C16.3907 12.319 16.348 12.3087 16.348 12.2962C16.348 12.2837 16.2947 12.2734 16.2296 12.2734C16.1644 12.2734 16.1111 12.2631 16.1111 12.2506C16.1111 12.2379 16.0479 12.2278 15.969 12.2278C15.89 12.2278 15.8268 12.2177 15.8268 12.205C15.8268 12.1924 15.7636 12.1823 15.6846 12.1823C15.6057 12.1823 15.5425 12.1722 15.5425 12.1595C15.5425 12.1465 15.4714 12.1367 15.3766 12.1367C15.2819 12.1367 15.2108 12.1269 15.2108 12.1139C15.2108 12.1004 15.1239 12.0911 14.9975 12.0911C14.8712 12.0911 14.7843 12.0819 14.7843 12.0683C14.7843 12.0545 14.6817 12.0456 14.5237 12.0456C14.3657 12.0456 14.2631 12.0366 14.2631 12.0228C14.2631 12.0079 13.8603 12 13.1021 12C12.344 12 11.9412 12.0079 11.9412 12.0228ZM12.5572 22.2752C12.5572 22.2882 12.4861 22.298 12.3913 22.298C12.2966 22.298 12.2255 22.3078 12.2255 22.3208C12.2255 22.3333 12.1722 22.3436 12.107 22.3436C12.0419 22.3436 11.9886 22.3538 11.9886 22.3664C11.9886 22.3789 11.9459 22.3892 11.8938 22.3892C11.8417 22.3892 11.799 22.3994 11.799 22.4119C11.799 22.4245 11.7564 22.4347 11.7042 22.4347C11.6521 22.4347 11.6095 22.445 11.6095 22.4575C11.6095 22.47 11.5775 22.4803 11.5384 22.4803C11.4993 22.4803 11.4673 22.4905 11.4673 22.5031C11.4673 22.5156 11.4353 22.5259 11.3962 22.5259C11.3571 22.5259 11.3252 22.5361 11.3252 22.5486C11.3252 22.5612 11.2932 22.5714 11.2541 22.5714C11.215 22.5714 11.183 22.5817 11.183 22.5942C11.183 22.6067 11.1617 22.617 11.1356 22.617C11.1096 22.617 11.0882 22.6272 11.0882 22.6398C11.0882 22.6523 11.0669 22.6626 11.0408 22.6626C11.0148 22.6626 10.9935 22.6728 10.9935 22.6853C10.9935 22.6979 10.9721 22.7081 10.9461 22.7081C10.92 22.7081 10.8987 22.7184 10.8987 22.7309C10.8987 22.7434 10.8667 22.7537 10.8276 22.7537C10.7885 22.7537 10.7565 22.7639 10.7565 22.7765C10.7565 22.789 10.7376 22.7993 10.7144 22.7993C10.6912 22.7993 10.6569 22.8198 10.6381 22.8448C10.6193 22.8699 10.585 22.8904 10.5618 22.8904C10.5386 22.8904 10.5196 22.9006 10.5196 22.9132C10.5196 22.9257 10.4983 22.936 10.4722 22.936C10.4462 22.936 10.4248 22.9462 10.4248 22.9587C10.4248 22.9713 10.4059 22.9815 10.3827 22.9815C10.3595 22.9815 10.3252 23.002 10.3064 23.0271C10.2876 23.0521 10.2556 23.0727 10.2353 23.0727C10.215 23.0727 10.183 23.0932 10.1642 23.1182C10.1454 23.1433 10.1154 23.1638 10.0974 23.1638C10.0795 23.1638 10.0349 23.1945 9.99837 23.2321C9.96185 23.2697 9.91942 23.3005 9.90407 23.3005C9.88874 23.3005 9.83522 23.3415 9.78513 23.3916C9.73504 23.4417 9.68247 23.4828 9.6683 23.4828C9.63463 23.4828 9.05065 24.0443 9.05065 24.0767C9.05065 24.0903 9.00801 24.1409 8.95588 24.189C8.90376 24.2372 8.86111 24.2887 8.86111 24.3034C8.86111 24.3182 8.82913 24.359 8.79003 24.3941C8.75094 24.4292 8.71895 24.4721 8.71895 24.4893C8.71895 24.5066 8.69763 24.5355 8.67157 24.5536C8.64551 24.5716 8.62418 24.6024 8.62418 24.6219C8.62418 24.6414 8.60286 24.6722 8.5768 24.6903C8.55074 24.7083 8.52941 24.7413 8.52941 24.7636C8.52941 24.7859 8.51875 24.8042 8.50572 24.8042C8.49269 24.8042 8.48203 24.8247 8.48203 24.8497C8.48203 24.8748 8.47136 24.8953 8.45833 24.8953C8.4453 24.8953 8.43464 24.9158 8.43464 24.9409C8.43464 24.9659 8.42398 24.9864 8.41095 24.9864C8.39792 24.9864 8.38726 25.007 8.38726 25.032C8.38726 25.0571 8.37659 25.0776 8.36356 25.0776C8.35053 25.0776 8.33987 25.0981 8.33987 25.1231C8.33987 25.1482 8.32921 25.1687 8.31618 25.1687C8.30315 25.1687 8.29248 25.1892 8.29248 25.2143C8.29248 25.2393 8.28182 25.2598 8.26879 25.2598C8.25576 25.2598 8.2451 25.2804 8.2451 25.3054C8.2451 25.3305 8.23444 25.351 8.22141 25.351C8.20837 25.351 8.19771 25.3817 8.19771 25.4193C8.19771 25.4569 8.18705 25.4877 8.17402 25.4877C8.16099 25.4877 8.15033 25.5082 8.15033 25.5332C8.15033 25.5583 8.13966 25.5788 8.12663 25.5788C8.1136 25.5788 8.10294 25.6096 8.10294 25.6472C8.10294 25.6848 8.09228 25.7155 8.07925 25.7155C8.06622 25.7155 8.05556 25.7463 8.05556 25.7839C8.05556 25.8215 8.04489 25.8522 8.03186 25.8522C8.01883 25.8522 8.00817 25.883 8.00817 25.9206C8.00817 25.9582 7.99751 25.9889 7.98448 25.9889C7.97145 25.9889 7.96078 26.0299 7.96078 26.08C7.96078 26.1302 7.95012 26.1712 7.93709 26.1712C7.92406 26.1712 7.9134 26.2122 7.9134 26.2623C7.9134 26.3124 7.90274 26.3534 7.88971 26.3534C7.87668 26.3534 7.86601 26.4047 7.86601 26.4674C7.86601 26.53 7.85535 26.5813 7.84232 26.5813C7.82851 26.5813 7.81863 26.6572 7.81863 26.7635C7.81863 26.8699 7.80875 26.9458 7.79493 26.9458C7.77989 26.9458 7.77124 27.1205 7.77124 27.4243C7.77124 27.728 7.77989 27.9027 7.79493 27.9027C7.80875 27.9027 7.81863 27.9786 7.81863 28.085C7.81863 28.1913 7.82851 28.2672 7.84232 28.2672C7.85535 28.2672 7.86601 28.3185 7.86601 28.3811C7.86601 28.4438 7.87668 28.4951 7.88971 28.4951C7.90274 28.4951 7.9134 28.5463 7.9134 28.609C7.9134 28.6716 7.92406 28.7229 7.93709 28.7229C7.95012 28.7229 7.96078 28.7537 7.96078 28.7912C7.96078 28.8288 7.97145 28.8596 7.98448 28.8596C7.99751 28.8596 8.00817 28.9006 8.00817 28.9507C8.00817 29.0009 8.01883 29.0419 8.03186 29.0419C8.04489 29.0419 8.05556 29.0726 8.05556 29.1102C8.05556 29.1478 8.06622 29.1786 8.07925 29.1786C8.09228 29.1786 8.10294 29.2093 8.10294 29.2469C8.10294 29.2845 8.1136 29.3153 8.12663 29.3153C8.13966 29.3153 8.15033 29.3358 8.15033 29.3608C8.15033 29.3859 8.16099 29.4064 8.17402 29.4064C8.18705 29.4064 8.19771 29.4372 8.19771 29.4747C8.19771 29.5123 8.20837 29.5431 8.22141 29.5431C8.23444 29.5431 8.2451 29.5636 8.2451 29.5887C8.2451 29.6137 8.25576 29.6342 8.26879 29.6342C8.28182 29.6342 8.29248 29.6547 8.29248 29.6798C8.29248 29.7049 8.30315 29.7254 8.31618 29.7254C8.32921 29.7254 8.33987 29.7459 8.33987 29.7709C8.33987 29.796 8.35053 29.8165 8.36356 29.8165C8.37659 29.8165 8.38726 29.837 8.38726 29.8621C8.38726 29.8871 8.39792 29.9076 8.41095 29.9076C8.42398 29.9076 8.43464 29.9281 8.43464 29.9532C8.43464 29.9783 8.4453 29.9988 8.45833 29.9988C8.47136 29.9988 8.48203 30.017 8.48203 30.0393C8.48203 30.0616 8.50335 30.0946 8.52941 30.1127C8.55547 30.1307 8.5768 30.1615 8.5768 30.181C8.5768 30.2006 8.59812 30.2313 8.62418 30.2494C8.65024 30.2674 8.67157 30.2982 8.67157 30.3177C8.67157 30.3372 8.69289 30.368 8.71895 30.3861C8.74502 30.4041 8.76634 30.4331 8.76634 30.4503C8.76634 30.4676 8.79833 30.5104 8.83742 30.5456C8.87651 30.5807 8.9085 30.6213 8.9085 30.6359C8.9085 30.6505 8.96181 30.7124 9.02696 30.7734C9.09212 30.8344 9.14542 30.8954 9.14542 30.9089C9.14542 30.941 9.53972 31.3202 9.5731 31.3202C9.58715 31.3202 9.65058 31.3714 9.71405 31.4341C9.77753 31.4968 9.84186 31.548 9.85702 31.548C9.87218 31.548 9.91447 31.5788 9.95098 31.6164C9.98749 31.654 10.0321 31.6847 10.05 31.6847C10.068 31.6847 10.098 31.7052 10.1168 31.7303C10.1356 31.7553 10.1676 31.7759 10.1879 31.7759C10.2082 31.7759 10.2402 31.7964 10.259 31.8214C10.2778 31.8465 10.3098 31.867 10.3301 31.867C10.3504 31.867 10.3824 31.8875 10.4011 31.9126C10.4199 31.9376 10.4543 31.9581 10.4775 31.9581C10.5006 31.9581 10.5196 31.9684 10.5196 31.9809C10.5196 31.9934 10.5409 32.0037 10.567 32.0037C10.5931 32.0037 10.6144 32.0139 10.6144 32.0265C10.6144 32.039 10.6357 32.0492 10.6618 32.0492C10.6878 32.0492 10.7092 32.0595 10.7092 32.072C10.7092 32.0846 10.7305 32.0948 10.7565 32.0948C10.7826 32.0948 10.8039 32.1051 10.8039 32.1176C10.8039 32.1301 10.8252 32.1404 10.8513 32.1404C10.8774 32.1404 10.8987 32.1506 10.8987 32.1632C10.8987 32.1757 10.92 32.1859 10.9461 32.1859C10.9721 32.1859 10.9935 32.1962 10.9935 32.2087C10.9935 32.2213 11.0148 32.2315 11.0408 32.2315C11.0669 32.2315 11.0882 32.2418 11.0882 32.2543C11.0882 32.2668 11.1202 32.2771 11.1593 32.2771C11.1984 32.2771 11.2304 32.2873 11.2304 32.2999C11.2304 32.3124 11.2517 32.3226 11.2778 32.3226C11.3038 32.3226 11.3252 32.3329 11.3252 32.3454C11.3252 32.358 11.3571 32.3682 11.3962 32.3682C11.4353 32.3682 11.4673 32.3785 11.4673 32.391C11.4673 32.4035 11.4993 32.4138 11.5384 32.4138C11.5775 32.4138 11.6095 32.424 11.6095 32.4366C11.6095 32.4491 11.6521 32.4593 11.7042 32.4593C11.7564 32.4593 11.799 32.4696 11.799 32.4821C11.799 32.4947 11.8417 32.5049 11.8938 32.5049C11.9459 32.5049 11.9886 32.5152 11.9886 32.5277C11.9886 32.5402 12.0419 32.5505 12.107 32.5505C12.1722 32.5505 12.2255 32.5607 12.2255 32.5733C12.2255 32.5863 12.2966 32.596 12.3913 32.596C12.4861 32.596 12.5572 32.6058 12.5572 32.6188C12.5572 32.6335 12.7862 32.6416 13.1969 32.6416C13.6076 32.6416 13.8366 32.6335 13.8366 32.6188C13.8366 32.6058 13.9077 32.596 14.0025 32.596C14.0972 32.596 14.1683 32.5863 14.1683 32.5733C14.1683 32.5607 14.2216 32.5505 14.2868 32.5505C14.3519 32.5505 14.4052 32.5402 14.4052 32.5277C14.4052 32.5152 14.4479 32.5049 14.5 32.5049C14.5521 32.5049 14.5948 32.4947 14.5948 32.4821C14.5948 32.4696 14.6374 32.4593 14.6895 32.4593C14.7417 32.4593 14.7843 32.4491 14.7843 32.4366C14.7843 32.424 14.8163 32.4138 14.8554 32.4138C14.8945 32.4138 14.9265 32.4035 14.9265 32.391C14.9265 32.3785 14.9585 32.3682 14.9975 32.3682C15.0366 32.3682 15.0686 32.358 15.0686 32.3454C15.0686 32.3329 15.09 32.3226 15.116 32.3226C15.1421 32.3226 15.1634 32.3124 15.1634 32.2999C15.1634 32.2873 15.1954 32.2771 15.2345 32.2771C15.2736 32.2771 15.3056 32.2668 15.3056 32.2543C15.3056 32.2418 15.3269 32.2315 15.3529 32.2315C15.379 32.2315 15.4003 32.2213 15.4003 32.2087C15.4003 32.1962 15.4216 32.1859 15.4477 32.1859C15.4738 32.1859 15.4951 32.1757 15.4951 32.1632C15.4951 32.1506 15.5164 32.1404 15.5425 32.1404C15.5685 32.1404 15.5899 32.1301 15.5899 32.1176C15.5899 32.1051 15.6112 32.0948 15.6373 32.0948C15.6633 32.0948 15.6846 32.0846 15.6846 32.072C15.6846 32.0595 15.706 32.0492 15.732 32.0492C15.7581 32.0492 15.7794 32.039 15.7794 32.0265C15.7794 32.0139 15.8007 32.0037 15.8268 32.0037C15.8529 32.0037 15.8742 31.9934 15.8742 31.9809C15.8742 31.9684 15.8955 31.9581 15.9216 31.9581C15.9476 31.9581 15.969 31.9479 15.969 31.9353C15.969 31.9228 15.9879 31.9126 16.0111 31.9126C16.0343 31.9126 16.0686 31.892 16.0874 31.867C16.1062 31.8419 16.1363 31.8214 16.1542 31.8214C16.1722 31.8214 16.2168 31.7907 16.2533 31.7531C16.2898 31.7155 16.3324 31.6847 16.348 31.6847C16.3637 31.6847 16.4063 31.654 16.4428 31.6164C16.4793 31.5788 16.5218 31.548 16.5371 31.548C16.5524 31.548 16.606 31.507 16.656 31.4569C16.7061 31.4068 16.7587 31.3658 16.7729 31.3658C16.8064 31.3658 17.2958 30.8955 17.2958 30.8633C17.2958 30.8498 17.3491 30.7889 17.4142 30.7278C17.4794 30.6668 17.5327 30.6031 17.5327 30.5862C17.5327 30.5694 17.554 30.5408 17.5801 30.5228C17.6061 30.5047 17.6275 30.4758 17.6275 30.4585C17.6275 30.4413 17.6594 30.3984 17.6985 30.3633C17.7376 30.3282 17.7696 30.2831 17.7696 30.263C17.7696 30.243 17.7803 30.2266 17.7933 30.2266C17.8063 30.2266 17.817 30.2083 17.817 30.1861C17.817 30.1638 17.8383 30.1307 17.8644 30.1127C17.8904 30.0946 17.9118 30.0616 17.9118 30.0393C17.9118 30.017 17.9224 29.9988 17.9355 29.9988C17.9485 29.9988 17.9592 29.9805 17.9592 29.9582C17.9592 29.9359 17.9805 29.9029 18.0065 29.8848C18.0326 29.8668 18.0539 29.8338 18.0539 29.8115C18.0539 29.7892 18.0646 29.7709 18.0776 29.7709C18.0906 29.7709 18.1013 29.7504 18.1013 29.7254C18.1013 29.7003 18.112 29.6798 18.125 29.6798C18.138 29.6798 18.1487 29.6593 18.1487 29.6342C18.1487 29.6092 18.1594 29.5887 18.1724 29.5887C18.1854 29.5887 18.1961 29.5579 18.1961 29.5203C18.1961 29.4827 18.2067 29.452 18.2198 29.452C18.2328 29.452 18.2435 29.4315 18.2435 29.4064C18.2435 29.3813 18.2541 29.3608 18.2672 29.3608C18.2802 29.3608 18.2908 29.3301 18.2908 29.2925C18.2908 29.2549 18.3015 29.2241 18.3145 29.2241C18.3276 29.2241 18.3382 29.2036 18.3382 29.1786C18.3382 29.1535 18.3489 29.133 18.3619 29.133C18.375 29.133 18.3856 29.1022 18.3856 29.0646C18.3856 29.0271 18.3963 28.9963 18.4093 28.9963C18.4223 28.9963 18.433 28.9553 18.433 28.9052C18.433 28.855 18.4437 28.814 18.4567 28.814C18.4697 28.814 18.4804 28.773 18.4804 28.7229C18.4804 28.6728 18.4911 28.6318 18.5041 28.6318C18.5173 28.6318 18.5278 28.571 18.5278 28.4951C18.5278 28.4191 18.5383 28.3584 18.5515 28.3584C18.565 28.3584 18.5752 28.29 18.5752 28.1989C18.5752 28.1077 18.5853 28.0394 18.5989 28.0394C18.6141 28.0394 18.6225 27.8192 18.6225 27.4243C18.6225 27.0294 18.6141 26.8091 18.5989 26.8091C18.5853 26.8091 18.5752 26.7408 18.5752 26.6496C18.5752 26.5585 18.565 26.4901 18.5515 26.4901C18.5383 26.4901 18.5278 26.4294 18.5278 26.3534C18.5278 26.2775 18.5173 26.2167 18.5041 26.2167C18.4911 26.2167 18.4804 26.1757 18.4804 26.1256C18.4804 26.0755 18.4697 26.0345 18.4567 26.0345C18.4437 26.0345 18.433 26.0037 18.433 25.9661C18.433 25.9285 18.4223 25.8978 18.4093 25.8978C18.3963 25.8978 18.3856 25.867 18.3856 25.8294C18.3856 25.7918 18.375 25.7611 18.3619 25.7611C18.3489 25.7611 18.3382 25.7303 18.3382 25.6927C18.3382 25.6551 18.3276 25.6244 18.3145 25.6244C18.3015 25.6244 18.2908 25.6039 18.2908 25.5788C18.2908 25.5537 18.2802 25.5332 18.2672 25.5332C18.2541 25.5332 18.2435 25.5025 18.2435 25.4649C18.2435 25.4273 18.2328 25.3965 18.2198 25.3965C18.2067 25.3965 18.1961 25.376 18.1961 25.351C18.1961 25.3259 18.1854 25.3054 18.1724 25.3054C18.1594 25.3054 18.1487 25.2849 18.1487 25.2598C18.1487 25.2348 18.138 25.2143 18.125 25.2143C18.112 25.2143 18.1013 25.1938 18.1013 25.1687C18.1013 25.1437 18.0906 25.1231 18.0776 25.1231C18.0646 25.1231 18.0539 25.1049 18.0539 25.0826C18.0539 25.0603 18.0326 25.0273 18.0065 25.0092C17.9805 24.9912 17.9592 24.9582 17.9592 24.9358C17.9592 24.9136 17.9485 24.8953 17.9355 24.8953C17.9224 24.8953 17.9118 24.8748 17.9118 24.8497C17.9118 24.8247 17.9011 24.8042 17.8881 24.8042C17.875 24.8042 17.8644 24.7859 17.8644 24.7636C17.8644 24.7413 17.8431 24.7083 17.817 24.6903C17.7909 24.6722 17.7696 24.6414 17.7696 24.6219C17.7696 24.6024 17.7483 24.5716 17.7222 24.5536C17.6962 24.5355 17.6748 24.5066 17.6748 24.4893C17.6748 24.4721 17.6429 24.4292 17.6038 24.3941C17.5647 24.359 17.5327 24.3182 17.5327 24.3034C17.5327 24.2887 17.49 24.2372 17.4379 24.189C17.3858 24.1409 17.3431 24.0903 17.3431 24.0767C17.3431 24.0443 16.7118 23.4372 16.6781 23.4372C16.6639 23.4372 16.6114 23.3962 16.5613 23.3461C16.5112 23.2959 16.4557 23.2549 16.438 23.2549C16.4203 23.2549 16.3905 23.2344 16.3717 23.2094C16.3529 23.1843 16.321 23.1638 16.3007 23.1638C16.2803 23.1638 16.2484 23.1433 16.2296 23.1182C16.2108 23.0932 16.1788 23.0727 16.1585 23.0727C16.1382 23.0727 16.1062 23.0521 16.0874 23.0271C16.0686 23.002 16.0343 22.9815 16.0111 22.9815C15.9879 22.9815 15.969 22.9713 15.969 22.9587C15.969 22.9462 15.95 22.936 15.9268 22.936C15.9036 22.936 15.8693 22.9154 15.8505 22.8904C15.8317 22.8653 15.7974 22.8448 15.7742 22.8448C15.751 22.8448 15.732 22.8346 15.732 22.822C15.732 22.8095 15.7107 22.7993 15.6846 22.7993C15.6586 22.7993 15.6373 22.789 15.6373 22.7765C15.6373 22.7639 15.6159 22.7537 15.5899 22.7537C15.5638 22.7537 15.5425 22.7434 15.5425 22.7309C15.5425 22.7184 15.5212 22.7081 15.4951 22.7081C15.469 22.7081 15.4477 22.6979 15.4477 22.6853C15.4477 22.6728 15.4157 22.6626 15.3766 22.6626C15.3375 22.6626 15.3056 22.6523 15.3056 22.6398C15.3056 22.6272 15.2842 22.617 15.2582 22.617C15.2321 22.617 15.2108 22.6067 15.2108 22.5942C15.2108 22.5817 15.1788 22.5714 15.1397 22.5714C15.1006 22.5714 15.0686 22.5612 15.0686 22.5486C15.0686 22.5361 15.0366 22.5259 14.9975 22.5259C14.9585 22.5259 14.9265 22.5156 14.9265 22.5031C14.9265 22.4905 14.8945 22.4803 14.8554 22.4803C14.8163 22.4803 14.7843 22.47 14.7843 22.4575C14.7843 22.445 14.7417 22.4347 14.6895 22.4347C14.6374 22.4347 14.5948 22.4245 14.5948 22.4119C14.5948 22.3994 14.5521 22.3892 14.5 22.3892C14.4479 22.3892 14.4052 22.3789 14.4052 22.3664C14.4052 22.3538 14.3626 22.3436 14.3105 22.3436C14.2583 22.3436 14.2157 22.3333 14.2157 22.3208C14.2157 22.3078 14.1446 22.298 14.0498 22.298C13.9551 22.298 13.884 22.2882 13.884 22.2752C13.884 22.2606 13.6471 22.2525 13.2206 22.2525C12.7941 22.2525 12.5572 22.2606 12.5572 22.2752Z" fill="#492979"/>
</svg>
