<svg width="232" height="219" viewBox="0 0 232 219" fill="none" xmlns="http://www.w3.org/2000/svg">
<path fill-rule="evenodd" clip-rule="evenodd" d="M106.72 5.32603C104.827 5.49483 102.454 5.80171 101.001 6.06547C85.0573 8.95932 71.5197 18.754 63.7197 33.0384C62.824 34.6791 62.7091 35.031 62.9811 35.3029C63.3941 35.7158 63.6786 35.4501 65.2432 33.1903C65.7495 32.4591 66.6007 31.3124 67.1346 30.6422C68.4279 29.019 72.0095 25.4506 73.7106 24.0906C75.4118 22.7304 78.482 20.6874 80.3377 19.6808C93.335 12.6308 108.918 12.4201 122.012 19.1175C132.6 24.5335 140.428 33.7657 144.135 45.2099C148.68 59.2442 145.753 73.201 136.158 83.248C130.542 89.1292 122.827 92.9743 114.552 94.0173C112.611 94.262 107.541 94.223 105.663 93.9489C100.024 93.1262 95.1795 91.3163 90.6813 88.3524C83.5821 83.6744 78.3336 76.6079 75.9436 68.5093C75.4415 66.8077 75.3588 66.6503 74.968 66.6503C74.7824 66.6503 72.7763 68.5769 68.3318 73.0233C62.2397 79.1181 61.9616 79.4161 61.9616 79.8518C61.9616 80.7388 64.7681 85.8453 66.934 88.8993C69.0912 91.9409 71.6384 94.7168 79.8622 102.989C86.5914 109.757 93.4263 116.44 101.063 123.716C107.884 130.217 108.828 131.091 109.3 131.342C109.859 131.639 110.852 131.652 111.399 131.37C111.793 131.166 114.013 129.099 120.955 122.469C134.614 109.426 145.611 98.4502 150.232 93.2496C152.102 91.1455 152.971 90.0379 154.328 88.0292C162.112 76.5091 165.085 62.4884 162.658 48.7517C161.198 40.4907 157.318 32.1315 151.626 24.9824C149.939 22.8638 145.793 18.7185 143.674 17.0321C136.667 11.4564 128.835 7.8035 120.415 6.18442C116.916 5.51161 115.248 5.35524 111.133 5.31448C109.013 5.29335 107.027 5.29857 106.72 5.32603ZM107.457 38.6175C103.496 39.264 100.14 40.8245 97.2387 43.3691C94.027 46.1858 91.7171 50.1749 90.78 54.5234C90.416 56.2128 90.3895 59.8802 90.7282 61.7262C92.2187 69.8529 98.2473 76.0532 106.409 77.8535C107.885 78.1791 111.101 78.299 112.767 78.0905C118.787 77.337 123.989 74.0019 127.267 68.7937C129.256 65.6337 130.247 62.1332 130.248 58.2604C130.248 54.6703 129.494 51.7616 127.77 48.7045C124.893 43.604 120.041 40.0299 114.323 38.7985C112.747 38.4589 109.028 38.361 107.457 38.6175Z" fill="#4B1C7C"/>
<path d="M171.39 0V1.39615H168.612V10.4336H166.899V1.39615H164.106V0H171.39Z" fill="#4B1C7C"/>
<path d="M184.013 0V10.4336H182.3V3.2877L179.116 10.4336H177.93L174.731 3.2877V10.4336H173.019V0H174.866L178.531 8.18173L182.18 0H184.013Z" fill="#4B1C7C"/>
<path d="M25.6934 195.472L10.795 175.91V195.472H0V151.174H10.795V170.61L25.5672 151.174H38.2561L21.085 172.881L38.8874 195.472H25.6934Z" fill="#4B1C7C"/>
<path d="M77.2233 177.298C77.2233 178.308 77.1602 179.36 77.034 180.454H52.6031C52.7714 182.641 53.4659 184.324 54.6863 185.502C55.9489 186.638 57.4851 187.205 59.2948 187.205C61.9883 187.205 63.8611 186.07 64.9132 183.798H76.4027C75.8135 186.112 74.7403 188.194 73.1831 190.045C71.668 191.896 69.7531 193.347 67.4384 194.399C65.1237 195.451 62.5354 195.977 59.6735 195.977C56.2225 195.977 53.1502 195.24 50.4567 193.768C47.7632 192.296 45.6589 190.192 44.1438 187.458C42.6287 184.723 41.8712 181.526 41.8712 177.866C41.8712 174.206 42.6077 171.009 44.0807 168.275C45.5958 165.54 47.7001 163.437 50.3936 161.965C53.0871 160.492 56.1804 159.756 59.6735 159.756C63.0825 159.756 66.1127 160.471 68.7641 161.902C71.4155 163.332 73.4777 165.372 74.9507 168.022C76.4658 170.673 77.2233 173.765 77.2233 177.298ZM66.1758 174.459C66.1758 172.608 65.5445 171.136 64.2819 170.042C63.0194 168.948 61.4411 168.401 59.5473 168.401C57.7376 168.401 56.2014 168.927 54.9389 169.979C53.7184 171.03 52.9608 172.524 52.6662 174.459H66.1758Z" fill="#4B1C7C"/>
<path d="M127.866 159.882C132.243 159.882 135.715 161.207 138.282 163.858C140.892 166.508 142.196 170.189 142.196 174.901V195.472H131.464V176.352C131.464 174.08 130.854 172.334 129.634 171.114C128.455 169.852 126.814 169.221 124.71 169.221C122.605 169.221 120.943 169.852 119.722 171.114C118.544 172.334 117.955 174.08 117.955 176.352V195.472H107.223V176.352C107.223 174.08 106.613 172.334 105.392 171.114C104.214 169.852 102.572 169.221 100.468 169.221C98.3638 169.221 96.7014 169.852 95.4809 171.114C94.3025 172.334 93.7133 174.08 93.7133 176.352V195.472H82.9183V160.261H93.7133V164.678C94.8075 163.206 96.2384 162.049 98.0061 161.207C99.7737 160.324 101.773 159.882 104.003 159.882C106.655 159.882 109.012 160.45 111.074 161.586C113.178 162.722 114.819 164.342 115.998 166.445C117.218 164.51 118.881 162.932 120.985 161.712C123.089 160.492 125.383 159.882 127.866 159.882Z" fill="#4B1C7C"/>
<path d="M189.391 195.472H178.596L160.541 168.149V195.472H149.746V151.174H160.541L178.596 178.624V151.174H189.391V195.472Z" fill="#4B1C7C"/>
<path d="M232 160.261V195.472H221.205V190.676C220.111 192.233 218.617 193.495 216.723 194.462C214.871 195.388 212.809 195.85 210.536 195.85C207.843 195.85 205.465 195.262 203.403 194.084C201.34 192.864 199.741 191.118 198.605 188.846C197.469 186.574 196.9 183.903 196.9 180.832V160.261H207.632V179.381C207.632 181.737 208.242 183.567 209.463 184.871C210.683 186.175 212.325 186.827 214.387 186.827C216.491 186.827 218.154 186.175 219.374 184.871C220.595 183.567 221.205 181.737 221.205 179.381V160.261H232Z" fill="#4B1C7C"/>
<path d="M5.91747 202.652C7.16778 202.652 8.26039 202.899 9.19531 203.395C10.1302 203.89 10.8511 204.588 11.358 205.489C11.8761 206.378 12.1352 207.409 12.1352 208.58C12.1352 209.739 11.8761 210.769 11.358 211.67C10.8511 212.571 10.1246 213.269 9.17841 213.764C8.2435 214.26 7.15652 214.508 5.91747 214.508H1.47381V202.652H5.91747ZM5.73161 212.008C6.82423 212.008 7.67466 211.71 8.28292 211.113C8.89118 210.516 9.19531 209.672 9.19531 208.58C9.19531 207.487 8.89118 206.637 8.28292 206.029C7.67466 205.421 6.82423 205.117 5.73161 205.117H4.36303V212.008H5.73161Z" fill="#4B1C7C"/>
<path d="M15.0978 204.104C14.591 204.104 14.1742 203.958 13.8475 203.665C13.5321 203.361 13.3744 202.989 13.3744 202.55C13.3744 202.1 13.5321 201.728 13.8475 201.436C14.1742 201.132 14.591 200.98 15.0978 200.98C15.5935 200.98 15.999 201.132 16.3144 201.436C16.641 201.728 16.8043 202.1 16.8043 202.55C16.8043 202.989 16.641 203.361 16.3144 203.665C15.999 203.958 15.5935 204.104 15.0978 204.104ZM16.534 205.084V214.508H13.6448V205.084H16.534Z" fill="#4B1C7C"/>
<path d="M22.3581 214.643C21.5359 214.643 20.8037 214.502 20.1617 214.22C19.5196 213.939 19.0127 213.556 18.641 213.072C18.2693 212.577 18.0609 212.025 18.0159 211.417H20.8713C20.9051 211.743 21.0571 212.008 21.3275 212.211C21.5978 212.413 21.9301 212.515 22.3243 212.515C22.6848 212.515 22.9608 212.447 23.1523 212.312C23.355 212.166 23.4564 211.98 23.4564 211.755C23.4564 211.484 23.3156 211.287 23.034 211.164C22.7524 211.028 22.2962 210.882 21.6654 210.724C20.9896 210.567 20.4264 210.404 19.9758 210.235C19.5252 210.055 19.1366 209.779 18.81 209.407C18.4833 209.024 18.32 208.512 18.32 207.87C18.32 207.33 18.4664 206.84 18.7593 206.401C19.0634 205.951 19.5027 205.596 20.0772 205.337C20.6629 205.078 21.3556 204.948 22.1554 204.948C23.3381 204.948 24.2674 205.241 24.9432 205.827C25.6303 206.412 26.0246 207.189 26.126 208.157H23.4564C23.4113 207.831 23.2649 207.572 23.0171 207.38C22.7805 207.189 22.4651 207.093 22.0709 207.093C21.733 207.093 21.4739 207.161 21.2937 207.296C21.1135 207.42 21.0234 207.594 21.0234 207.82C21.0234 208.09 21.1642 208.292 21.4458 208.428C21.7386 208.563 22.1892 208.698 22.7974 208.833C23.4958 209.013 24.0646 209.193 24.5039 209.373C24.9432 209.542 25.3262 209.824 25.6529 210.218C25.9908 210.601 26.1654 211.119 26.1767 211.772C26.1767 212.323 26.019 212.819 25.7036 213.258C25.3994 213.686 24.9545 214.023 24.3688 214.271C23.7943 214.519 23.1241 214.643 22.3581 214.643Z" fill="#4B1C7C"/>
<path d="M27.2647 209.796C27.2647 208.816 27.4619 207.96 27.8561 207.228C28.2616 206.497 28.8192 205.934 29.5288 205.54C30.2497 205.145 31.072 204.948 31.9956 204.948C33.1784 204.948 34.164 205.258 34.9524 205.877C35.7522 206.497 36.276 207.369 36.5238 208.495H33.4487C33.1896 207.775 32.6884 207.414 31.9449 207.414C31.4155 207.414 30.9931 207.623 30.6777 208.039C30.3623 208.444 30.2047 209.03 30.2047 209.796C30.2047 210.561 30.3623 211.152 30.6777 211.569C30.9931 211.974 31.4155 212.177 31.9449 212.177C32.6884 212.177 33.1896 211.817 33.4487 211.096H36.5238C36.276 212.199 35.7522 213.066 34.9524 213.697C34.1527 214.327 33.1671 214.643 31.9956 214.643C31.072 214.643 30.2497 214.446 29.5288 214.052C28.8192 213.657 28.2616 213.095 27.8561 212.363C27.4619 211.631 27.2647 210.775 27.2647 209.796Z" fill="#4B1C7C"/>
<path d="M42.2558 214.643C41.3321 214.643 40.4986 214.446 39.7552 214.052C39.023 213.657 38.4429 213.095 38.0149 212.363C37.5981 211.631 37.3897 210.775 37.3897 209.796C37.3897 208.827 37.6037 207.977 38.0318 207.245C38.4598 206.502 39.0455 205.934 39.7889 205.54C40.5324 205.145 41.3659 204.948 42.2896 204.948C43.2132 204.948 44.0468 205.145 44.7902 205.54C45.5336 205.934 46.1193 206.502 46.5474 207.245C46.9754 207.977 47.1894 208.827 47.1894 209.796C47.1894 210.764 46.9698 211.62 46.5305 212.363C46.1024 213.095 45.5111 213.657 44.7564 214.052C44.013 214.446 43.1794 214.643 42.2558 214.643ZM42.2558 212.143C42.8077 212.143 43.2752 211.94 43.6581 211.535C44.0524 211.13 44.2495 210.55 44.2495 209.796C44.2495 209.041 44.058 208.461 43.675 208.056C43.3033 207.651 42.8415 207.448 42.2896 207.448C41.7264 207.448 41.2589 207.651 40.8872 208.056C40.5155 208.45 40.3296 209.03 40.3296 209.796C40.3296 210.55 40.5098 211.13 40.8703 211.535C41.242 211.94 41.7038 212.143 42.2558 212.143Z" fill="#4B1C7C"/>
<path d="M52.8581 211.805L54.9025 205.084H57.9776L54.6321 214.508H51.0671L47.7217 205.084H50.8136L52.8581 211.805Z" fill="#4B1C7C"/>
<path d="M67.9759 209.644C67.9759 209.914 67.959 210.195 67.9253 210.488H61.3865C61.4315 211.073 61.6174 211.524 61.944 211.839C62.282 212.143 62.6931 212.295 63.1775 212.295C63.8984 212.295 64.3996 211.991 64.6812 211.383H67.7563C67.5986 212.002 67.3114 212.56 66.8946 213.055C66.4891 213.551 65.9766 213.939 65.357 214.22C64.7375 214.502 64.0448 214.643 63.2788 214.643C62.3552 214.643 61.5329 214.446 60.812 214.052C60.0911 213.657 59.5279 213.095 59.1224 212.363C58.7169 211.631 58.5141 210.775 58.5141 209.796C58.5141 208.816 58.7113 207.96 59.1055 207.228C59.511 206.497 60.0742 205.934 60.7951 205.54C61.516 205.145 62.3439 204.948 63.2788 204.948C64.1912 204.948 65.0022 205.14 65.7119 205.523C66.4215 205.905 66.9734 206.452 67.3677 207.161C67.7732 207.87 67.9759 208.698 67.9759 209.644ZM65.0191 208.884C65.0191 208.388 64.8502 207.994 64.5122 207.701C64.1743 207.409 63.7519 207.262 63.245 207.262C62.7607 207.262 62.3496 207.403 62.0116 207.684C61.685 207.966 61.4822 208.366 61.4034 208.884H65.0191Z" fill="#4B1C7C"/>
<path d="M72.2843 206.654C72.6222 206.136 73.0446 205.731 73.5515 205.438C74.0584 205.134 74.6216 204.982 75.2411 204.982V208.039H74.447C73.7261 208.039 73.1854 208.197 72.825 208.512C72.4645 208.816 72.2843 209.356 72.2843 210.133V214.508H69.3951V205.084H72.2843V206.654Z" fill="#4B1C7C"/>
<path d="M86.0799 208.643C86.0799 209.421 85.4495 210.051 84.6719 210.051C83.8943 210.051 83.2639 209.421 83.2639 208.643C83.2639 207.866 83.8943 207.236 84.6719 207.236C85.4495 207.236 86.0799 207.866 86.0799 208.643Z" fill="#4B1C7C"/>
<path d="M94.1468 208.563C94.1468 207.392 94.4003 206.35 94.9071 205.438C95.414 204.515 96.118 203.8 97.0192 203.293C97.9315 202.775 98.9622 202.516 100.111 202.516C101.519 202.516 102.724 202.888 103.727 203.631C104.729 204.374 105.4 205.388 105.738 206.671H102.561C102.325 206.176 101.987 205.799 101.547 205.54C101.119 205.281 100.629 205.151 100.077 205.151C99.1875 205.151 98.4666 205.461 97.9146 206.08C97.3627 206.699 97.0867 207.527 97.0867 208.563C97.0867 209.599 97.3627 210.426 97.9146 211.045C98.4666 211.665 99.1875 211.974 100.077 211.974C100.629 211.974 101.119 211.845 101.547 211.586C101.987 211.327 102.325 210.95 102.561 210.454H105.738C105.4 211.738 104.729 212.751 103.727 213.494C102.724 214.226 101.519 214.592 100.111 214.592C98.9622 214.592 97.9315 214.339 97.0192 213.832C96.118 213.314 95.414 212.599 94.9071 211.687C94.4003 210.775 94.1468 209.734 94.1468 208.563Z" fill="#4B1C7C"/>
<path d="M111.693 214.643C110.77 214.643 109.936 214.446 109.193 214.052C108.461 213.657 107.881 213.095 107.452 212.363C107.036 211.631 106.827 210.775 106.827 209.796C106.827 208.827 107.041 207.977 107.469 207.245C107.897 206.502 108.483 205.934 109.227 205.54C109.97 205.145 110.804 204.948 111.727 204.948C112.651 204.948 113.484 205.145 114.228 205.54C114.971 205.934 115.557 206.502 115.985 207.245C116.413 207.977 116.627 208.827 116.627 209.796C116.627 210.764 116.407 211.62 115.968 212.363C115.54 213.095 114.949 213.657 114.194 214.052C113.451 214.446 112.617 214.643 111.693 214.643ZM111.693 212.143C112.245 212.143 112.713 211.94 113.096 211.535C113.49 211.13 113.687 210.55 113.687 209.796C113.687 209.041 113.496 208.461 113.113 208.056C112.741 207.651 112.279 207.448 111.727 207.448C111.164 207.448 110.697 207.651 110.325 208.056C109.953 208.45 109.767 209.03 109.767 209.796C109.767 210.55 109.947 211.13 110.308 211.535C110.68 211.94 111.141 212.143 111.693 212.143Z" fill="#4B1C7C"/>
<path d="M123.799 204.982C124.903 204.982 125.782 205.343 126.435 206.063C127.1 206.772 127.432 207.752 127.432 209.002V214.508H124.56V209.39C124.56 208.76 124.396 208.27 124.07 207.921C123.743 207.572 123.304 207.397 122.752 207.397C122.2 207.397 121.761 207.572 121.434 207.921C121.107 208.27 120.944 208.76 120.944 209.39V214.508H118.055V205.084H120.944V206.333C121.237 205.917 121.631 205.59 122.127 205.354C122.622 205.106 123.18 204.982 123.799 204.982Z" fill="#4B1C7C"/>
<path d="M135.079 204.982C136.183 204.982 137.062 205.343 137.715 206.063C138.38 206.772 138.712 207.752 138.712 209.002V214.508H135.84V209.39C135.84 208.76 135.676 208.27 135.35 207.921C135.023 207.572 134.584 207.397 134.032 207.397C133.48 207.397 133.041 207.572 132.714 207.921C132.387 208.27 132.224 208.76 132.224 209.39V214.508H129.335V205.084H132.224V206.333C132.517 205.917 132.911 205.59 133.407 205.354C133.902 205.106 134.46 204.982 135.079 204.982Z" fill="#4B1C7C"/>
<path d="M149.502 209.644C149.502 209.914 149.485 210.195 149.451 210.488H142.913C142.958 211.073 143.143 211.524 143.47 211.839C143.808 212.143 144.219 212.295 144.704 212.295C145.424 212.295 145.926 211.991 146.207 211.383H149.282C149.125 212.002 148.837 212.56 148.421 213.055C148.015 213.551 147.503 213.939 146.883 214.22C146.264 214.502 145.571 214.643 144.805 214.643C143.881 214.643 143.059 214.446 142.338 214.052C141.617 213.657 141.054 213.095 140.648 212.363C140.243 211.631 140.04 210.775 140.04 209.796C140.04 208.816 140.237 207.96 140.632 207.228C141.037 206.497 141.6 205.934 142.321 205.54C143.042 205.145 143.87 204.948 144.805 204.948C145.717 204.948 146.528 205.14 147.238 205.523C147.948 205.905 148.5 206.452 148.894 207.161C149.299 207.87 149.502 208.698 149.502 209.644ZM146.545 208.884C146.545 208.388 146.376 207.994 146.038 207.701C145.7 207.409 145.278 207.262 144.771 207.262C144.287 207.262 143.876 207.403 143.538 207.684C143.211 207.966 143.008 208.366 142.929 208.884H146.545Z" fill="#4B1C7C"/>
<path d="M150.347 209.796C150.347 208.816 150.544 207.96 150.938 207.228C151.344 206.497 151.901 205.934 152.611 205.54C153.332 205.145 154.154 204.948 155.078 204.948C156.26 204.948 157.246 205.258 158.034 205.877C158.834 206.497 159.358 207.369 159.606 208.495H156.531C156.272 207.775 155.77 207.414 155.027 207.414C154.498 207.414 154.075 207.623 153.76 208.039C153.444 208.444 153.287 209.03 153.287 209.796C153.287 210.561 153.444 211.152 153.76 211.569C154.075 211.974 154.498 212.177 155.027 212.177C155.77 212.177 156.272 211.817 156.531 211.096H159.606C159.358 212.199 158.834 213.066 158.034 213.697C157.235 214.327 156.249 214.643 155.078 214.643C154.154 214.643 153.332 214.446 152.611 214.052C151.901 213.657 151.344 213.095 150.938 212.363C150.544 211.631 150.347 210.775 150.347 209.796Z" fill="#4B1C7C"/>
<path d="M166.301 212.059V214.508H164.831C163.783 214.508 162.967 214.254 162.381 213.748C161.795 213.23 161.502 212.391 161.502 211.231V207.482H160.353V205.084H161.502V202.787H164.392V205.084H166.284V207.482H164.392V211.265C164.392 211.546 164.459 211.749 164.594 211.873C164.729 211.997 164.955 212.059 165.27 212.059H166.301Z" fill="#4B1C7C"/>
<path d="M177.366 208.643C177.366 209.421 176.735 210.051 175.958 210.051C175.18 210.051 174.55 209.421 174.55 208.643C174.55 207.866 175.18 207.236 175.958 207.236C176.735 207.236 177.366 207.866 177.366 208.643Z" fill="#4B1C7C"/>
<path d="M188.812 204.965V207.364H192.681V209.593H188.812V212.194H193.188V214.508H185.922V202.652H193.188V204.965H188.812Z" fill="#4B1C7C"/>
<path d="M200.703 204.982C201.807 204.982 202.686 205.343 203.339 206.063C204.003 206.772 204.336 207.752 204.336 209.002V214.508H201.463V209.39C201.463 208.76 201.3 208.27 200.973 207.921C200.647 207.572 200.207 207.397 199.656 207.397C199.104 207.397 198.664 207.572 198.338 207.921C198.011 208.27 197.848 208.76 197.848 209.39V214.508H194.958V205.084H197.848V206.333C198.141 205.917 198.535 205.59 199.03 205.354C199.526 205.106 200.084 204.982 200.703 204.982Z" fill="#4B1C7C"/>
<path d="M207.675 204.104C207.168 204.104 206.751 203.958 206.424 203.665C206.109 203.361 205.951 202.989 205.951 202.55C205.951 202.1 206.109 201.728 206.424 201.436C206.751 201.132 207.168 200.98 207.675 200.98C208.17 200.98 208.576 201.132 208.891 201.436C209.218 201.728 209.381 202.1 209.381 202.55C209.381 202.989 209.218 203.361 208.891 203.665C208.576 203.958 208.17 204.104 207.675 204.104ZM209.128 215.724C209.128 216.883 208.835 217.716 208.249 218.223C207.663 218.741 206.847 219 205.799 219H204.667V216.551H205.36C205.675 216.551 205.9 216.489 206.036 216.365C206.171 216.241 206.238 216.039 206.238 215.757V205.084H209.128V215.724Z" fill="#4B1C7C"/>
<path d="M215.391 214.643C214.468 214.643 213.634 214.446 212.891 214.052C212.159 213.657 211.579 213.095 211.151 212.363C210.734 211.631 210.525 210.775 210.525 209.796C210.525 208.827 210.739 207.977 211.167 207.245C211.595 206.502 212.181 205.934 212.925 205.54C213.668 205.145 214.502 204.948 215.425 204.948C216.349 204.948 217.182 205.145 217.926 205.54C218.669 205.934 219.255 206.502 219.683 207.245C220.111 207.977 220.325 208.827 220.325 209.796C220.325 210.764 220.105 211.62 219.666 212.363C219.238 213.095 218.647 213.657 217.892 214.052C217.149 214.446 216.315 214.643 215.391 214.643ZM215.391 212.143C215.943 212.143 216.411 211.94 216.794 211.535C217.188 211.13 217.385 210.55 217.385 209.796C217.385 209.041 217.194 208.461 216.811 208.056C216.439 207.651 215.977 207.448 215.425 207.448C214.862 207.448 214.395 207.651 214.023 208.056C213.651 208.45 213.465 209.03 213.465 209.796C213.465 210.55 213.646 211.13 214.006 211.535C214.378 211.94 214.84 212.143 215.391 212.143Z" fill="#4B1C7C"/>
<path d="M231.384 205.084L225.47 218.983H222.361L224.524 214.187L220.688 205.084H223.916L226.095 210.978L228.258 205.084H231.384Z" fill="#4B1C7C"/>
</svg>
