<svg width="706" height="478" viewBox="0 0 706 478" fill="none" xmlns="http://www.w3.org/2000/svg">
<path d="M472.137 210.052C472.137 210.052 521.015 214.86 545.786 245C545.786 245 571.953 210.087 618.96 210.8C630.449 197.018 637.765 180.274 640.056 162.517C642.347 144.76 639.519 126.721 631.902 110.501C624.284 94.2804 612.191 80.5462 597.029 70.8976C581.868 61.2489 564.262 56.0829 546.263 56.001C528.264 55.9191 510.612 60.9248 495.362 70.4351C480.113 79.9454 467.893 93.569 460.127 109.719C452.361 125.87 449.367 143.882 451.495 161.659C453.623 179.436 460.784 196.246 472.146 210.132L472.137 210.052Z" fill="#5A3F86" fill-opacity="0.11"/>
<path d="M544.427 80L542.829 477H550.829L544.427 80Z" fill="#737373"/>
<path d="M547.643 217C547.643 217 563.773 187.897 592.829 179C592.829 179 562.18 186.274 546.829 211.341L547.643 217Z" fill="#737373"/>
<path d="M547.643 133C547.643 133 563.773 103.888 592.829 95C592.829 95 562.18 102.274 546.829 127.341L547.643 133Z" fill="#737373"/>
<path d="M547.643 175C547.643 175 563.773 145.897 592.829 137C592.829 137 562.18 144.282 546.829 169.341L547.643 175Z" fill="#737373"/>
<path d="M545.021 154C545.021 154 528.883 124.888 499.829 116C499.829 116 530.498 123.274 545.829 148.341L545.021 154Z" fill="#737373"/>
<path d="M545.021 195C545.021 195 528.883 165.897 499.829 157C499.829 157 530.498 164.274 545.829 189.341L545.021 195Z" fill="#737373"/>
<mask id="mask0_10_1540" style="mask-type:alpha" maskUnits="userSpaceOnUse" x="0" y="0" width="706" height="477">
<rect width="706" height="477" fill="#F7E2FF"/>
</mask>
<g mask="url(#mask0_10_1540)">
<path d="M699.322 648.27C719.007 629.098 734.666 604.748 744.535 573.887C759.888 525.887 766 475.118 766 424.834C766 267.058 615.889 112.376 461.536 93.5463C392.809 85.1657 326.095 111.531 274.572 156.149C221.647 201.937 189.251 264.468 126.978 299.897C91.0234 320.381 50.8261 332.449 14.1523 351.638C-56.93 388.811 -97.6486 463.734 -81.469 544.105C-64.4086 628.847 -0.247486 713.786 82.3943 743.73C157.755 770.976 237.826 753.298 313.888 739.36C384.719 726.393 456.251 717.473 527.998 711.52C589.984 706.287 652.707 693.626 699.322 648.27Z" fill="#5A3F86" fill-opacity="0.06"/>
<path d="M699.322 603.27C719.007 584.098 734.666 559.748 744.535 528.887C759.888 480.887 766 430.118 766 379.834C766 222.058 615.889 67.3758 461.536 48.5463C392.809 40.1657 326.095 66.5305 274.572 111.149C221.647 156.937 189.251 219.468 126.978 254.897C91.0234 275.381 50.8261 287.449 14.1523 306.638C-56.93 343.811 -97.6486 418.734 -81.469 499.105C-64.4086 583.847 -0.247486 668.786 82.3943 698.73C157.755 725.976 237.826 708.298 313.888 694.36C384.719 681.393 456.251 672.473 527.998 666.52C589.984 661.287 652.707 648.626 699.322 603.27Z" fill="#5A3F86" fill-opacity="0.06"/>
<path d="M699.322 563.27C719.007 544.098 734.666 519.748 744.535 488.887C759.888 440.887 766 390.118 766 339.834C766 182.058 615.889 27.3758 461.536 8.54631C392.809 0.165662 326.095 26.5305 274.572 71.1494C221.647 116.937 189.251 179.468 126.978 214.897C91.0234 235.381 50.8261 247.449 14.1523 266.638C-56.93 303.811 -97.6486 378.734 -81.469 459.105C-64.4086 543.847 -0.247486 628.786 82.3943 658.73C157.755 685.976 237.826 668.298 313.888 654.36C384.719 641.393 456.251 632.473 527.998 626.52C589.984 621.287 652.707 608.626 699.322 563.27Z" fill="#5A3F86" fill-opacity="0.06"/>
</g>
<path d="M584.479 429.994C582.329 430.325 577.657 428.96 577.647 428.96C577.636 428.96 579.476 426.138 579.611 425.983C581.223 424.092 585.43 421.383 587.994 422.448C588.414 422.636 588.791 422.911 589.098 423.254C589.406 423.597 589.638 424.001 589.779 424.44C589.92 424.879 589.968 425.342 589.919 425.8C589.869 426.258 589.724 426.701 589.493 427.1C588.562 428.847 586.309 429.694 584.479 429.994Z" fill="#5A3F86"/>
<path d="M541.426 421.972C541.426 421.972 541.426 418.623 541.426 418.406C541.726 415.946 543.742 411.367 546.471 410.84C546.929 410.765 547.398 410.788 547.847 410.907C548.296 411.027 548.714 411.24 549.074 411.533C549.435 411.826 549.729 412.192 549.938 412.607C550.146 413.022 550.265 413.477 550.285 413.941C550.461 415.884 549.065 417.858 547.69 419.109C546.078 420.515 541.426 421.972 541.426 421.972Z" fill="#5A3F86"/>
<path d="M531.699 411.088C533.033 412.121 536.392 412.907 537.219 413.093C537.571 413.724 537.922 414.406 538.304 415.161C538.966 416.504 539.7 418.034 540.372 419.75C540.558 420.205 540.734 420.701 540.92 421.177C540.444 420.432 539.772 419.419 539.7 419.326C538.315 417.652 534.645 415.192 532.381 416.132C532.01 416.293 531.676 416.53 531.401 416.828C531.127 417.127 530.918 417.479 530.788 417.863C530.659 418.247 530.611 418.654 530.649 419.057C530.686 419.46 530.808 419.852 531.007 420.205C531.813 421.735 533.777 422.52 535.379 422.789C536.981 423.058 540.486 422.21 541.23 422.014C541.623 423.048 541.995 424.185 542.263 425.363C542.874 427.492 543.293 429.671 543.514 431.875H543.38C543.028 431.141 542.243 429.601 542.17 429.477C540.971 427.658 537.591 424.846 535.234 425.497C534.848 425.618 534.492 425.818 534.188 426.085C533.884 426.352 533.64 426.68 533.471 427.047C533.301 427.414 533.21 427.813 533.204 428.217C533.198 428.621 533.277 429.022 533.436 429.394C534.056 430.997 535.927 431.999 537.488 432.444C539.297 432.95 543.38 432.32 543.535 432.299C543.697 434.49 543.715 436.69 543.587 438.884C543.504 440.507 543.359 442.15 543.194 443.804C542.956 443.277 541.933 441.261 541.84 441.116C540.651 439.297 537.271 436.485 534.914 437.137C534.527 437.256 534.17 437.455 533.865 437.722C533.56 437.989 533.315 438.316 533.145 438.684C532.976 439.052 532.885 439.451 532.88 439.856C532.875 440.26 532.955 440.662 533.115 441.034C533.736 442.636 535.607 443.639 537.167 444.083C538.935 444.579 542.842 443.99 543.173 443.938C543.101 444.683 543.028 445.437 542.946 446.181C542.677 448.631 542.398 451.081 542.201 453.51C542.129 454.348 542.088 455.185 542.046 456.012C541.674 455.237 540.961 453.831 540.889 453.727C539.69 451.898 536.309 449.086 533.953 449.737C533.567 449.858 533.21 450.058 532.907 450.325C532.603 450.592 532.358 450.92 532.189 451.287C532.019 451.654 531.929 452.053 531.923 452.457C531.917 452.861 531.995 453.262 532.154 453.634C532.774 455.247 534.645 456.239 536.206 456.684C537.767 457.128 541.085 456.684 542.015 456.57C541.953 457.955 541.922 459.33 541.964 460.705C541.964 461.294 541.964 461.893 542.046 462.452C542.129 463.01 542.139 463.578 542.181 464.126C542.325 465.274 542.45 466.338 542.605 467.393C542.677 467.93 542.76 468.426 542.842 468.954C542.574 468.106 542.139 466.772 542.088 466.659C541.178 464.684 538.263 461.387 535.886 461.676C535.485 461.735 535.1 461.877 534.758 462.093C534.416 462.31 534.123 462.596 533.898 462.934C533.674 463.271 533.523 463.652 533.456 464.052C533.389 464.451 533.407 464.861 533.508 465.253C533.88 466.938 535.576 468.209 537.054 468.881C538.532 469.553 542.512 469.646 542.987 469.646C543.183 470.918 543.39 472.158 543.607 473.305C543.824 474.453 544.083 475.797 544.321 476.913H545.881C545.602 475.724 545.313 474.432 545.023 473.037C544.806 472.003 544.6 470.887 544.393 469.749C546.279 469.314 548.095 468.618 549.789 467.682C550.725 468.478 551.709 469.217 552.735 469.894C552.197 471.073 551.701 472.21 551.226 473.295C550.678 474.587 550.192 475.786 549.747 476.913H551.381C551.742 475.941 552.135 474.928 552.569 473.812C553.003 472.695 553.386 471.796 553.841 470.711C554.296 470.866 557.903 472.106 559.691 471.951C561.304 471.807 563.33 471.166 564.24 469.698C564.463 469.364 564.614 468.987 564.683 468.592C564.752 468.196 564.738 467.791 564.64 467.401C564.543 467.011 564.365 466.647 564.118 466.33C563.871 466.013 563.56 465.752 563.206 465.563C561.015 464.529 557.169 466.597 555.66 468.199C555.567 468.292 554.554 469.605 554.058 470.266C554.327 469.625 554.606 468.995 554.905 468.333C555.329 467.372 555.805 466.38 556.26 465.408L557.035 463.909C557.293 463.403 557.593 462.937 557.872 462.441C558.296 461.728 558.771 461.015 559.247 460.291C560.188 460.787 562.999 462.173 564.57 462.266C566.142 462.359 568.292 462.038 569.408 460.736C569.683 460.438 569.892 460.086 570.021 459.702C570.15 459.318 570.197 458.912 570.158 458.509C570.119 458.105 569.995 457.715 569.794 457.363C569.594 457.011 569.321 456.706 568.995 456.467C566.989 455.071 562.875 456.601 561.139 457.924L560.353 458.658C560.839 457.976 561.314 457.283 561.821 456.591C563.278 454.658 564.819 452.745 566.348 450.812L567.299 449.603C568.095 450.016 571.124 451.546 572.768 451.67C574.411 451.794 576.489 451.443 577.605 450.14C577.88 449.842 578.089 449.489 578.219 449.104C578.348 448.72 578.394 448.312 578.355 447.908C578.316 447.504 578.193 447.113 577.992 446.76C577.792 446.408 577.519 446.101 577.192 445.861C575.197 444.476 571.072 446.006 569.336 447.329C569.274 447.329 568.881 447.753 568.426 448.176C569.253 447.143 570.049 446.057 570.814 444.972C572.133 443.12 573.328 441.183 574.39 439.173C574.67 439.318 578.184 441.189 580.014 441.302C581.637 441.395 583.735 441.075 584.851 439.762C585.126 439.465 585.335 439.113 585.464 438.729C585.593 438.345 585.64 437.938 585.601 437.535C585.562 437.132 585.438 436.742 585.238 436.39C585.037 436.038 584.765 435.732 584.438 435.493C582.443 434.098 578.318 435.638 576.582 436.951C576.468 437.044 575.021 438.429 574.514 438.946C574.509 438.922 574.509 438.897 574.514 438.873C575.503 436.88 576.315 434.805 576.944 432.671C577.511 430.759 577.967 428.816 578.308 426.851C578.649 425.032 578.835 423.337 579.001 421.848C579.083 421.042 579.145 420.298 579.187 419.605C579.187 419.605 580.593 417.021 580.665 416.845C581.461 414.778 581.792 410.437 579.9 408.896C579.579 408.65 579.21 408.474 578.816 408.38C578.423 408.285 578.014 408.275 577.616 408.349C577.218 408.423 576.841 408.58 576.508 408.81C576.174 409.039 575.893 409.337 575.683 409.682C574.732 411.119 575 413.217 575.548 414.757C576.096 416.298 578.453 418.892 579.042 419.471C578.98 420.184 578.908 420.949 578.804 421.797C578.608 423.285 578.38 424.96 578.008 426.769C577.905 427.244 577.781 427.802 577.667 428.268C577.667 427.379 577.667 426.2 577.667 426.056C577.429 423.885 575.703 419.853 573.315 419.347C572.916 419.275 572.507 419.288 572.113 419.385C571.72 419.482 571.351 419.662 571.032 419.912C570.712 420.162 570.45 420.476 570.261 420.835C570.072 421.194 569.961 421.589 569.935 421.993C569.76 423.699 570.969 425.446 572.147 426.552C573.326 427.658 576.727 428.888 577.46 429.136C577.192 430.242 576.892 431.369 576.509 432.526C575.848 434.639 574.997 436.687 573.967 438.646H573.832C573.946 437.829 574.142 436.113 574.142 435.969C574.142 433.798 572.881 429.591 570.566 428.836C570.177 428.721 569.768 428.689 569.366 428.742C568.964 428.795 568.578 428.932 568.233 429.145C567.887 429.358 567.591 429.641 567.362 429.976C567.134 430.311 566.978 430.69 566.907 431.09C566.545 432.764 567.558 434.635 568.612 435.865C569.832 437.292 573.594 438.966 573.729 439.07C572.66 440.992 571.462 442.84 570.142 444.6C569.243 445.923 568.209 447.267 567.175 448.497C567.268 447.928 567.527 445.675 567.527 445.51C567.527 443.339 566.266 439.132 563.95 438.377C563.561 438.262 563.153 438.229 562.751 438.283C562.349 438.336 561.962 438.473 561.617 438.686C561.272 438.899 560.975 439.182 560.747 439.517C560.518 439.852 560.363 440.231 560.291 440.631C559.939 442.305 560.973 444.166 562.007 445.406C563.196 446.791 566.793 448.456 567.093 448.6L565.687 450.368C564.116 452.26 562.524 454.151 561.015 456.063C560.498 456.725 559.981 457.397 559.516 458.069C559.629 457.211 559.805 455.65 559.805 455.516C559.805 453.335 558.544 449.127 556.229 448.373C555.84 448.259 555.432 448.228 555.03 448.282C554.629 448.336 554.243 448.474 553.898 448.686C553.553 448.899 553.257 449.181 553.028 449.515C552.799 449.849 552.643 450.228 552.569 450.626C552.208 452.311 553.21 454.172 554.275 455.412C555.34 456.653 558.327 458.11 559.175 458.513C558.368 459.64 557.583 460.767 556.869 461.924C556.57 462.421 556.229 462.958 555.97 463.423L555.164 464.901C554.647 465.935 554.13 466.876 553.706 467.847L553.045 469.284C553.293 468.437 553.665 467.083 553.686 466.948C554.016 464.798 553.396 460.446 551.226 459.351C550.858 459.179 550.459 459.087 550.054 459.079C549.649 459.072 549.247 459.15 548.874 459.308C548.5 459.465 548.165 459.7 547.888 459.996C547.611 460.292 547.399 460.642 547.267 461.025C547.19 461.225 547.134 461.433 547.101 461.645C545.819 463.068 544.929 464.799 544.517 466.669C544.517 466.803 544.372 468.457 544.331 469.305C544.207 468.612 544.083 467.93 543.969 467.238C543.793 466.204 543.638 465.108 543.483 464.054C543.432 463.496 543.37 462.937 543.307 462.379C543.245 461.821 543.235 461.263 543.194 460.694C543.194 459.857 543.194 458.999 543.194 458.141C544.227 458.027 547.329 457.635 548.724 456.849C550.119 456.063 551.701 454.606 551.918 452.9C551.981 452.5 551.959 452.091 551.854 451.7C551.748 451.308 551.562 450.943 551.307 450.629C551.051 450.314 550.733 450.056 550.372 449.872C550.01 449.689 549.615 449.583 549.21 449.562C546.77 449.51 544.186 453.055 543.463 455.112C543.463 455.185 543.339 455.629 543.214 456.146C543.214 455.309 543.214 454.472 543.318 453.624C543.463 451.215 543.69 448.766 543.897 446.305C543.948 445.799 543.979 445.272 544.021 444.776C544.92 444.683 548.29 444.29 549.716 443.463C551.143 442.636 552.693 441.23 552.91 439.514C552.973 439.114 552.951 438.706 552.846 438.315C552.74 437.924 552.554 437.56 552.298 437.246C552.043 436.932 551.724 436.675 551.363 436.493C551.002 436.31 550.606 436.205 550.202 436.186C547.763 436.124 545.178 439.68 544.455 441.737C544.455 441.809 544.31 442.346 544.176 442.946C544.269 441.613 544.352 440.279 544.393 438.956C544.472 436.683 544.399 434.407 544.176 432.144C544.486 432.144 548.445 431.73 550.037 430.821C551.443 430.004 553.014 428.578 553.231 426.872C553.294 426.473 553.272 426.064 553.167 425.674C553.062 425.283 552.877 424.919 552.623 424.604C552.369 424.29 552.051 424.032 551.691 423.847C551.331 423.663 550.937 423.556 550.533 423.533C548.093 423.471 545.499 427.027 544.786 429.084C544.734 429.229 544.29 431.152 544.155 431.886V431.762C543.873 429.544 543.403 427.356 542.749 425.218C542.166 423.313 541.476 421.443 540.682 419.616C539.958 417.91 539.193 416.391 538.501 415.057C538.118 414.334 537.757 413.682 537.467 413.083C537.467 413.083 537.219 410.147 537.178 409.982C536.723 407.852 534.583 404.017 532.154 403.78C531.749 403.75 531.342 403.807 530.96 403.945C530.579 404.083 530.23 404.3 529.938 404.582C529.645 404.864 529.415 405.204 529.263 405.58C529.11 405.957 529.039 406.361 529.053 406.767C529.022 408.483 530.397 410.054 531.699 411.088Z" fill="#5A3F86"/>
<path d="M328.569 429.994C326.419 430.325 321.737 428.96 321.737 428.96C321.737 428.96 323.566 426.138 323.701 425.983C325.313 424.092 329.52 421.383 332.084 422.448C332.504 422.637 332.879 422.913 333.186 423.256C333.492 423.6 333.723 424.004 333.863 424.443C334.004 424.881 334.05 425.344 334 425.802C333.95 426.26 333.804 426.702 333.573 427.1C332.653 428.847 330.399 429.694 328.569 429.994Z" fill="#5A3F86"/>
<path d="M285.517 421.972C285.465 421.972 285.517 418.623 285.517 418.406C285.816 415.946 287.832 411.367 290.561 410.84C291.019 410.765 291.488 410.788 291.937 410.907C292.386 411.027 292.804 411.24 293.165 411.533C293.525 411.826 293.819 412.192 294.028 412.607C294.237 413.022 294.355 413.477 294.375 413.941C294.551 415.884 293.155 417.858 291.781 419.109C290.147 420.515 285.517 421.972 285.517 421.972Z" fill="#5A3F86"/>
<path d="M275.789 411.088C277.123 412.121 280.472 412.907 281.309 413.093C281.65 413.724 282.012 414.406 282.395 415.161C283.056 416.504 283.79 418.034 284.462 419.75C284.638 420.205 284.824 420.701 285 421.177C284.524 420.432 283.863 419.419 283.79 419.326C282.395 417.652 278.735 415.192 276.461 416.132C276.09 416.294 275.757 416.532 275.484 416.831C275.211 417.129 275.003 417.482 274.875 417.865C274.746 418.249 274.699 418.656 274.738 419.059C274.776 419.462 274.898 419.852 275.097 420.205C275.893 421.735 277.867 422.52 279.469 422.789C281.072 423.058 284.576 422.21 285.32 422.014C285.703 423.048 286.075 424.185 286.354 425.363C286.968 427.492 287.39 429.671 287.615 431.875H287.48C287.119 431.141 286.343 429.601 286.261 429.477C285.072 427.658 281.692 424.846 279.335 425.497C278.947 425.615 278.589 425.814 278.283 426.08C277.977 426.347 277.732 426.674 277.562 427.043C277.392 427.411 277.302 427.81 277.297 428.216C277.293 428.621 277.375 429.023 277.536 429.394C278.157 430.997 280.028 431.999 281.588 432.444C283.397 432.95 287.48 432.32 287.636 432.299C287.781 434.491 287.781 436.691 287.636 438.884C287.553 440.507 287.408 442.15 287.232 443.804C287.005 443.277 285.982 441.261 285.889 441.116C284.7 439.297 281.309 436.485 278.963 437.137C278.576 437.256 278.219 437.456 277.914 437.722C277.609 437.989 277.363 438.316 277.192 438.683C277.022 439.051 276.93 439.45 276.924 439.854C276.917 440.259 276.996 440.661 277.154 441.034C277.784 442.636 279.655 443.639 281.216 444.083C282.974 444.579 286.891 443.99 287.222 443.938C287.15 444.683 287.077 445.437 286.995 446.181C286.726 448.631 286.447 451.081 286.24 453.51C286.178 454.348 286.137 455.185 286.095 456.012C285.713 455.237 285.01 453.831 284.927 453.727C283.739 451.898 280.358 449.086 278.002 449.737C277.614 449.855 277.255 450.054 276.95 450.32C276.644 450.586 276.398 450.914 276.228 451.282C276.058 451.651 275.968 452.05 275.964 452.456C275.96 452.861 276.041 453.263 276.203 453.634C276.823 455.247 278.694 456.239 280.255 456.684C281.816 457.128 285.134 456.684 286.064 456.57C286.002 457.955 285.971 459.33 286.013 460.705C286.013 461.294 286.013 461.893 286.095 462.452C286.178 463.01 286.188 463.578 286.23 464.126C286.374 465.274 286.498 466.338 286.653 467.393C286.726 467.93 286.809 468.426 286.881 468.954C286.622 468.106 286.188 466.772 286.126 466.659C285.227 464.684 282.312 461.387 279.924 461.676C279.524 461.736 279.141 461.879 278.8 462.096C278.459 462.313 278.167 462.6 277.944 462.937C277.721 463.275 277.571 463.655 277.504 464.054C277.437 464.453 277.456 464.861 277.557 465.253C277.929 466.938 279.624 468.209 281.103 468.881C282.581 469.553 286.56 469.646 287.036 469.646C287.232 470.918 287.439 472.158 287.656 473.305C287.873 474.453 288.132 475.797 288.369 476.913H289.93C289.651 475.724 289.362 474.432 289.072 473.037C288.855 472.003 288.638 470.887 288.431 469.749C290.321 469.316 292.141 468.62 293.838 467.682C294.771 468.477 295.752 469.216 296.773 469.894C296.246 471.073 295.74 472.21 295.274 473.295C294.727 474.587 294.241 475.786 293.796 476.913H295.429C295.791 475.941 296.174 474.928 296.608 473.812C297.042 472.695 297.435 471.796 297.89 470.711C298.344 470.866 301.952 472.106 303.74 471.951C305.353 471.807 307.379 471.166 308.289 469.698C308.511 469.364 308.66 468.987 308.729 468.592C308.797 468.196 308.782 467.791 308.684 467.402C308.587 467.013 308.41 466.649 308.164 466.332C307.917 466.015 307.608 465.753 307.255 465.563C305.063 464.529 301.218 466.597 299.709 468.199C299.616 468.292 298.603 469.605 298.096 470.266C298.376 469.625 298.655 468.995 298.954 468.333C299.368 467.372 299.854 466.38 300.308 465.408L301.084 463.909C301.332 463.403 301.642 462.937 301.921 462.441C302.345 461.728 302.82 461.015 303.296 460.291C304.237 460.787 307.048 462.173 308.619 462.266C310.191 462.359 312.33 462.038 313.457 460.736C313.73 460.438 313.938 460.085 314.066 459.702C314.194 459.318 314.24 458.912 314.201 458.509C314.163 458.106 314.039 457.717 313.84 457.365C313.64 457.013 313.369 456.707 313.044 456.467C311.038 455.071 306.924 456.601 305.187 457.924L304.402 458.658C304.877 457.976 305.363 457.283 305.87 456.591C307.327 454.658 308.857 452.745 310.397 450.812L311.348 449.603C312.144 450.016 315.163 451.546 316.816 451.67C318.47 451.794 320.538 451.443 321.654 450.14C321.929 449.842 322.138 449.489 322.267 449.104C322.397 448.72 322.443 448.312 322.404 447.908C322.365 447.504 322.242 447.113 322.041 446.76C321.84 446.408 321.568 446.101 321.241 445.861C319.235 444.476 315.121 446.006 313.385 447.329C313.323 447.329 312.919 447.753 312.475 448.176C313.292 447.143 314.098 446.057 314.863 444.972C316.182 443.12 317.377 441.183 318.439 439.173C318.718 439.318 322.233 441.189 324.063 441.302C325.685 441.395 327.784 441.075 328.9 439.762C329.175 439.465 329.384 439.113 329.513 438.729C329.642 438.345 329.689 437.938 329.65 437.535C329.611 437.132 329.487 436.742 329.287 436.39C329.086 436.038 328.814 435.732 328.487 435.493C326.492 434.098 322.367 435.638 320.631 436.951C320.507 437.044 319.07 438.429 318.563 438.946V438.873C319.559 436.882 320.375 434.807 321.003 432.671C321.571 430.759 322.026 428.816 322.367 426.851C322.698 425.032 322.895 423.337 323.06 421.848C323.143 421.042 323.194 420.298 323.246 419.605C323.246 419.605 324.662 417.021 324.735 416.845C325.52 414.778 325.861 410.437 323.97 408.896C323.648 408.65 323.278 408.474 322.883 408.379C322.489 408.285 322.079 408.274 321.681 408.349C321.282 408.423 320.904 408.58 320.57 408.809C320.236 409.039 319.954 409.336 319.742 409.682C318.801 411.119 319.07 413.217 319.607 414.757C320.145 416.298 322.522 418.892 323.112 419.471C323.05 420.184 322.977 420.949 322.874 421.797C322.677 423.285 322.45 424.96 322.068 426.769C321.975 427.244 321.851 427.802 321.737 428.268C321.737 427.379 321.737 426.2 321.737 426.056C321.509 423.885 319.783 419.853 317.395 419.347C316.996 419.275 316.587 419.288 316.193 419.385C315.799 419.482 315.431 419.662 315.112 419.912C314.792 420.162 314.53 420.476 314.341 420.835C314.152 421.194 314.041 421.589 314.015 421.993C313.829 423.699 315.049 425.446 316.227 426.552C317.406 427.658 320.806 428.888 321.54 429.136C321.272 430.242 320.972 431.369 320.589 432.526C319.923 434.637 319.072 436.685 318.047 438.646H317.912C318.026 437.829 318.222 436.113 318.222 435.969C318.222 433.798 316.961 429.591 314.646 428.836C314.257 428.721 313.848 428.689 313.446 428.742C313.044 428.795 312.658 428.932 312.313 429.145C311.967 429.358 311.671 429.641 311.442 429.976C311.214 430.311 311.058 430.69 310.986 431.09C310.625 432.764 311.627 434.635 312.692 435.865C313.912 437.292 317.674 438.966 317.86 439.07C316.788 440.99 315.59 442.838 314.274 444.6C313.312 445.913 312.279 447.205 311.173 448.487C311.276 447.918 311.534 445.665 311.534 445.499C311.534 443.328 310.273 439.121 307.947 438.367C307.559 438.251 307.151 438.219 306.75 438.273C306.348 438.326 305.963 438.463 305.618 438.676C305.274 438.889 304.978 439.172 304.751 439.507C304.523 439.842 304.369 440.221 304.299 440.62C303.937 442.295 304.939 444.166 306.004 445.396C307.193 446.781 310.79 448.445 311.09 448.59L309.787 450.368C308.206 452.26 306.624 454.151 305.115 456.063C304.598 456.725 304.081 457.397 303.606 458.069C303.73 457.211 303.906 455.65 303.906 455.516C303.906 453.335 302.645 449.127 300.329 448.373C299.94 448.259 299.532 448.228 299.131 448.282C298.729 448.336 298.344 448.474 297.999 448.686C297.654 448.899 297.357 449.181 297.128 449.515C296.9 449.849 296.743 450.228 296.67 450.626C296.308 452.311 297.311 454.172 298.376 455.412C299.44 456.653 302.428 458.11 303.275 458.513C302.459 459.64 301.683 460.767 300.96 461.924C300.67 462.421 300.329 462.958 300.071 463.423C299.812 463.888 299.523 464.405 299.264 464.901C298.748 465.935 298.231 466.876 297.807 467.847L297.145 469.284C297.394 468.437 297.755 467.083 297.776 466.948C298.117 464.798 297.497 460.446 295.326 459.351C294.959 459.179 294.56 459.087 294.155 459.079C293.75 459.072 293.347 459.15 292.974 459.308C292.601 459.465 292.265 459.7 291.988 459.996C291.711 460.292 291.5 460.642 291.367 461.025C291.29 461.225 291.235 461.433 291.202 461.645C289.921 463.07 289.027 464.8 288.607 466.669C288.607 466.803 288.473 468.457 288.421 469.305C288.307 468.612 288.183 467.93 288.059 467.238C287.884 466.204 287.739 465.108 287.584 464.054C287.522 463.496 287.47 462.937 287.408 462.379C287.346 461.821 287.336 461.263 287.294 460.694C287.294 459.857 287.294 458.999 287.294 458.141C288.328 458.027 291.429 457.635 292.825 456.849C294.22 456.063 295.802 454.606 296.019 452.9C296.081 452.5 296.059 452.091 295.954 451.7C295.849 451.308 295.662 450.943 295.407 450.629C295.152 450.314 294.833 450.056 294.472 449.872C294.111 449.689 293.715 449.583 293.31 449.562C290.871 449.51 288.287 453.055 287.563 455.112C287.563 455.185 287.439 455.629 287.315 456.146C287.315 455.309 287.315 454.472 287.408 453.624C287.563 451.215 287.78 448.766 287.997 446.305L288.121 444.776C289.021 444.683 292.38 444.29 293.817 443.463C295.254 442.636 296.794 441.23 297.001 439.514C297.065 439.115 297.045 438.707 296.941 438.316C296.836 437.925 296.651 437.561 296.396 437.246C296.142 436.932 295.823 436.675 295.463 436.493C295.102 436.31 294.707 436.205 294.303 436.186C291.863 436.124 289.269 439.68 288.555 441.737C288.555 441.809 288.411 442.346 288.276 442.946C288.369 441.613 288.452 440.279 288.493 438.956C288.567 436.683 288.495 434.408 288.276 432.144C288.586 432.144 292.546 431.73 294.137 430.821C295.543 430.004 297.114 428.578 297.331 426.872C297.394 426.472 297.372 426.063 297.267 425.671C297.162 425.28 296.975 424.915 296.72 424.6C296.465 424.286 296.146 424.028 295.785 423.844C295.424 423.66 295.028 423.555 294.623 423.533C292.184 423.471 289.6 427.027 288.876 429.084C288.876 429.229 288.39 431.152 288.256 431.886V431.762C287.975 429.543 287.502 427.354 286.84 425.218C286.261 423.312 285.571 421.441 284.772 419.616C284.049 417.91 283.273 416.391 282.591 415.057C282.209 414.334 281.847 413.682 281.557 413.083C281.557 413.083 281.309 410.147 281.268 409.982C280.813 407.852 278.673 404.017 276.244 403.78C275.839 403.75 275.433 403.807 275.051 403.945C274.669 404.083 274.32 404.3 274.028 404.582C273.735 404.864 273.505 405.204 273.353 405.58C273.201 405.957 273.129 406.361 273.143 406.767C273.102 408.483 274.487 410.054 275.789 411.088Z" fill="#5A3F86"/>
<path d="M492.119 429.994C489.98 430.325 485.297 428.96 485.297 428.96C485.297 428.96 487.116 426.138 487.261 425.983C488.863 424.092 493.07 421.383 495.634 422.448C496.055 422.636 496.431 422.911 496.738 423.254C497.046 423.597 497.278 424.001 497.419 424.44C497.561 424.879 497.608 425.342 497.559 425.8C497.509 426.258 497.364 426.701 497.133 427.1C496.202 428.847 493.949 429.694 492.119 429.994Z" fill="#5A3F86"/>
<path d="M449.066 421.972C449.015 421.972 449.066 418.623 449.066 418.406C449.356 415.946 451.382 411.367 454.1 410.84C454.559 410.765 455.028 410.788 455.477 410.907C455.925 411.027 456.344 411.24 456.704 411.533C457.065 411.826 457.359 412.192 457.567 412.607C457.776 413.022 457.894 413.477 457.915 413.941C458.09 415.884 456.695 417.858 455.33 419.109C453.718 420.515 449.066 421.972 449.066 421.972Z" fill="#5A3F86"/>
<path d="M439.339 411.088C440.673 412.121 444.032 412.907 444.87 413.093C445.211 413.724 445.572 414.406 445.903 415.161C446.565 416.504 447.299 418.034 447.971 419.75C448.157 420.205 448.332 420.701 448.518 421.177C448.043 420.432 447.381 419.419 447.299 419.326C445.914 417.652 442.244 415.192 439.98 416.132C439.608 416.293 439.274 416.53 439 416.828C438.726 417.127 438.517 417.48 438.389 417.864C438.26 418.248 438.214 418.655 438.253 419.059C438.292 419.462 438.416 419.853 438.616 420.205C439.412 421.735 441.376 422.52 442.978 422.789C444.58 423.058 448.084 422.21 448.829 422.014C449.221 423.048 449.594 424.185 449.914 425.363C450.524 427.492 450.943 429.671 451.165 431.875H451.03C450.679 431.141 449.893 429.601 449.821 429.477C448.622 427.658 445.242 424.846 442.895 425.497C442.508 425.617 442.151 425.816 441.846 426.083C441.541 426.349 441.295 426.677 441.125 427.044C440.954 427.411 440.863 427.81 440.856 428.215C440.85 428.62 440.928 429.022 441.086 429.394C441.706 430.997 443.577 431.999 445.149 432.444C446.947 432.95 451.03 432.32 451.185 432.299C451.346 434.49 451.367 436.69 451.247 438.884C451.165 440.507 451.01 442.15 450.844 443.804C450.607 443.277 449.583 441.261 449.5 441.116C448.301 439.297 444.921 436.485 442.564 437.137C442.179 437.257 441.822 437.458 441.518 437.725C441.215 437.991 440.97 438.319 440.801 438.686C440.631 439.053 440.54 439.452 440.534 439.856C440.528 440.261 440.607 440.662 440.766 441.034C441.386 442.636 443.257 443.639 444.818 444.083C446.585 444.579 450.503 443.99 450.824 443.938C450.751 444.683 450.679 445.437 450.596 446.181C450.327 448.631 450.048 451.081 449.852 453.51C449.78 454.348 449.738 455.185 449.697 456.012C449.325 455.237 448.663 453.831 448.539 453.727C447.34 451.898 443.96 449.086 441.613 449.737C441.227 449.857 440.869 450.056 440.564 450.323C440.259 450.589 440.014 450.917 439.843 451.284C439.673 451.651 439.581 452.05 439.574 452.455C439.568 452.86 439.646 453.262 439.805 453.634C440.425 455.247 442.296 456.239 443.867 456.684C445.438 457.128 448.736 456.684 449.666 456.57C449.604 457.955 449.583 459.33 449.614 460.705C449.614 461.294 449.614 461.893 449.697 462.452C449.78 463.01 449.79 463.578 449.842 464.126C449.976 465.274 450.1 466.338 450.255 467.393C450.327 467.93 450.41 468.426 450.493 468.954C450.224 468.106 449.79 466.772 449.738 466.659C448.829 464.684 445.914 461.387 443.536 461.676C443.135 461.735 442.751 461.877 442.408 462.093C442.066 462.31 441.773 462.596 441.549 462.934C441.325 463.271 441.174 463.652 441.107 464.052C441.039 464.451 441.057 464.861 441.159 465.253C441.531 466.938 443.226 468.209 444.704 468.881C446.337 469.625 450.172 469.646 450.638 469.646C450.834 470.918 451.041 472.158 451.258 473.305C451.475 474.453 451.733 475.797 451.971 476.913H453.542C453.253 475.721 452.963 474.429 452.674 473.037C452.457 472.003 452.25 470.887 452.043 469.749C453.929 469.314 455.745 468.618 457.439 467.682C458.376 468.478 459.359 469.217 460.385 469.894C459.848 471.073 459.351 472.21 458.886 473.295C458.338 474.587 457.853 475.786 457.398 476.913H459.031C459.393 475.941 459.786 474.928 460.22 473.812C460.654 472.695 461.036 471.796 461.491 470.711C461.946 470.866 465.554 472.106 467.342 471.951C468.965 471.807 470.98 471.166 471.89 469.698C472.114 469.364 472.265 468.987 472.334 468.592C472.403 468.196 472.388 467.791 472.291 467.401C472.193 467.011 472.015 466.647 471.768 466.33C471.521 466.013 471.211 465.752 470.856 465.563C468.665 464.529 464.83 466.597 463.311 468.199C463.217 468.292 462.204 469.605 461.708 470.266C461.987 469.625 462.256 468.995 462.556 468.333C462.98 467.372 463.455 466.38 463.91 465.408L464.685 463.909C464.944 463.403 465.244 462.937 465.523 462.441C465.946 461.728 466.422 461.015 466.897 460.291C467.848 460.787 470.65 462.173 472.221 462.266C473.792 462.359 475.942 462.038 477.059 460.736C477.333 460.438 477.542 460.086 477.671 459.702C477.801 459.318 477.847 458.912 477.808 458.509C477.769 458.105 477.645 457.715 477.445 457.363C477.244 457.011 476.972 456.706 476.645 456.467C474.65 455.071 470.526 456.601 468.789 457.924L468.003 458.658C468.489 457.976 468.965 457.283 469.482 456.591C470.929 454.658 472.469 452.745 473.999 450.812L474.95 449.603C475.746 450.016 478.774 451.546 480.418 451.67C482.062 451.794 484.139 451.443 485.256 450.14C485.531 449.842 485.74 449.489 485.869 449.104C485.998 448.72 486.045 448.312 486.006 447.908C485.967 447.504 485.843 447.113 485.643 446.76C485.442 446.408 485.169 446.101 484.842 445.861C482.847 444.476 478.723 446.006 476.997 447.329C476.935 447.329 476.531 447.753 476.087 448.176C476.904 447.143 477.699 446.057 478.464 444.972C479.787 443.121 480.985 441.183 482.051 439.173C482.33 439.318 485.835 441.189 487.664 441.302C489.287 441.395 491.385 441.075 492.502 439.762C492.777 439.465 492.987 439.114 493.117 438.73C493.247 438.347 493.294 437.94 493.256 437.537C493.218 437.134 493.095 436.744 492.896 436.392C492.696 436.039 492.425 435.733 492.099 435.493C490.093 434.098 485.969 435.638 484.243 436.951C484.119 437.044 482.671 438.429 482.175 438.946C482.173 438.922 482.173 438.897 482.175 438.873C483.163 436.88 483.976 434.805 484.604 432.671C485.172 430.759 485.628 428.816 485.969 426.851C486.31 425.032 486.506 423.337 486.661 421.848C486.744 421.042 486.806 420.298 486.848 419.605C486.848 419.605 488.264 417.021 488.326 416.845C489.122 414.778 489.452 410.437 487.561 408.896C487.24 408.65 486.871 408.474 486.477 408.38C486.084 408.285 485.675 408.275 485.277 408.349C484.879 408.423 484.502 408.58 484.168 408.81C483.835 409.039 483.554 409.337 483.343 409.682C482.392 411.119 482.661 413.217 483.209 414.757C483.757 416.298 486.114 418.892 486.713 419.471C486.641 420.184 486.568 420.949 486.465 421.797C486.269 423.285 486.041 424.96 485.669 426.769C485.566 427.244 485.442 427.802 485.328 428.268C485.328 427.379 485.328 426.2 485.328 426.056C485.09 423.885 483.364 419.853 480.976 419.347C480.577 419.275 480.168 419.288 479.774 419.385C479.38 419.482 479.012 419.662 478.693 419.912C478.373 420.162 478.111 420.476 477.922 420.835C477.733 421.194 477.622 421.589 477.596 421.993C477.42 423.699 478.63 425.446 479.818 426.552C481.007 427.658 484.387 428.888 485.121 429.136C484.853 430.242 484.553 431.369 484.181 432.526C483.511 434.637 482.656 436.685 481.627 438.646H481.493C481.607 437.829 481.814 436.113 481.814 435.969C481.814 433.798 480.542 429.591 478.227 428.836C477.838 428.721 477.429 428.689 477.027 428.742C476.625 428.795 476.239 428.932 475.893 429.145C475.548 429.358 475.252 429.641 475.023 429.976C474.795 430.311 474.639 430.69 474.567 431.09C474.206 432.764 475.219 434.635 476.273 435.865C477.503 437.292 481.255 438.966 481.441 439.07C480.365 440.988 479.167 442.835 477.854 444.6C476.883 445.913 475.849 447.205 474.805 448.487C474.898 447.918 475.157 445.665 475.157 445.499C475.157 443.328 473.895 439.121 471.58 438.367C471.191 438.251 470.782 438.219 470.38 438.272C469.978 438.326 469.592 438.463 469.247 438.676C468.902 438.888 468.605 439.171 468.376 439.507C468.148 439.842 467.993 440.221 467.921 440.62C467.559 442.295 468.572 444.166 469.626 445.396C470.825 446.781 474.412 448.445 474.712 448.59C474.237 449.169 473.771 449.758 473.286 450.337C471.714 452.228 470.123 454.12 468.624 456.032C468.096 456.694 467.59 457.366 467.115 458.038C467.228 457.18 467.404 455.619 467.404 455.485C467.404 453.304 466.143 449.096 463.827 448.342C463.439 448.228 463.03 448.197 462.629 448.251C462.227 448.305 461.842 448.443 461.497 448.655C461.152 448.868 460.855 449.15 460.627 449.484C460.398 449.818 460.242 450.197 460.168 450.595C459.806 452.28 460.819 454.141 461.874 455.381C462.928 456.622 465.936 458.079 466.784 458.482C465.967 459.609 465.182 460.736 464.468 461.893C464.169 462.39 463.827 462.927 463.569 463.392L462.773 464.839C462.256 465.873 461.739 466.814 461.326 467.785C461.088 468.271 460.881 468.747 460.654 469.222C460.902 468.375 461.274 467.021 461.295 466.886C461.626 464.736 461.016 460.384 458.835 459.289C458.468 459.117 458.068 459.025 457.663 459.017C457.258 459.01 456.856 459.088 456.483 459.245C456.11 459.403 455.774 459.638 455.497 459.934C455.22 460.23 455.008 460.58 454.876 460.963C454.804 461.165 454.748 461.372 454.71 461.583C453.429 463.006 452.538 464.737 452.126 466.607C452.126 466.741 451.981 468.395 451.94 469.243C451.816 468.55 451.692 467.868 451.578 467.176C451.402 466.142 451.247 465.046 451.103 463.992L450.917 462.317C450.844 461.749 450.844 461.201 450.803 460.632C450.803 459.795 450.803 458.937 450.803 458.079C451.837 457.965 454.938 457.573 456.333 456.787C457.729 456.001 459.31 454.544 459.527 452.838C459.59 452.439 459.568 452.031 459.464 451.64C459.359 451.249 459.173 450.885 458.919 450.57C458.665 450.256 458.348 449.998 457.988 449.813C457.628 449.629 457.233 449.522 456.829 449.5C454.39 449.448 451.795 452.993 451.082 455.05C451.082 455.123 450.948 455.567 450.824 456.084C450.824 455.247 450.875 454.41 450.927 453.562C451.072 451.153 451.299 448.704 451.506 446.243C451.558 445.737 451.589 445.21 451.64 444.714C452.529 444.621 455.899 444.228 457.325 443.401C458.752 442.574 460.303 441.168 460.52 439.452C460.582 439.052 460.56 438.644 460.455 438.253C460.35 437.862 460.163 437.498 459.908 437.184C459.652 436.87 459.334 436.613 458.972 436.431C458.611 436.248 458.216 436.143 457.811 436.124C455.382 436.062 452.788 439.618 452.074 441.675C452.074 441.747 451.919 442.284 451.785 442.884C451.878 441.551 451.961 440.217 452.002 438.894C452.081 436.621 452.009 434.345 451.785 432.082C452.105 432.082 456.064 431.668 457.646 430.759C459.062 429.942 460.623 428.516 460.84 426.81C460.904 426.41 460.884 426.002 460.78 425.61C460.676 425.219 460.49 424.854 460.236 424.539C459.981 424.224 459.663 423.966 459.303 423.782C458.942 423.598 458.546 423.492 458.142 423.471C455.703 423.409 453.108 426.965 452.395 429.022C452.343 429.167 451.899 431.09 451.764 431.824V431.762C451.492 429.543 451.022 427.353 450.358 425.218C449.776 423.313 449.085 421.443 448.291 419.616C447.567 417.91 446.803 416.391 446.11 415.057C445.728 414.334 445.376 413.682 445.025 413.083H445.076C445.076 413.083 444.828 410.147 444.787 409.982C444.332 407.852 442.192 404.017 439.763 403.78C439.358 403.75 438.951 403.807 438.57 403.945C438.188 404.083 437.839 404.3 437.547 404.582C437.254 404.864 437.024 405.204 436.872 405.58C436.719 405.957 436.648 406.361 436.662 406.767C436.662 408.483 438.047 410.054 439.339 411.088Z" fill="#5A3F86"/>
<path d="M125.936 410.881H240.603V468.902C240.603 471.027 239.759 473.064 238.256 474.567C236.754 476.069 234.716 476.913 232.592 476.913H133.947C131.822 476.913 129.785 476.069 128.282 474.567C126.78 473.064 125.936 471.027 125.936 468.902V410.881Z" fill="#5A3F86" stroke="#263238" stroke-linecap="round" stroke-linejoin="round"/>
<path d="M121.936 410.881V438.997C121.936 444.083 126.536 448.208 132.211 448.208H161.815C162.849 448.199 163.871 448.435 164.796 448.897C165.721 449.359 166.524 450.033 167.139 450.864V450.864C168.224 452.298 169.632 453.457 171.248 454.247C172.864 455.038 174.643 455.437 176.442 455.412H190.035C191.834 455.438 193.614 455.04 195.23 454.25C196.846 453.459 198.254 452.3 199.338 450.864V450.864C199.961 450.037 200.771 449.368 201.701 448.914C202.632 448.459 203.657 448.231 204.693 448.249H234.328C240.003 448.249 244.603 444.114 244.603 439.039V410.881H121.936Z" fill="#5A3F86" stroke="#263238" stroke-linecap="round" stroke-linejoin="round"/>
<path d="M130.949 390.993H235.455C237.648 390.993 239.752 391.864 241.303 393.415C242.853 394.966 243.725 397.069 243.725 399.262V408.028H122.68V399.262C122.68 397.069 123.551 394.966 125.102 393.415C126.653 391.864 128.756 390.993 130.949 390.993V390.993Z" fill="white" stroke="#263238" stroke-linecap="round" stroke-linejoin="round"/>
<path d="M245.265 397.939H121.202C118.912 397.939 117.057 399.795 117.057 402.085V410.85C117.057 413.139 118.912 414.995 121.202 414.995H245.265C247.554 414.995 249.41 413.139 249.41 410.85V402.085C249.41 399.795 247.554 397.939 245.265 397.939Z" fill="white" stroke="#263238" stroke-linecap="round" stroke-linejoin="round"/>
<path d="M117.057 410.891H249.41" stroke="#263238" stroke-linecap="round" stroke-linejoin="round"/>
<path d="M190.438 407.945H177.693L174.964 410.891H193.167L190.438 407.945Z" fill="white" stroke="#263238" stroke-linecap="round" stroke-linejoin="round"/>
<path d="M438.094 475.662H452.39L445.93 406.498C445.809 405.502 445.331 404.584 444.583 403.914C443.836 403.245 442.871 402.87 441.867 402.86H403.797C402.793 402.87 401.828 403.245 401.081 403.914C400.333 404.584 399.855 405.502 399.734 406.498L393.315 475.662H407.621L409.689 450.399H436.099L438.094 475.662ZM409.854 447.267L411.56 421.745H434.146L435.851 447.267H409.854Z" fill="#263238" stroke="#263238" stroke-linecap="round" stroke-linejoin="round"/>
<path d="M463.172 289.878C461.911 289.557 449.279 285.743 445.806 284.193C442.333 282.642 440.761 281.67 440.761 281.67L441.071 265.876C441.071 265.876 435.707 272.512 431.282 274.404C426.858 276.295 420.232 276.295 420.232 276.295L419.912 282.301H401.305C397.512 282.301 390.245 288.617 388.984 293.982C387.739 298.57 385.592 302.864 382.668 306.613C380.776 309.146 374.461 316.723 374.461 316.723C374.461 316.723 366.512 291.914 366.512 285.898C366.512 279.882 367.824 277.556 367.194 274.404C366.563 271.251 366.253 270.93 366.253 268.718C366.253 266.506 367.194 263.664 367.194 261.772C367.194 259.88 362.77 261.451 362.77 263.664C362.77 265.876 362.553 271.24 362.553 271.24C362.553 271.24 355.823 265.876 355.513 264.925C355.203 263.974 350.458 259.87 348.877 259.239C347.95 258.867 347 258.553 346.034 258.299C345.778 258.363 345.546 258.5 345.365 258.693C345.184 258.885 345.061 259.126 345.012 259.385C344.963 259.645 344.99 259.913 345.089 260.159C345.187 260.404 345.354 260.616 345.569 260.769C347.202 262.402 350.738 266.589 350.738 266.589C350.738 266.589 344.866 260.469 343.264 260.5C341.662 260.531 341.662 262.165 342.82 264.49C344.032 266.536 345.415 268.476 346.954 270.289C347.492 271.923 347.988 273.453 347.988 273.453C347.988 273.453 344.205 278.197 347.988 282.611C351.771 287.025 355.575 290.88 355.575 290.88C355.575 290.88 357.787 302.561 358.097 308.567C358.408 314.573 357.787 320.248 360.94 327.173C364.093 334.099 371.68 341.066 373.892 341.066C376.104 341.066 396.313 320.857 396.313 320.857C396.313 320.857 397.574 335.071 397.574 345.18C397.574 355.289 396.313 357.905 396.313 357.905C395.111 363.945 394.372 370.069 394.101 376.222C393.47 387.592 398.835 398.322 404.21 400.534C409.585 402.746 431.365 402.436 434.838 402.436C438.311 402.436 441.154 401.805 443.108 398.301C445.061 394.797 448.152 384.408 448.152 376.201C448.152 367.993 452.897 351.248 453.837 345.883C454.778 340.518 461.631 325.54 461.631 325.54C465.512 320.204 468.4 314.213 470.159 307.854C472.961 297.455 464.433 290.198 463.172 289.878Z" fill="#C9C9C9" stroke="#263238" stroke-linecap="round" stroke-linejoin="round"/>
<path d="M433.06 278.073C433.06 278.073 423.426 282.26 419.901 282.301V278.435L433.06 278.073Z" fill="#263238" stroke="#263238" stroke-linecap="round" stroke-linejoin="round"/>
<path d="M434.642 402.643C438.115 402.643 440.958 402.012 442.849 398.508C444.741 395.004 447.904 384.605 447.904 376.397C447.904 371.415 449.651 363.301 451.233 356.489L397.129 350.824C396.83 356.427 396.096 358.06 396.096 358.06C394.894 364.1 394.155 370.224 393.884 376.377C393.253 387.747 398.618 398.487 403.983 400.699C409.348 402.911 431.169 402.643 434.642 402.643Z" fill="white" stroke="#263238" stroke-linecap="round" stroke-linejoin="round"/>
<path d="M470.118 307.874C472.961 297.455 464.433 290.198 463.172 289.878C462.262 289.651 455.491 287.635 450.457 285.929C446.105 291.263 434.714 303.957 426.321 302.065C417.018 299.998 415.353 285.65 415.105 282.301H401.274C397.481 282.301 390.214 288.617 388.953 293.982C387.708 298.57 385.561 302.864 382.637 306.613C382.193 307.213 381.479 308.112 380.673 309.115C384.942 314.283 388.798 321.519 391.01 325.985C394.049 323.039 396.251 320.816 396.251 320.816C396.251 320.816 397.512 335.029 397.512 345.139C397.512 355.248 396.313 357.905 396.313 357.905C396.313 357.905 395.806 361.068 395.693 361.605C413.896 369.296 436.906 368.438 448.834 368.945C450.199 360.499 453.072 349.956 453.786 345.904C454.737 340.529 461.58 325.561 461.58 325.561C465.464 320.225 468.356 314.234 470.118 307.874V307.874Z" fill="#263238" stroke="#263238" stroke-linecap="round" stroke-linejoin="round"/>
<path d="M396.22 320.826L392.881 303.088" stroke="#263238" stroke-linecap="round" stroke-linejoin="round"/>
<path d="M350.665 266.589L355.782 271.24" stroke="#263238" stroke-linecap="round" stroke-linejoin="round"/>
<path d="M348.846 284.193C348.846 284.193 346.003 280.316 346.241 278.921C346.479 277.525 345.838 276.368 347.895 273.453C349.445 271.211 351.749 269.6 354.386 268.915C355.782 268.677 356.712 268.677 356.247 269.845C355.782 271.013 353.456 272.409 352.288 273.339C351.12 274.269 349.962 275.406 350.665 277.525C351.02 278.655 351.488 279.745 352.061 280.781" fill="#C9C9C9"/>
<path d="M348.846 284.193C348.846 284.193 346.003 280.316 346.241 278.921C346.479 277.525 345.838 276.368 347.895 273.453C349.445 271.211 351.749 269.6 354.386 268.915C355.782 268.677 356.712 268.677 356.247 269.845C355.782 271.013 353.456 272.409 352.288 273.339C351.12 274.269 349.962 275.406 350.665 277.525C351.02 278.655 351.488 279.745 352.061 280.781" stroke="#263238" stroke-linecap="round" stroke-linejoin="round"/>
<path d="M358.325 288.296V284.823C358.325 283.242 352.319 279.768 352.319 279.768V276.926C353.504 276.722 354.667 276.407 355.792 275.985C356.204 275.886 356.563 275.635 356.797 275.282C357.031 274.929 357.123 274.501 357.053 274.083C357.053 274.083 350.738 274.404 349.818 275.355C348.898 276.306 347.916 281.03 347.916 281.03C347.752 281.592 347.755 282.19 347.924 282.752C348.093 283.313 348.42 283.813 348.867 284.193C350.368 285.525 351.988 286.718 353.704 287.759" fill="#C9C9C9"/>
<path d="M358.325 288.296V284.823C358.325 283.242 352.319 279.768 352.319 279.768V276.926C353.504 276.722 354.667 276.407 355.792 275.985C356.204 275.886 356.563 275.635 356.797 275.282C357.031 274.929 357.123 274.501 357.053 274.083C357.053 274.083 350.738 274.404 349.818 275.355C348.898 276.306 347.916 281.03 347.916 281.03C347.752 281.592 347.755 282.19 347.924 282.752C348.093 283.313 348.42 283.813 348.867 284.193C350.368 285.525 351.988 286.718 353.704 287.759" stroke="#263238" stroke-linecap="round" stroke-linejoin="round"/>
<path d="M430.673 332.455L430.011 321.932H426.29L425.618 332.455C424.75 332.511 423.936 332.894 423.341 333.527C422.746 334.161 422.414 334.997 422.413 335.867V353.563C422.413 354.134 422.64 354.682 423.043 355.087C423.445 355.492 423.992 355.721 424.563 355.724H431.799C432.372 355.724 432.922 355.496 433.327 355.091C433.732 354.686 433.96 354.136 433.96 353.563V335.867C433.958 334.984 433.615 334.136 433.002 333.5C432.389 332.864 431.555 332.49 430.673 332.455V332.455Z" fill="#5A3F86" stroke="#263238" stroke-linecap="round" stroke-linejoin="round"/>
<path d="M430.941 319.886H425.308V323.473H430.941V319.886Z" fill="#5A3F86" stroke="#263238" stroke-linecap="round" stroke-linejoin="round"/>
<path d="M459.078 312.981L465.57 340.963C465.57 340.963 457.724 346.131 451.925 348.136C448.147 349.323 444.095 349.323 440.317 348.136C440.317 348.136 436.182 343.361 433.494 343.361C430.807 343.361 422.579 343.361 420.532 344.394C418.485 345.428 419.168 349.17 420.532 349.511C421.896 349.852 421.886 358.37 426.29 359.404C430.693 360.437 439.593 358.039 440.958 358.039C442.322 358.039 458.706 356.675 466.893 355.651C475.08 354.628 484.3 351.517 484.982 349.17C485.665 346.824 477.819 307.192 475.772 301.734C473.726 296.276 469.291 289.454 460.753 289.795" fill="#263238"/>
<path d="M459.078 312.981L465.57 340.963C465.57 340.963 457.724 346.131 451.925 348.136C448.147 349.323 444.095 349.323 440.317 348.136C440.317 348.136 436.182 343.361 433.494 343.361C430.807 343.361 422.579 343.361 420.532 344.394C418.485 345.428 419.168 349.17 420.532 349.511C421.896 349.852 421.886 358.37 426.29 359.404C430.693 360.437 439.593 358.039 440.958 358.039C442.322 358.039 458.706 356.675 466.893 355.651C475.08 354.628 484.3 351.517 484.982 349.17C485.665 346.824 477.819 307.192 475.772 301.734C473.726 296.276 469.291 289.454 460.753 289.795" stroke="#263238" stroke-linecap="round" stroke-linejoin="round"/>
<path d="M485.013 349.16C485.406 347.785 482.946 334.151 480.465 321.746C474.154 322.407 468.036 324.315 462.469 327.359L465.57 340.952C465.57 340.952 457.724 346.121 451.925 348.126C448.147 349.313 444.095 349.313 440.317 348.126C440.317 348.126 436.182 343.35 433.494 343.35C430.807 343.35 422.579 343.35 420.532 344.384C418.485 345.418 419.168 349.16 420.532 349.501C421.896 349.842 421.886 358.37 426.29 359.404C430.693 360.437 439.593 358.039 440.958 358.039C442.322 358.039 458.706 356.675 466.893 355.651C475.08 354.628 484.331 351.548 485.013 349.16Z" fill="#C9C9C9" stroke="#263238" stroke-linecap="round" stroke-linejoin="round"/>
<path d="M418.02 229.872C418.02 229.872 412.025 234.607 411.074 240.612C410.123 246.618 410.753 257.348 412.965 263.033C415.177 268.718 416.439 278.197 423.395 279.458C426.17 279.925 429.018 279.677 431.669 278.736C434.321 277.796 436.689 276.194 438.549 274.083C440.761 271.24 443.283 263.353 443.283 263.353C444.279 263.096 445.188 262.577 445.915 261.85C446.642 261.123 447.161 260.214 447.418 259.219C448.359 255.746 448.679 254.805 448.049 253.223C447.495 252.052 446.747 250.983 445.837 250.06C445.837 250.06 446.777 238.059 442.674 233.645C438.57 229.231 426.858 224.818 418.02 229.872Z" fill="#C9C9C9" stroke="#263238" stroke-linecap="round" stroke-linejoin="round"/>
<path d="M418.02 229.872C416.996 230.729 416.045 231.669 415.178 232.684C419.175 234.372 423.47 235.24 427.809 235.237C432.798 235.232 437.773 234.705 442.653 233.666C438.539 229.242 426.858 224.818 418.02 229.872Z" fill="#263238" stroke="#263238" stroke-linecap="round" stroke-linejoin="round"/>
<path d="M411.063 246.608C411.063 246.608 413.586 239.031 413.586 236.509C413.586 235.816 413.586 235.185 413.648 234.617C412.352 236.399 411.47 238.447 411.063 240.612C410.816 242.3 410.678 244.003 410.65 245.708L411.063 246.608Z" fill="#263238" stroke="#263238" stroke-linecap="round" stroke-linejoin="round"/>
<path d="M442.643 233.666C442.043 236.267 441.622 238.905 441.382 241.563C441.382 243.775 443.273 247.569 443.273 247.569L442.963 255.146C442.963 255.146 444.545 256.097 444.545 253.564C444.545 251.032 444.224 250.463 445.806 250.091C445.806 250.081 446.746 238.08 442.643 233.666Z" fill="#263238" stroke="#263238" stroke-linecap="round" stroke-linejoin="round"/>
<path d="M420.852 254.195C420.852 254.195 417.7 251.032 414.537 253.244" stroke="#263238" stroke-linecap="round" stroke-linejoin="round"/>
<path d="M427.799 254.505C427.799 254.505 432.223 251.352 434.745 254.505" stroke="#263238" stroke-linecap="round" stroke-linejoin="round"/>
<path d="M420.853 247.869C420.853 247.869 415.798 246.608 413.906 250.081" stroke="#263238" stroke-width="2" stroke-linecap="round" stroke-linejoin="round"/>
<path d="M428.75 247.869C428.75 247.869 433.484 246.608 435.696 250.081" stroke="#263238" stroke-width="2" stroke-linecap="round" stroke-linejoin="round"/>
<path d="M420.852 260.511C420.852 260.511 420.222 262.713 422.434 262.713C424.646 262.713 425.907 263.033 426.569 261.452" stroke="#263238" stroke-linecap="round" stroke-linejoin="round"/>
<path d="M418.02 265.555C418.02 265.555 422.754 270.3 430.652 265.245" stroke="#263238" stroke-linecap="round" stroke-linejoin="round"/>
<path d="M410.784 377.566C410.784 377.566 401.812 366.608 389.728 360.096C377.644 353.584 365.22 351.827 355.555 353.894C345.89 355.961 345.538 365.203 346.251 369.317C346.965 373.431 359.369 407.697 361.757 413.858C364.144 420.019 369.695 445.076 370.388 448.497C371.08 451.919 365.902 460.839 365.219 464.943C364.537 469.047 360.382 470.773 357.281 472.489C354.18 474.205 358.314 476.624 361.767 476.624C365.219 476.624 374.884 476.624 377.272 475.59C379.66 474.556 382.193 467.589 386.575 464.964C393.48 460.829 393.139 454.689 391.744 451.95C389.583 447.66 386.224 444.063 385.19 440.641C384.157 437.22 381.056 414.913 381.056 410.116V391.613C381.056 391.613 388.291 398.115 393.46 400.172C398.628 402.229 413.834 403.273 416.253 402.911C418.671 402.55 442.829 402.911 442.829 402.911C442.829 402.911 461.714 408.08 461.435 379.778C461.342 369.503 448.142 347.868 437.019 361.068C432.585 366.319 424.843 379.271 421.39 388.864" fill="white"/>
<path d="M410.784 377.566C410.784 377.566 401.812 366.608 389.728 360.096C377.644 353.584 365.22 351.827 355.555 353.894C345.89 355.961 345.538 365.203 346.251 369.317C346.965 373.431 359.369 407.697 361.757 413.858C364.144 420.019 369.695 445.076 370.388 448.497C371.08 451.919 365.902 460.839 365.219 464.943C364.537 469.047 360.382 470.773 357.281 472.489C354.18 474.205 358.314 476.624 361.767 476.624C365.219 476.624 374.884 476.624 377.272 475.59C379.66 474.556 382.193 467.589 386.575 464.964C393.48 460.829 393.139 454.689 391.744 451.95C389.583 447.66 386.224 444.063 385.19 440.641C384.157 437.22 381.056 414.913 381.056 410.116V391.613C381.056 391.613 388.291 398.115 393.46 400.172C398.628 402.229 413.834 403.273 416.253 402.911C418.671 402.55 442.829 402.911 442.829 402.911C442.829 402.911 461.714 408.08 461.435 379.778C461.342 369.503 448.142 347.868 437.019 361.068C432.585 366.319 424.843 379.271 421.39 388.864" stroke="#263238" stroke-linecap="round" stroke-linejoin="round"/>
<path d="M391.062 450.895C390.028 455.63 388.116 461.563 384.405 463.413C379.133 466.059 380.446 473.636 369.571 474.959C362.046 475.869 359.1 473.781 357.994 472.417L357.281 472.799C354.18 474.515 358.314 476.934 361.767 476.934C365.22 476.934 374.884 476.934 377.272 475.9C379.66 474.866 382.193 467.889 386.575 465.274C393.48 461.139 393.139 454.937 391.744 452.249C391.568 451.784 391.32 451.34 391.062 450.895Z" fill="white" stroke="#263238" stroke-linecap="round" stroke-linejoin="round"/>
<path d="M381.097 391.624C381.097 391.624 381.841 392.285 383.009 393.257C384.684 369.131 377.613 358.422 372.807 353.977C367.118 352.812 361.255 352.784 355.555 353.894C345.879 355.961 345.538 365.203 346.251 369.317C346.965 373.431 359.369 407.697 361.757 413.858C364.144 420.019 369.695 445.076 370.388 448.497C370.388 448.642 370.388 448.797 370.388 448.952C371.187 448.92 371.987 448.996 372.765 449.179C375.174 449.872 378.968 452.28 381.738 450.213C384.508 448.146 385.19 440.62 385.19 440.62C384.157 437.189 381.056 414.892 381.056 410.096L381.097 391.624Z" fill="#C9C9C9" stroke="#263238" stroke-linecap="round" stroke-linejoin="round"/>
<path d="M374.998 372.924C374.33 371.916 373.602 370.95 372.817 370.03" stroke="#263238" stroke-linecap="round" stroke-linejoin="round"/>
<path d="M381.097 391.624C380.771 386.591 379.502 381.664 377.355 377.1" stroke="#263238" stroke-linecap="round" stroke-linejoin="round"/>
<path d="M450.984 447.629C450.984 447.629 452.907 454.813 454.633 456.88C456.36 458.948 464.298 468.623 464.298 471.724C464.298 474.825 461.538 474.825 459.13 475.528C457.187 476.076 442.725 475.745 437.143 475.59C435.779 475.59 435.707 474.07 435.314 472.758C434.559 470.225 435.655 466.204 436.203 462.421C437.133 455.929 436.689 453.51 438.074 451.05C439.459 448.59 437.185 446.564 439.945 446.564C442.705 446.564 450.984 447.629 450.984 447.629Z" fill="white" stroke="#263238" stroke-linecap="round" stroke-linejoin="round"/>
<path d="M459.12 475.528C461.538 474.835 464.288 474.835 464.288 471.724C464.259 471.287 464.162 470.858 463.999 470.452C461.662 472.323 457.114 473.915 451.594 473.915C444.999 473.915 442.364 472.882 439.397 469.956C437.516 468.075 436.037 467.889 435.21 468.054C434.885 469.605 434.885 471.207 435.21 472.758C435.603 474.07 435.676 475.549 437.04 475.59C442.715 475.745 457.176 476.076 459.12 475.528Z" fill="white" stroke="#263238" stroke-linecap="round" stroke-linejoin="round"/>
<path d="M441.423 475.89C440.88 472.585 441.107 469.2 442.084 465.997" stroke="#263238" stroke-linecap="round" stroke-linejoin="round"/>
<path d="M446.963 353.78C446.963 353.78 437.381 354.494 434.983 359.528C432.585 364.562 431.644 369.162 433.267 384.584C434.849 399.562 436.513 436.155 439.573 450.637C440.255 453.872 448.473 453.521 450.189 451.36C451.904 449.2 457.838 412.38 458.53 396.916C459.223 381.452 459.254 369.606 456.174 363.497C453.093 357.388 451.036 354.494 446.963 353.78Z" fill="#C9C9C9" stroke="#263238" stroke-linecap="round" stroke-linejoin="round"/>
<path d="M559.709 255.001C559.709 255.001 557.765 261.544 555.977 264.015C554.644 265.845 551.935 266.806 551.935 268.987C551.935 271.168 555.667 272.719 555.667 272.719C555.667 272.719 558.768 282.342 559.398 284.523C560.029 286.704 564.37 287.004 565.601 286.694C566.831 286.384 575.235 282.652 575.235 282.652L576.475 257.492L559.709 255.001Z" fill="white" stroke="#263238" stroke-linecap="round" stroke-linejoin="round"/>
<path d="M562.169 265.018C562.705 265.018 563.14 264.249 563.14 263.302C563.14 262.354 562.705 261.586 562.169 261.586C561.632 261.586 561.197 262.354 561.197 263.302C561.197 264.249 561.632 265.018 562.169 265.018Z" fill="#263238"/>
<path d="M560.567 258.154C561.419 257.983 562.304 258.13 563.056 258.565C563.807 259.001 564.374 259.697 564.65 260.521" fill="white"/>
<path d="M560.567 258.154C561.419 257.983 562.304 258.13 563.056 258.565C563.807 259.001 564.374 259.697 564.65 260.521" stroke="#263238" stroke-linecap="round" stroke-linejoin="round"/>
<path d="M558.633 275.127C558.633 275.127 562.706 275.344 564.836 272.977Z" fill="white"/>
<path d="M558.633 275.127C558.633 275.127 562.706 275.344 564.836 272.977" stroke="#263238" stroke-linecap="round" stroke-linejoin="round"/>
<path d="M510.722 365.43C510.722 365.43 503.734 366.123 503.032 372.066C502.329 378.01 513.523 394.807 521.907 407.367C530.29 419.926 545.681 439.173 547.077 442.667C548.472 446.161 549.144 456.653 546.043 460.147C542.942 463.64 540.11 465.387 542.549 466.09C544.989 466.793 555.832 465.387 555.832 465.387C555.832 465.387 561.073 456.301 562.83 453.159C564.588 450.017 569.115 441.623 569.115 440.227C569.115 438.832 564.918 433.229 563.171 432.537C561.424 431.844 554.085 429.436 554.085 429.436C554.085 429.436 536.936 401.785 535.892 398.983C534.425 395.754 532.79 392.604 530.993 389.546C530.993 389.546 559.305 402.477 576.475 403.873C593.644 405.268 598.503 404.224 598.503 404.224C598.503 404.224 598.503 400.73 596.435 400.027C594.368 399.325 581.406 393.391 577.912 392.337C574.418 391.282 549.527 379.044 546.725 378.01C543.924 376.976 517.369 365.078 517.369 365.078L510.722 365.43Z" fill="#263238" stroke="#263238" stroke-linecap="round" stroke-linejoin="round"/>
<path d="M571.493 310.645C571.493 310.645 568.392 324.982 569.187 329.334C569.983 333.685 569.952 342.896 569.952 348.788C569.952 354.68 568.423 360.551 568.681 362.608C568.939 364.665 576.103 366.743 581.984 366.743C587.866 366.743 609.367 366.991 612.437 365.202C615.507 363.414 615.259 357.016 614.742 353.687C614.225 350.359 613.708 320.154 613.212 314.779C612.716 309.404 612.178 303.016 610.39 298.147C608.602 293.279 599.133 288.42 589.716 291.242C580.3 294.064 571.493 310.645 571.493 310.645Z" fill="white" stroke="#263238" stroke-linecap="round" stroke-linejoin="round"/>
<path d="M572.826 257.296C572.826 257.296 573.26 278.569 571.11 288.017C568.96 297.465 566.169 304.132 567.461 310.148C568.753 316.164 576.485 320.248 579.276 318.749C582.067 317.25 582.718 306.923 591.308 300.7C599.898 294.478 607.206 298.333 609.356 302.633C610.904 306.148 612.059 309.823 612.799 313.591C615.612 310.202 617.125 305.921 617.068 301.517C616.861 294.426 612.561 284.327 608.044 277.877C604.911 273.134 602.249 268.096 600.095 262.837L572.826 257.296Z" fill="#263238" stroke="#263238" stroke-linecap="round" stroke-linejoin="round"/>
<path d="M570.273 235.154L560.019 249.76L542.922 245.099C547.343 249.607 552.613 253.197 558.427 255.663C568.061 259.705 579.865 260.635 589.81 260.635C599.754 260.635 616.851 264.056 616.851 264.056C616.851 264.056 609.698 260.325 607.837 259.394C606.533 258.772 605.181 258.253 603.795 257.844C603.795 257.844 601.625 241.687 601.625 240.126C601.625 238.566 576.485 233.294 573.994 233.294C573.272 233.294 572.56 233.462 571.914 233.785C571.268 234.108 570.706 234.577 570.273 235.154V235.154Z" fill="white" stroke="#263238" stroke-linecap="round" stroke-linejoin="round"/>
<path d="M573.374 259.394C573.374 259.394 591.401 264.987 601.966 265.917C612.53 266.847 620.293 264.677 616.882 264.056C613.471 263.436 583.628 258.154 573.374 259.394Z" fill="white" stroke="#263238" stroke-linecap="round" stroke-linejoin="round"/>
<path d="M560.019 249.76C560.019 249.76 561.569 251.942 576.795 255.663C585.622 257.906 594.764 258.644 603.837 257.844L603.216 251.311L564.691 243.548L560.019 249.76Z" fill="#263238" stroke="#263238" stroke-linecap="round" stroke-linejoin="round"/>
<path d="M612.788 362.277C612.788 362.277 619.083 375.209 618.381 387.799C617.678 400.389 605.449 404.886 598.803 405.62C592.156 406.354 568.743 400.751 562.489 396.885C556.235 393.019 539.066 384.295 539.066 384.295C539.066 384.295 547.955 387.923 551.47 421.559C551.821 424.981 556.638 441.799 559.843 443.267C566.645 446.368 567.327 448.735 565.58 452.932C563.833 457.128 556.142 472.499 553.692 474.949C551.243 477.399 539.355 477.016 537.96 476.696L536.564 476.345C536.564 476.345 538.632 473.554 540.761 471.104C542.89 468.654 544.606 463.062 544.606 459.919C544.606 456.777 545.113 451.536 544.069 446.988C543.025 442.44 515.973 388.492 512.469 381.504C508.965 374.516 507.301 364.086 509.368 362.629C515.312 358.432 547.47 360.561 559.698 362.277C571.927 363.993 574.728 364.727 574.728 364.727L609.336 365.43L612.788 362.277Z" fill="white" stroke="#263238" stroke-linecap="round" stroke-linejoin="round"/>
<path d="M539.035 384.295C539.035 384.295 533.784 379.953 532.078 378.93Z" fill="white"/>
<path d="M539.035 384.295C539.035 384.295 533.784 379.953 532.078 378.93" stroke="#263238" stroke-linecap="round" stroke-linejoin="round"/>
<path d="M618.381 387.799C619.084 375.209 612.788 362.277 612.788 362.277L609.294 365.43L574.687 364.727C574.687 364.727 573.188 364.355 567.647 363.476C571.027 371.27 575.235 386.124 565.828 398.498C574.718 402.115 593.055 406.23 598.803 405.62C605.449 404.886 617.678 400.379 618.381 387.799Z" fill="#5A3F86" stroke="#263238" stroke-linecap="round" stroke-linejoin="round"/>
<path d="M583.535 377.741C587.577 378.992 592.631 380.532 596.115 381.462C602.803 383.24 605.925 381.008 605.925 379.674C605.925 378.341 609.935 381.008 609.935 376.108C610.008 373.549 609.709 370.993 609.046 368.521" stroke="#263238" stroke-linecap="round" stroke-linejoin="round"/>
<path d="M602.803 372.542C602.803 372.542 609.005 380.563 610.835 387.696" stroke="#263238" stroke-linecap="round" stroke-linejoin="round"/>
<path d="M576.961 375.663L579.648 376.511" stroke="#263238" stroke-linecap="round" stroke-linejoin="round"/>
<path d="M567.658 363.476C571.038 371.27 575.245 386.124 565.838 398.498C567.182 399.045 568.753 399.604 570.449 400.162C572.516 397.319 575.431 391.644 576.103 381.855C576.692 373.11 575.255 367.642 573.901 364.551C572.96 364.365 571.079 364.014 567.658 363.476Z" fill="white" stroke="#263238" stroke-linecap="round" stroke-linejoin="round"/>
<path d="M563.771 445.561C562.503 444.691 561.172 443.913 559.791 443.236C560.273 447.976 559.477 452.758 557.486 457.087C556.304 459.799 554.9 462.41 553.289 464.891C550.511 463.388 547.498 462.364 544.379 461.863C544.259 462.611 544.1 463.353 543.903 464.085C546.668 464.758 549.381 465.632 552.018 466.7C550.054 469.295 548.462 470.535 547.697 470.721C546.932 470.907 544.048 470.215 541.743 469.564C541.44 470.094 541.094 470.599 540.709 471.073C538.642 473.523 536.513 476.314 536.513 476.314L537.908 476.665C539.304 477.016 551.191 477.368 553.641 474.918C555.033 473.176 556.248 471.299 557.269 469.315C557.507 468.902 557.745 468.468 557.982 468.034C560.99 462.555 564.422 455.536 565.518 452.911C567.275 448.704 566.624 447.649 563.771 445.561Z" fill="#263238" stroke="#263238" stroke-linecap="round" stroke-linejoin="round"/>
<path d="M608.798 475.983H623.104L616.685 406.819C616.567 405.821 616.09 404.9 615.342 404.228C614.594 403.557 613.628 403.18 612.623 403.17H574.501C573.497 403.183 572.533 403.56 571.788 404.232C571.042 404.903 570.566 405.822 570.449 406.819L564.029 475.983H578.325L580.393 450.709H606.814L608.798 475.983ZM580.568 447.567L582.274 422.045H604.87L606.576 447.567H580.568Z" fill="#263238" stroke="#263238" stroke-linecap="round" stroke-linejoin="round"/>
<path d="M538.714 338.306L538.042 327.793H534.28L533.608 338.306C532.74 338.361 531.926 338.744 531.331 339.378C530.736 340.012 530.404 340.848 530.404 341.717V359.404C530.404 359.974 530.63 360.521 531.033 360.924C531.436 361.327 531.983 361.554 532.554 361.554H539.789C540.36 361.554 540.906 361.327 541.31 360.924C541.713 360.521 541.939 359.974 541.939 359.404V341.717C541.938 340.845 541.604 340.005 541.004 339.371C540.405 338.737 539.586 338.356 538.714 338.306Z" fill="#5A3F86" stroke="#263238" stroke-linecap="round" stroke-linejoin="round"/>
<path d="M539.024 325.747H533.391V329.334H539.024V325.747Z" fill="#5A3F86" stroke="#263238" stroke-linecap="round" stroke-linejoin="round"/>
<path d="M595.567 346.999L594.037 355.703C594.037 355.703 572.278 358.515 567.42 358.266C562.561 358.018 553.083 356.985 553.083 356.985C553.083 356.985 544.637 350.069 544.379 349.046C544.121 348.023 542.074 348.012 542.074 348.012V351.351C541.003 352.01 539.775 352.367 538.518 352.385C536.451 352.385 534.383 352.24 532.605 352.24C530.827 352.24 529.504 351.982 529.794 353.274C530.083 354.566 530.559 356.592 531.075 358.649C531.459 359.956 532.28 361.091 533.401 361.864C533.401 361.864 565.394 364.427 572.299 364.965C579.204 365.502 603.526 369.099 605.832 368.552H605.904C607.216 368.253 608.395 367.536 609.264 366.509C610.133 365.482 610.645 364.199 610.721 362.856L611.755 347.061L595.567 346.999Z" fill="white" stroke="#263238" stroke-linecap="round" stroke-linejoin="round"/>
<path d="M592.466 303.481C590.292 307.743 589.405 312.545 589.913 317.301C590.678 325.488 589.138 342.896 589.396 345.459C589.654 348.023 596.559 348.788 596.559 348.788H609.625C609.625 348.788 613.76 347.247 614.494 344.942C615.228 342.637 611.393 321.653 610.359 315.761C609.325 309.869 609.088 301.176 600.891 299.129" fill="white"/>
<path d="M592.466 303.481C590.292 307.743 589.405 312.545 589.913 317.301C590.678 325.488 589.138 342.896 589.396 345.459C589.654 348.023 596.559 348.788 596.559 348.788H609.625C609.625 348.788 613.76 347.247 614.494 344.942C615.228 342.637 611.393 321.653 610.359 315.761C609.325 309.869 609.088 301.176 600.891 299.129" stroke="#263238" stroke-linecap="round" stroke-linejoin="round"/>
<path d="M259.137 475.559H273.433L267.013 406.395C266.906 405.395 266.433 404.471 265.685 403.799C264.937 403.127 263.967 402.756 262.961 402.756H224.829C223.823 402.756 222.853 403.127 222.105 403.799C221.357 404.471 220.884 405.395 220.777 406.395L214.357 475.559H228.653L230.721 450.285H257.069L259.137 475.559ZM230.907 447.143L232.612 421.631H255.198L256.904 447.143H230.907Z" fill="#263238" stroke="#263238" stroke-linecap="round" stroke-linejoin="round"/>
<path d="M289.672 274.135C289.672 274.135 298.892 275.168 300.598 281.991C302.303 288.813 300.598 309.632 300.598 318.842C300.598 328.052 301.28 342.73 300.598 351.258C299.916 359.786 299.916 386.403 300.598 387.437C301.28 388.471 294.396 388.802 294.396 388.802C294.396 388.802 289.279 364.572 288.256 353.987C287.232 343.402 287.573 320.909 287.573 320.909V273.794L289.672 274.135Z" fill="white" stroke="#263238" stroke-linecap="round" stroke-linejoin="round"/>
<path d="M294.447 388.802C294.447 388.802 301.28 388.46 300.649 387.437C300.019 386.414 299.967 359.796 300.649 351.258C301.332 342.72 300.649 328.052 300.649 318.842C300.649 316.071 300.805 312.236 300.97 308.06L287.677 308.525V320.93C287.677 320.93 287.336 343.454 288.359 354.008C289.382 364.562 294.447 388.802 294.447 388.802Z" fill="white" stroke="#263238" stroke-linecap="round" stroke-linejoin="round"/>
<path d="M293.083 293.248C293.083 298.364 291.016 311.678 290.354 316.113C289.692 320.547 272.575 355.579 272.575 355.579L229.615 359.796C229.615 359.796 230.648 328.393 230.979 317.136C231.31 305.879 234.731 288.813 238.142 284.379C241.554 279.944 264.584 278.797 264.584 278.797C264.584 278.797 284.555 272.77 287.625 273.794C290.695 274.817 292.401 275.499 293.424 277.546" fill="white"/>
<path d="M293.083 293.248C293.083 298.364 291.016 311.678 290.354 316.113C289.692 320.547 272.575 355.579 272.575 355.579L229.615 359.796C229.615 359.796 230.648 328.393 230.979 317.136C231.31 305.879 234.731 288.813 238.142 284.379C241.554 279.944 264.584 278.797 264.584 278.797C264.584 278.797 284.555 272.77 287.625 273.794C290.695 274.817 292.401 275.499 293.424 277.546" stroke="#263238" stroke-linecap="round" stroke-linejoin="round"/>
<path d="M264.677 277.98C264.677 277.98 259.509 279.51 259.819 282.58C260.129 285.65 271.334 303.585 276.709 308.174C282.084 312.764 281.568 286.467 281.568 286.467C281.568 286.467 277.216 276.709 264.677 277.98Z" fill="white" stroke="#263238" stroke-linecap="round" stroke-linejoin="round"/>
<path d="M277.392 287.79L275.676 295.635L281.475 287.79C280.122 287.58 278.745 287.58 277.392 287.79V287.79Z" fill="#263238" stroke="#263238" stroke-linecap="round" stroke-linejoin="round"/>
<path d="M240.768 403.222H257.607C257.607 403.222 263.509 404.906 270.807 394.797C278.105 384.688 284.565 358.866 284.565 358.866C284.565 358.866 267.437 367.291 259.292 377.4C251.146 387.51 240.768 403.222 240.768 403.222Z" fill="#263238" stroke="#263238" stroke-linecap="round" stroke-linejoin="round"/>
<path d="M227.227 348.188C226.671 348.36 226.126 348.563 225.594 348.798C219.503 351.546 214.623 356.419 211.866 362.505C206.408 374.103 212.528 395.738 221.397 399.831C230.266 403.924 246.154 403.966 250.598 399.552C255.043 395.138 273.98 373.761 273.98 373.761L290.013 356.354C290.013 356.354 290.354 345.78 284.844 342.71C279.335 339.639 254.134 344.074 242.525 346.121C230.917 348.167 227.227 348.188 227.227 348.188Z" fill="#263238" stroke="#263238" stroke-linecap="round" stroke-linejoin="round"/>
<path d="M227.31 402.012C227.31 402.012 236.613 404.079 242.68 402.467C253.72 399.531 258.186 393.846 258.186 393.846" stroke="#737373" stroke-linecap="round" stroke-linejoin="round"/>
<path d="M284.638 237.79C284.638 237.79 275.169 228.074 265.194 227.815C255.219 227.557 240.107 244.706 240.107 252.624C240.107 260.542 245.482 264.149 244.975 266.961C244.469 269.773 243.693 272.078 241.388 272.078H238.06C238.06 272.078 244.458 281.805 252.645 283.593C260.832 285.381 265.194 283.593 266.217 282.063C268.544 278.291 270.596 274.356 272.358 270.289C274.146 265.938 279.263 257.492 281.826 256.976C284.39 256.459 286.995 258.009 286.995 261.844C286.995 265.679 288.535 269.008 292.887 268.501C297.238 267.995 301.58 256.211 300.05 247C298.52 237.79 290.788 231.144 284.638 237.79Z" fill="#263238" stroke="#263238" stroke-linecap="round" stroke-linejoin="round"/>
<path d="M287.532 250.546C287.532 250.546 290.364 256.552 290.364 259.374C290.273 261.86 290.035 264.338 289.651 266.796C289.651 266.796 292.483 269.969 292.483 271.385C292.483 272.801 288.597 274.91 288.597 274.91C288.904 278.715 287.772 282.496 285.423 285.505C281.537 290.095 275.882 287.624 272.709 285.857C269.536 284.089 264.584 278.797 264.584 278.797C263.989 276.196 264.239 273.473 265.297 271.023C267.055 266.796 271.293 261.493 277.299 257.585C283.304 253.678 286.126 253.378 287.532 250.546Z" fill="white" stroke="#263238" stroke-linecap="round" stroke-linejoin="round"/>
<path d="M284.224 266.372C284.224 267.281 283.79 268.015 283.253 268.015C282.715 268.015 282.219 267.281 282.219 266.372C282.219 265.462 282.653 264.739 283.253 264.739C283.852 264.739 284.224 265.421 284.224 266.372Z" fill="#263238"/>
<path d="M280.338 263.943C280.338 263.943 281.971 261.265 286.137 261.71" stroke="#263238" stroke-linecap="round" stroke-linejoin="round"/>
<path d="M279.449 276.44C281.298 277.917 283.63 278.653 285.992 278.507" stroke="#263238" stroke-linecap="round" stroke-linejoin="round"/>
<path d="M271.82 356.396C266.805 360.076 263.378 365.527 262.238 371.642C260.574 381.659 260.088 410.923 258.661 423.533C257.235 436.144 252.624 450.089 249.058 454.616C245.492 459.144 233.367 467.941 234.08 471.538C234.793 475.135 239.559 477.502 245.761 476.789C251.963 476.076 259.343 470.349 261.266 461.532C263.189 452.714 273.784 430.17 277.123 419.202C280.462 408.235 284.472 393.815 285.392 381.183C286.312 368.552 286.591 353.532 271.82 356.396Z" fill="white" stroke="#263238" stroke-linecap="round" stroke-linejoin="round"/>
<path d="M271.82 356.396C266.805 360.076 263.378 365.527 262.238 371.642C260.574 381.659 260.088 410.923 258.661 423.533C258.496 425.022 258.279 426.521 258.031 428.03C262.659 430.134 267.725 431.095 272.802 430.831C274.559 426.407 276.11 422.334 277.061 419.202C280.4 408.245 284.41 393.815 285.33 381.183C286.25 368.552 286.591 353.532 271.82 356.396Z" fill="#263238" stroke="#263238" stroke-linecap="round" stroke-linejoin="round"/>
<path d="M266.372 359.786C263.951 366.745 262.044 373.872 260.667 381.111C258.889 391.448 259.033 409.248 259.033 409.248" stroke="#737373" stroke-linecap="round" stroke-linejoin="round"/>
<path d="M261.204 457.48C261.204 457.48 260.966 454.379 256.914 451.763C252.862 449.148 249.771 453.665 249.771 453.665C249.534 453.996 249.306 454.317 249.069 454.616C245.492 459.144 233.336 467.972 234.049 471.538C234.762 475.104 239.528 477.502 245.73 476.789C251.932 476.076 259.312 470.349 261.235 461.532C261.535 460.188 261.979 458.513 262.548 456.601L261.204 457.48Z" fill="#5A3F86" stroke="#263238" stroke-linecap="round" stroke-linejoin="round"/>
<path d="M271.251 352.623C270.91 362.061 272.902 371.438 277.05 379.922C283.873 393.236 303.337 429.787 303.337 429.787V443.132C303.337 445.53 310.852 450.647 315.286 453.376C319.721 456.105 329.613 459.857 332.342 459.175C335.071 458.493 337.511 456.074 336.105 452.694C334.699 449.314 320.403 433.24 318.698 429.829C316.992 426.417 310.552 412.38 308.847 405.899C307.141 399.418 298.892 365.296 296.153 356.757C293.414 348.219 290.695 342.43 286.943 341.407C283.19 340.384 273.98 343.113 271.593 344.508" fill="#263238"/>
<path d="M271.251 352.623C270.91 362.061 272.902 371.438 277.05 379.922C283.873 393.236 303.337 429.787 303.337 429.787V443.132C303.337 445.53 310.852 450.647 315.286 453.376C319.721 456.105 329.613 459.857 332.342 459.175C335.071 458.493 337.511 456.074 336.105 452.694C334.699 449.314 320.403 433.24 318.698 429.829C316.992 426.417 310.552 412.38 308.847 405.899C307.141 399.418 298.892 365.296 296.153 356.757C293.414 348.219 290.695 342.43 286.943 341.407C283.19 340.384 273.98 343.113 271.593 344.508" stroke="#263238" stroke-linecap="round" stroke-linejoin="round"/>
<path d="M274.508 351.62C274.508 351.62 270.91 371.012 283.418 393.195" stroke="#737373" stroke-linecap="round" stroke-linejoin="round"/>
<path d="M318.698 429.787C316.992 426.376 310.552 412.339 308.847 405.858C308.847 405.713 308.764 405.537 308.723 405.361C303.761 408.025 298.238 409.471 292.607 409.579C298.396 420.495 303.337 429.787 303.337 429.787V443.132C303.337 445.53 310.852 450.647 315.286 453.376C319.721 456.105 329.613 459.857 332.342 459.175C335.071 458.493 337.511 456.074 336.105 452.694C334.699 449.314 320.403 433.199 318.698 429.787Z" fill="white" stroke="#263238" stroke-linecap="round" stroke-linejoin="round"/>
<path d="M318.698 429.787C318.532 429.456 318.305 428.971 318.036 428.35C312.495 430.676 311.534 437.292 311.534 437.292L303.337 429.787V443.132C303.337 445.53 310.852 450.647 315.286 453.376C319.721 456.105 329.613 459.857 332.342 459.175C335.071 458.493 337.511 456.074 336.105 452.694C334.699 449.314 320.403 433.198 318.698 429.787Z" fill="#5A3F86" stroke="#263238" stroke-linecap="round" stroke-linejoin="round"/>
<path d="M322.45 453.676C315.502 450.585 309.059 446.466 303.337 441.458V443.132C303.337 445.53 310.852 450.647 315.286 453.376C319.721 456.105 329.613 459.857 332.342 459.175C334.895 458.534 337.139 456.415 336.322 453.366C334.751 455.598 331.195 457.314 322.45 453.676Z" fill="white" stroke="#263238" stroke-linecap="round" stroke-linejoin="round"/>
<path d="M245.999 281.65C245.999 281.65 235.072 280.616 230.297 286.818C225.521 293.02 223.474 304.556 223.474 311.73C223.474 318.904 221.769 349.604 222.792 351.651C223.816 353.698 286.602 343.805 287.914 343.464C289.227 343.123 296.453 357.109 297.135 358.142C297.817 359.176 298.169 363.941 298.169 365.647C298.169 367.353 303.627 363.259 303.627 363.259C303.491 359.487 303.146 355.726 302.593 351.992C300.949 344.632 296.918 341.242 290.302 338.347L243.259 334.595L246.36 303.533" fill="white"/>
<path d="M245.999 281.65C245.999 281.65 235.072 280.616 230.297 286.818C225.521 293.02 223.474 304.556 223.474 311.73C223.474 318.904 221.769 349.604 222.792 351.651C223.816 353.698 286.602 343.805 287.914 343.464C289.227 343.123 296.453 357.109 297.135 358.142C297.817 359.176 298.169 363.941 298.169 365.647C298.169 367.353 303.627 363.259 303.627 363.259C303.491 359.487 303.146 355.726 302.593 351.992C300.949 344.632 296.918 341.242 290.302 338.347L243.259 334.595L246.36 303.533" stroke="#263238" stroke-linecap="round" stroke-linejoin="round"/>
<path d="M290.354 338.296L243.259 334.595L244.19 318.056L223.33 316.774C222.937 325.736 221.955 349.976 222.792 351.651C223.826 353.718 286.602 343.805 287.914 343.464C289.227 343.123 296.453 357.109 297.135 358.142C297.817 359.176 298.169 363.941 298.169 365.647C298.169 367.353 303.627 363.259 303.627 363.259C303.491 359.487 303.146 355.726 302.593 351.992C301.001 344.58 296.97 341.19 290.354 338.296Z" fill="white" stroke="#263238" stroke-linecap="round" stroke-linejoin="round"/>
<path d="M241.326 474.37C237.305 472.582 236.158 469.812 235.889 467.693C234.638 469.233 233.884 470.576 234.08 471.538C234.793 475.114 239.559 477.502 245.761 476.789C250.102 476.282 255.064 473.316 258.237 468.519C252.8 473.109 246.164 476.52 241.326 474.37Z" fill="white" stroke="#263238" stroke-linecap="round" stroke-linejoin="round"/>
<path d="M153.702 190.809L152.917 178.508H148.534L147.759 190.778C146.747 190.839 145.796 191.283 145.101 192.021C144.405 192.759 144.018 193.734 144.017 194.748V215.421C144.017 216.088 144.281 216.726 144.752 217.198C145.223 217.669 145.862 217.933 146.529 217.933H154.901C155.568 217.933 156.207 217.669 156.678 217.198C157.149 216.726 157.413 216.088 157.413 215.421V194.748C157.405 193.744 157.018 192.781 156.33 192.051C155.642 191.32 154.703 190.877 153.702 190.809V190.809Z" fill="#5A3F86" stroke="#263238" stroke-linecap="round" stroke-linejoin="round"/>
<path d="M154.013 176.152H147.449V180.328H154.013V176.152Z" fill="#5A3F86" stroke="#263238" stroke-linecap="round" stroke-linejoin="round"/>
<path d="M84.156 363.239C84.156 363.239 85.7375 376.17 82.2643 382.796C78.7912 389.422 72.4857 404.565 72.1756 416.908C71.8655 429.25 71.5347 461.356 71.5347 464.85C71.5347 468.344 69.0125 473.998 71.5347 475.259C74.0569 476.52 96.1467 476.2 96.1467 476.2C96.1467 476.2 108.127 477.461 107.517 473.678C106.907 469.894 88.5905 463.268 87.3294 461.067C86.0683 458.865 87.7429 455.722 88.053 453.2C88.3631 450.678 87.9599 434.883 91.4331 422.262C94.9063 409.641 101.522 402.084 102.473 387.882C103.424 373.679 104.365 366.443 104.365 366.443L84.156 363.239Z" fill="#263238" stroke="#263238" stroke-linecap="round" stroke-linejoin="round"/>
<path d="M87.3088 461.025C87.1537 460.746 86.9986 460.436 86.8539 460.115L85.7375 462.917L85.4171 465.119C85.4171 465.119 77.7058 465.573 71.514 465.325C71.3073 468.819 69.1366 474.008 71.514 475.218C73.8915 476.427 96.1261 476.158 96.1261 476.158C96.1261 476.158 108.107 477.419 107.497 473.636C106.887 469.853 88.5699 463.227 87.3088 461.025Z" fill="#263238" stroke="#263238" stroke-linecap="round" stroke-linejoin="round"/>
<path d="M103.393 474.267C92.8389 474.267 76.1759 473.233 70.4286 472.83C70.3749 473.285 70.4501 473.747 70.6456 474.161C70.8411 474.576 71.1492 474.928 71.5347 475.176C74.0672 476.437 96.1467 476.117 96.1467 476.117C96.1467 476.117 106.659 477.223 107.517 474.256L103.393 474.267Z" fill="#263238" stroke="#263238" stroke-linecap="round" stroke-linejoin="round"/>
<path d="M90.1513 364.624C90.1513 364.624 90.4614 376.294 90.4614 378.816C90.4614 381.338 82.8948 393.009 82.8948 404.369C82.8948 415.729 87.3086 451.474 88.2596 456.518C89.2106 461.563 86.6781 472.923 86.6781 472.923C86.6781 472.923 85.7374 475.755 91.4124 476.386C97.0873 477.016 123.581 477.016 125.524 476.706C127.467 476.396 128.997 472.292 126.475 470.401C123.953 468.509 105.657 463.454 104.395 459.992C103.134 456.529 106.597 401.836 110.07 392.699C113.544 383.561 114.433 376.976 115.384 368.707C116.335 360.437 90.1513 364.624 90.1513 364.624Z" fill="white" stroke="#263238" stroke-linecap="round" stroke-linejoin="round"/>
<path d="M126.423 470.401C124.025 468.602 107.455 463.971 104.716 460.539C104.492 461.28 104.381 462.05 104.385 462.824V467.558C104.385 467.558 95.7332 466.576 87.9495 466.028C87.4224 469.76 86.7194 472.923 86.7194 472.923C86.7194 472.923 85.7788 475.755 91.4537 476.386C97.1287 477.016 123.622 477.016 125.565 476.706C127.509 476.396 128.946 472.292 126.423 470.401Z" fill="white" stroke="#263238" stroke-linecap="round" stroke-linejoin="round"/>
<path d="M125.472 476.706C125.972 476.549 126.424 476.267 126.786 475.887C127.147 475.508 127.407 475.043 127.54 474.536C113.903 475.082 100.244 474.605 86.6781 473.109C86.5851 473.74 86.6781 475.869 91.4538 476.396C97.0873 477.016 123.581 477.016 125.472 476.706Z" fill="white" stroke="#263238" stroke-linecap="round" stroke-linejoin="round"/>
<path d="M128.191 248.096C128.191 248.096 137.639 269.369 140.006 272.905C142.612 277.29 144.036 282.276 144.141 287.376C144.141 292.111 144.73 297.424 142.073 299.491C139.448 301.312 136.356 302.345 133.163 302.468C131.809 302.468 131.096 301.434 130.196 300.742C129.703 300.427 129.309 299.979 129.059 299.45C128.822 298.84 131.488 297.765 132.905 296.824C135.561 295.046 135.272 290.022 135.272 290.022C135.272 290.022 132.016 286.477 131.426 282.942C131.084 280.59 131.084 278.202 131.426 275.851L123.157 265.803L128.191 248.096Z" fill="white" stroke="#263238" stroke-linecap="round" stroke-linejoin="round"/>
<path d="M133.194 302.478C133.194 302.478 131.127 301.869 132.956 301.031C133.99 300.525 136.326 299.998 137.163 299.222C138.424 298.189 139.277 296.742 139.572 295.139C139.696 293.454 139.696 292.483 139.696 292.483" stroke="#263238" stroke-linecap="round" stroke-linejoin="round"/>
<path d="M131.24 301.155C131.24 301.155 130.279 299.946 131.364 299.346C132.45 298.747 135.086 298.313 135.809 297.661C136.533 297.01 137.618 293.806 137.742 292.607" stroke="#263238" stroke-linecap="round" stroke-linejoin="round"/>
<path d="M129.059 299.45C129.059 299.45 130.269 298.003 130.992 297.878C132.029 297.519 133.035 297.077 134 296.555C134.838 296.194 135.685 294.633 136.068 292.11" stroke="#263238" stroke-linecap="round" stroke-linejoin="round"/>
<path d="M136.46 278.228C136.46 278.228 134.393 283.552 136.171 286.208C137.949 288.865 139.117 290.343 139.417 291.821C139.717 293.299 138.238 299.202 140.595 299.501C142.952 299.801 142.073 295.656 142.373 290.343C142.673 285.03 144.141 282.962 142.073 277.939" fill="white"/>
<path d="M136.46 278.228C136.46 278.228 134.393 283.552 136.171 286.208C137.949 288.865 139.117 290.343 139.417 291.821C139.717 293.299 138.238 299.202 140.595 299.501C142.952 299.801 142.073 295.656 142.373 290.343C142.673 285.03 144.141 282.962 142.073 277.939" stroke="#263238" stroke-linecap="round" stroke-linejoin="round"/>
<path d="M75.4316 268.749C75.4316 268.749 73.5813 279.882 74.9044 286.766C75.9471 291.485 77.6414 296.035 79.9385 300.287C79.9385 300.287 75.4316 345.335 75.4316 351.434C75.4316 357.532 75.1629 362.039 75.1629 362.039C75.1629 362.039 84.7038 369.988 101.139 370.247C117.575 370.505 130.289 369.72 130.289 369.72L127.643 300.018L129.493 275.106C129.493 275.106 101.935 275.902 93.4488 274.073C87.3497 272.631 81.3348 270.854 75.4316 268.749V268.749Z" fill="#5A3F86" stroke="#263238" stroke-linecap="round" stroke-linejoin="round"/>
<path d="M97.6973 276.967C97.6973 276.967 96.6636 289.95 97.1598 296.607C97.656 303.264 96.9014 321.788 96.9014 323.638V326.284" stroke="#263238" stroke-linecap="round" stroke-linejoin="round"/>
<path d="M109.088 279.882C109.088 279.882 109.884 291.542 98.4932 296.307" stroke="#263238" stroke-linecap="round" stroke-linejoin="round"/>
<path d="M83.1223 331.029C83.1223 331.029 81.2617 349.315 80.7345 352.498C80.2073 355.682 88.6835 359.652 99.5476 361.502C110.412 363.352 118.361 361.502 119.953 358.856C121.544 356.209 119.157 333.944 119.157 333.944C119.157 333.944 97.1598 334.471 83.1223 331.029Z" fill="#5A3F86" stroke="#263238" stroke-linecap="round" stroke-linejoin="round"/>
<path d="M82.8535 323.607C88.6928 325.969 94.8667 327.399 101.15 327.845C107.851 328.322 114.574 328.412 121.286 328.114V338.182C115.225 338.98 109.113 339.325 103 339.216C95.8093 339.208 88.6926 337.763 82.0679 334.967L82.8535 323.607Z" fill="#5A3F86" stroke="#263238" stroke-linecap="round" stroke-linejoin="round"/>
<path d="M75.9589 358.06C75.9589 358.06 86.2957 364.158 103.259 365.74C120.221 367.322 127.902 365.482 127.902 365.482" stroke="#263238" stroke-linecap="round" stroke-linejoin="round"/>
<path d="M112.458 174.146C112.458 174.146 121.761 184.431 125.493 192.194C129.516 200.36 131.33 209.438 130.755 218.522C130.258 228.797 129.256 260.635 129.721 263.891C130.186 267.147 129.969 277.928 129.969 277.928C129.969 277.928 127.219 278.683 110.422 279.438C93.6245 280.192 74.5737 271.664 74.5737 271.664C74.5737 271.664 74.3256 263.136 75.0802 259.384C75.8348 255.632 76.1139 239.579 76.1139 239.579C76.1139 239.579 72.8474 203.482 72.8474 189.693C72.8474 175.904 88.3527 165.629 88.3527 165.629L112.458 174.146Z" fill="white" stroke="#263238" stroke-linecap="round" stroke-linejoin="round"/>
<path d="M121.482 153.597C121.482 153.597 116.469 158.103 115.714 161.618C114.96 165.132 114.464 176.658 114.464 176.658L89.1486 159.085L89.8929 152.067C89.8929 152.067 85.138 140.541 91.8983 136.024C98.6586 131.507 110.505 132.013 114.96 139.28C117.72 143.763 119.911 148.572 121.482 153.597V153.597Z" fill="white" stroke="#263238" stroke-linecap="round" stroke-linejoin="round"/>
<path d="M114.174 105.499C114.174 105.499 117.038 106.378 119.467 111.019C121.896 115.66 124.325 122.71 125.421 124.043C126.516 125.377 131.385 127.145 131.385 128.674C131.385 130.204 127.633 134.411 127.633 134.411C127.633 134.411 127.633 143.714 129.173 145.668C130.713 147.622 131.168 152.728 127.416 154.496C123.663 156.263 121.007 155.819 114.836 153.39C108.665 150.961 103.352 150.289 103.352 145.224C103.352 140.159 99.8266 132.644 99.5992 130.876C99.3718 129.109 100.705 121.387 104.458 114.544C108.21 107.701 111.962 104.838 114.174 105.499Z" fill="white" stroke="#263238" stroke-linecap="round" stroke-linejoin="round"/>
<path d="M127.416 154.496C131.168 152.728 130.724 147.653 129.173 145.668C126.754 148.314 126.754 150.744 120.345 149.865C113.936 148.986 107.352 146.991 106.442 144.562C105.533 142.133 101.367 126.907 101.367 126.907L100.116 126.648C99.7775 128.031 99.6177 129.452 99.6406 130.876C99.868 132.644 103.393 140.179 103.393 145.224C103.393 150.268 108.696 150.961 114.877 153.39C121.059 155.819 123.663 156.263 127.416 154.496Z" fill="#263238" stroke="#263238" stroke-linecap="round" stroke-linejoin="round"/>
<path d="M115.714 126.907C116.204 126.144 116.897 125.534 117.716 125.145C118.534 124.756 119.445 124.604 120.345 124.705" stroke="#263238" stroke-linecap="round" stroke-linejoin="round"/>
<path d="M119.25 118.296C119.25 118.296 115.714 115.65 113.285 120.064" stroke="#263238" stroke-linecap="round" stroke-linejoin="round"/>
<path d="M126.31 137.946C126.31 137.946 123.209 139.931 119.467 136.84" stroke="#263238" stroke-linecap="round" stroke-linejoin="round"/>
<path d="M114.836 106.605C114.836 106.605 117.037 105.944 116.159 101.085C115.28 96.227 99.3821 92.4747 83.9285 97.1159C68.4749 101.757 64.95 113.655 66.2732 125.139C67.5963 136.623 81.7268 148.531 83.9285 149.42C83.9285 149.42 83.7114 154.051 82.3883 154.279C81.7176 154.378 81.0544 154.523 80.4037 154.713C80.4037 154.713 80.4036 155.374 85.479 156.698C90.5544 158.021 92.7148 156.036 92.7148 156.036V158.465C92.7148 158.465 95.5885 159.354 98.4622 156.481C101.336 153.607 99.7853 145.007 99.1237 143.239C98.4621 141.471 96.9116 137.719 96.2501 135.517C95.5885 133.316 102.214 133.75 103.093 129.553C103.972 125.356 102.649 126.028 105.522 123.351C108.396 120.674 109.936 117.841 109.657 114.048C109.378 110.254 114.836 106.605 114.836 106.605Z" fill="#263238" stroke="#263238" stroke-linecap="round" stroke-linejoin="round"/>
<path d="M73.602 140.81C71.4893 140.931 69.4697 141.72 67.834 143.063C65.0741 145.317 65.5806 150.588 68.3405 153.09C71.1005 155.592 72.8474 156.356 72.3512 157.359C71.8551 158.362 73.602 160.367 76.1139 157.855C78.6257 155.343 80.1246 149.586 77.6127 146.826C75.1009 144.066 75.3593 141.812 75.3593 141.812L73.602 140.81Z" fill="#263238" stroke="#263238" stroke-linecap="round" stroke-linejoin="round"/>
<path d="M93.6555 134.546C93.6555 134.546 91.154 141.782 79.37 141.782" stroke="#737373" stroke-linecap="round" stroke-linejoin="round"/>
<path d="M80.6208 144.066C80.6208 144.066 85.6342 146.319 93.1595 142.061" stroke="#737373" stroke-linecap="round" stroke-linejoin="round"/>
<path d="M101.367 134.856C101.367 134.856 100.261 130.659 96.736 130.659C93.2111 130.659 93.6349 137.719 96.2915 142.36C98.9481 147.002 103.527 141.916 103.527 141.254" fill="white"/>
<path d="M101.367 134.856C101.367 134.856 100.261 130.659 96.736 130.659C93.2111 130.659 93.6349 137.719 96.2915 142.36C98.9481 147.002 103.527 141.916 103.527 141.254" stroke="#263238" stroke-linecap="round" stroke-linejoin="round"/>
<path d="M89.1487 156.356C89.1487 156.356 113.957 171.862 115.466 173.144C116.976 174.425 113.461 184.928 113.461 184.928L85.6445 167.138C85.6445 167.138 87.1434 158.103 89.1487 156.356Z" fill="white" stroke="#263238" stroke-linecap="round" stroke-linejoin="round"/>
<path d="M82.1299 177.413C82.1299 177.413 77.1166 182.168 76.1139 193.456C75.1112 204.743 88.146 255.115 90.1513 256.376C91.6127 257.169 93.2438 257.598 94.9063 257.627L138.321 223.122C138.321 223.122 152.348 219.07 155.274 217.851C158.199 216.631 160.132 212.207 159.842 208.206C159.553 204.206 161.031 200.578 158.809 200.743C156.586 200.908 153.31 201.156 150.818 201.591C148.327 202.025 142.89 201.053 142.89 201.053C142.89 201.053 138.828 202.48 138.549 205.519C138.054 208.707 137.363 211.863 136.481 214.967L104.685 230.803L102.183 188.938" fill="white"/>
<path d="M82.1299 177.413C82.1299 177.413 77.1166 182.168 76.1139 193.456C75.1112 204.743 88.146 255.115 90.1513 256.376C91.6127 257.169 93.2438 257.598 94.9063 257.627L138.321 223.122C138.321 223.122 152.348 219.07 155.274 217.851C158.199 216.631 160.132 212.207 159.842 208.206C159.553 204.206 161.031 200.578 158.809 200.743C156.586 200.908 153.31 201.156 150.818 201.591C148.327 202.025 142.89 201.053 142.89 201.053C142.89 201.053 138.828 202.48 138.549 205.519C138.054 208.707 137.363 211.863 136.481 214.967L104.685 230.803L102.183 188.938" stroke="#263238" stroke-linecap="round" stroke-linejoin="round"/>
<path d="M159.822 208.206C159.522 204.206 161.011 200.578 158.788 200.743C156.566 200.908 153.289 201.156 150.798 201.591C148.307 202.025 142.869 201.053 142.869 201.053C142.869 201.053 138.807 202.48 138.528 205.519C138.033 208.707 137.343 211.863 136.461 214.967L104.685 230.803L104.023 219.763L81.8302 227.96C85.262 242.432 89.128 255.735 90.0997 256.376C91.561 257.169 93.1921 257.598 94.8547 257.627L138.269 223.122C138.269 223.122 152.297 219.07 155.222 217.851C158.147 216.631 160.07 212.207 159.822 208.206Z" fill="white" stroke="#263238" stroke-linecap="round" stroke-linejoin="round"/>
</svg>
