<svg width="706" height="476" viewBox="0 0 706 476" fill="none" xmlns="http://www.w3.org/2000/svg">
<mask id="mask0_103_2" style="mask-type:alpha" maskUnits="userSpaceOnUse" x="0" y="0" width="706" height="476">
<rect width="706" height="476" fill="#F7E2FF"/>
</mask>
<g mask="url(#mask0_103_2)">
<path d="M699.322 647.27C719.007 628.099 734.666 603.748 744.535 572.887C759.888 524.887 766 474.118 766 423.834C766 266.058 615.889 111.376 461.536 92.5463C392.809 84.1657 326.095 110.531 274.572 155.149C221.647 200.937 189.251 263.468 126.978 298.897C91.0234 319.381 50.8261 331.449 14.1524 350.638C-56.93 387.811 -97.6486 462.734 -81.469 543.105C-64.4086 627.847 -0.247482 712.786 82.3943 742.73C157.755 769.976 237.826 752.298 313.888 738.36C384.719 725.393 456.251 716.473 527.998 710.52C589.984 705.287 652.707 692.626 699.322 647.27Z" fill="#5A3F86" fill-opacity="0.06"/>
<path d="M699.322 602.27C719.007 583.099 734.666 558.748 744.535 527.887C759.888 479.887 766 429.118 766 378.834C766 221.058 615.889 66.3758 461.536 47.5463C392.809 39.1657 326.095 65.5305 274.572 110.149C221.647 155.937 189.251 218.468 126.978 253.897C91.0234 274.381 50.8261 286.449 14.1524 305.638C-56.93 342.811 -97.6486 417.734 -81.469 498.105C-64.4086 582.847 -0.247482 667.786 82.3943 697.73C157.755 724.976 237.826 707.298 313.888 693.36C384.719 680.393 456.251 671.473 527.998 665.52C589.984 660.287 652.707 647.626 699.322 602.27Z" fill="#5A3F86" fill-opacity="0.06"/>
<path d="M699.322 562.27C719.007 543.099 734.666 518.748 744.535 487.887C759.888 439.887 766 389.118 766 338.834C766 181.058 615.889 26.3758 461.536 7.54631C392.809 -0.834339 326.095 25.5305 274.572 70.1494C221.647 115.937 189.251 178.468 126.978 213.897C91.0234 234.381 50.8261 246.449 14.1524 265.638C-56.93 302.811 -97.6486 377.734 -81.469 458.105C-64.4086 542.847 -0.247482 627.786 82.3943 657.73C157.755 684.976 237.826 667.298 313.888 653.36C384.719 640.393 456.251 631.473 527.998 625.52C589.984 620.287 652.707 607.626 699.322 562.27Z" fill="#5A3F86" fill-opacity="0.06"/>
</g>
</svg>
