<svg width="708" height="214" viewBox="0 0 708 214" fill="none" xmlns="http://www.w3.org/2000/svg">
<path d="M187.872 136.452C180.469 132.421 177.123 135.78 174.436 132.421C171.749 129.062 181.839 120.329 161.645 111.556C161.645 111.556 160.302 92.7452 132.691 92.0197C105.08 91.2942 112.537 110.83 105.08 115.586C97.623 120.343 95.6748 112.899 88.2448 117.615C80.8147 122.331 84.214 131.75 78.141 133.093C72.0679 134.437 64.0064 127.034 56.6435 131.75C49.2806 136.466 49.2269 140.51 45.8948 140.51C42.5627 140.51 35.791 137.823 31.7468 140.51C27.7026 143.197 23 146.569 23 146.569H193.26C193.26 146.569 195.302 140.496 187.872 136.452Z" stroke="#999999" stroke-linecap="round" stroke-linejoin="round"/>
<path d="M87.1027 133.684C86.1311 134.223 85.1258 134.699 84.093 135.109" stroke="#999999" stroke-linecap="round" stroke-linejoin="round"/>
<path d="M123.541 102.231C121.869 102.978 120.4 104.114 119.257 105.545C118.114 106.975 117.33 108.658 116.971 110.454C115.735 116.607 112.859 120.719 109.568 121.202C106.276 121.686 93.955 120.316 91.8456 124.83C91.2993 126.155 90.9114 127.539 90.6901 128.955" stroke="#999999" stroke-linecap="round" stroke-linejoin="round"/>
<path d="M184.338 209.396C181.651 207.918 180.388 209.141 179.407 207.918C178.427 206.695 182.095 203.471 174.732 200.273C174.732 200.273 174.235 193.38 164.131 193.125C154.027 192.87 156.741 200.031 154.027 201.751C151.313 203.471 150.587 200.77 147.873 202.49C145.159 204.21 146.395 207.663 144.178 208.16C141.961 208.657 139.006 205.943 136.292 207.663C133.577 209.382 133.604 210.874 132.355 210.874C131.105 210.874 128.66 209.88 127.182 210.874C125.704 211.868 123.984 213.091 123.984 213.091H186.3C186.474 212.342 186.372 211.555 186.011 210.876C185.65 210.197 185.056 209.671 184.338 209.396Z" stroke="#999999" stroke-linecap="round" stroke-linejoin="round"/>
<path d="M147.47 208.375C147.117 208.578 146.749 208.753 146.369 208.899" stroke="#999999" stroke-linecap="round" stroke-linejoin="round"/>
<path d="M160.799 196.874C160.186 197.146 159.648 197.562 159.23 198.086C158.811 198.609 158.525 199.226 158.394 199.883C157.937 202.127 156.889 203.632 155.706 203.78C154.524 203.927 149.996 203.484 149.244 205.123C149.047 205.612 148.907 206.121 148.827 206.641" stroke="#999999" stroke-linecap="round" stroke-linejoin="round"/>
<path d="M677.354 132.278C674.667 130.8 673.404 132.022 672.423 130.8C671.442 129.577 675.11 126.352 667.747 123.155C667.747 123.155 667.25 116.262 657.147 116.007C647.043 115.751 649.757 122.913 647.043 124.633C644.329 126.352 643.603 123.652 640.889 125.371C638.175 127.091 639.411 130.544 637.194 131.041C634.977 131.539 632.021 128.825 629.307 130.544C626.593 132.264 626.62 133.755 625.371 133.755C624.121 133.755 621.676 132.761 620.198 133.755C618.72 134.75 617 135.972 617 135.972H679.316C679.49 135.223 679.387 134.437 679.027 133.758C678.666 133.079 678.072 132.553 677.354 132.278Z" stroke="#999999" stroke-linecap="round" stroke-linejoin="round"/>
<path d="M640.486 131.256C640.133 131.46 639.765 131.635 639.384 131.78" stroke="#999999" stroke-linecap="round" stroke-linejoin="round"/>
<path d="M653.814 119.755C653.202 120.028 652.664 120.444 652.246 120.967C651.827 121.491 651.54 122.107 651.409 122.765C650.953 125.009 649.905 126.514 648.722 126.661C647.54 126.809 643.012 126.366 642.26 128.005C642.063 128.493 641.923 129.003 641.843 129.523" stroke="#999999" stroke-linecap="round" stroke-linejoin="round"/>
<path d="M1 4.47147C1 4.47147 311.316 102.921 707.063 1" stroke="#263238" stroke-linecap="round" stroke-linejoin="round"/>
<path d="M84.459 57.5433C89.1515 54.0175 90.0973 47.3553 86.5715 42.6629C83.0457 37.9704 76.3835 37.0246 71.6911 40.5504C66.9986 44.0761 66.0528 50.7383 69.5786 55.4308C73.1043 60.1233 79.7665 61.0691 84.459 57.5433Z" fill="white" stroke="#263238" stroke-linecap="round" stroke-linejoin="round"/>
<path d="M80.5631 29.4394L81.151 29.5229C82.4983 29.7141 83.7145 30.4328 84.5319 31.5208C85.3494 32.6087 85.7012 33.9769 85.5099 35.3242L84.7053 40.9923L73.9571 39.4664L74.7596 33.8134C74.8525 33.1447 75.0765 32.501 75.4186 31.919C75.7608 31.337 76.2144 30.8283 76.7535 30.4219C77.2927 30.0156 77.9067 29.7197 78.5604 29.5511C79.2141 29.3825 79.8947 29.3445 80.5631 29.4394Z" fill="#263238" stroke="#263238" stroke-linecap="round" stroke-linejoin="round"/>
<path d="M74.7841 22.4074C74.7841 22.4074 80.8744 24.8435 81.9706 29.6396C83.0218 27.5155 84.7603 25.8091 86.9037 24.7979" stroke="#263238" stroke-linecap="round" stroke-linejoin="round"/>
<path d="M199.43 73.2583C203.809 69.3492 204.189 62.6309 200.28 58.2527C196.371 53.8744 189.652 53.4941 185.274 57.4032C180.896 61.3124 180.516 68.0306 184.425 72.4089C188.334 76.7871 195.052 77.1674 199.43 73.2583Z" fill="white" stroke="#263238" stroke-linecap="round" stroke-linejoin="round"/>
<path d="M193.395 45.6045L193.987 45.6448C195.345 45.7371 196.61 46.365 197.505 47.3903C198.4 48.4156 198.851 49.7544 198.758 51.1121L198.37 56.8238L187.539 56.0873L187.927 50.3757C187.973 49.7034 188.151 49.0467 188.45 48.4431C188.75 47.8395 189.165 47.3008 189.673 46.8578C190.181 46.4147 190.77 46.076 191.409 45.861C192.048 45.6459 192.722 45.5588 193.395 45.6045Z" fill="#263238" stroke="#263238" stroke-linecap="round" stroke-linejoin="round"/>
<path d="M187.18 38.9882C187.18 38.9882 193.499 40.9828 194.885 45.6876C195.779 43.4917 197.388 41.6621 199.452 40.4956" stroke="#263238" stroke-linecap="round" stroke-linejoin="round"/>
<path d="M300.673 72.4696C300.63 74.5795 299.962 76.6292 298.753 78.3588C297.544 80.0885 295.849 81.4204 293.882 82.1856C291.915 82.9508 289.766 83.115 287.706 82.6573C285.646 82.1996 283.768 81.1407 282.31 79.6147C280.853 78.0886 279.881 76.1643 279.518 74.0854C279.155 72.0065 279.418 69.8667 280.272 67.9371C281.127 66.0076 282.535 64.3752 284.318 63.2467C286.101 62.1183 288.18 61.5446 290.289 61.5984C293.105 61.6703 295.779 62.8542 297.724 64.8913C299.67 66.9285 300.73 69.6531 300.673 72.4696V72.4696Z" fill="white" stroke="#263238" stroke-linecap="round" stroke-linejoin="round"/>
<path d="M290.196 52.4542L290.835 52.4687C291.509 52.484 292.173 52.6319 292.789 52.9038C293.406 53.1757 293.963 53.5664 294.428 54.0535C294.894 54.5407 295.259 55.1148 295.502 55.743C295.746 56.3712 295.864 57.0413 295.848 57.7149L295.718 63.4383L284.865 63.192L284.995 57.4686C285.026 56.116 285.589 54.8302 286.563 53.8911C287.537 52.952 288.843 52.4356 290.196 52.4542Z" fill="#263238" stroke="#263238" stroke-linecap="round" stroke-linejoin="round"/>
<path d="M283.635 46.1595C283.635 46.1595 290.03 47.8496 291.629 52.4935C292.416 50.2577 293.941 48.3566 295.953 47.1035" stroke="#263238" stroke-linecap="round" stroke-linejoin="round"/>
<path d="M410.999 71.7693C411.077 73.8805 410.525 75.9673 409.415 77.7644C408.304 79.5616 406.684 80.9882 404.761 81.8629C402.838 82.7377 400.698 83.0212 398.614 82.6774C396.529 82.3336 394.594 81.3781 393.054 79.9321C391.513 78.4862 390.437 76.6151 389.963 74.5564C389.488 72.4978 389.636 70.3445 390.387 68.37C391.139 66.3955 392.46 64.6889 394.184 63.467C395.907 62.2451 397.955 61.5629 400.067 61.5071C402.873 61.433 405.596 62.4693 407.643 64.3907C409.69 66.3122 410.896 68.9637 410.999 71.7693Z" fill="white" stroke="#263238" stroke-linecap="round" stroke-linejoin="round"/>
<path d="M399.461 52.3669L400.054 52.3472C401.415 52.3018 402.737 52.7986 403.731 53.7283C404.725 54.6579 405.308 55.9443 405.354 57.3044L405.545 63.0261L394.695 63.3879L394.504 57.6662C394.458 56.3061 394.955 54.9837 395.885 53.9899C396.815 52.9961 398.101 52.4123 399.461 52.3669Z" fill="#263238" stroke="#263238" stroke-linecap="round" stroke-linejoin="round"/>
<path d="M392.561 46.4489C392.561 46.4489 399.031 47.7887 400.889 52.3412C401.55 50.0612 402.967 48.0742 404.909 46.7077" stroke="#263238" stroke-linecap="round" stroke-linejoin="round"/>
<path d="M526.623 61.0047C526.965 63.0875 526.681 65.2249 525.807 67.1461C524.933 69.0672 523.508 70.6855 521.713 71.7958C519.918 72.9061 517.833 73.4585 515.724 73.3828C513.615 73.3071 511.575 72.6068 509.864 71.3707C508.153 70.1346 506.848 68.4183 506.114 66.4395C505.379 64.4606 505.249 62.3083 505.74 60.2554C506.23 58.2024 507.319 56.3413 508.868 54.908C510.418 53.4746 512.358 52.5336 514.443 52.2042C517.224 51.7648 520.066 52.4436 522.348 54.0925C524.63 55.7414 526.167 58.2263 526.623 61.0047Z" fill="white" stroke="#263238" stroke-linecap="round" stroke-linejoin="round"/>
<path d="M512.667 43.2634L513.253 43.1685C514.597 42.9512 515.971 43.2764 517.075 44.0727C518.179 44.8689 518.921 46.0709 519.138 47.4143L520.052 53.0657L509.381 54.7922L508.467 49.1408C508.25 47.8052 508.571 46.4383 509.357 45.3375C510.144 44.2368 511.334 43.4913 512.667 43.2634V43.2634Z" fill="#263238" stroke="#263238" stroke-linecap="round" stroke-linejoin="round"/>
<path d="M505.063 38.227C505.063 38.227 511.671 38.7294 514.077 43.0078C514.45 40.6665 515.604 38.5201 517.351 36.9175" stroke="#263238" stroke-linecap="round" stroke-linejoin="round"/>
<path d="M633.757 55.0752C639.152 52.763 641.651 46.5152 639.339 41.1204C637.027 35.7256 630.779 33.2267 625.384 35.5389C619.989 37.8511 617.49 44.0989 619.803 49.4937C622.115 54.8885 628.363 57.3874 633.757 55.0752Z" fill="white" stroke="#263238" stroke-linecap="round" stroke-linejoin="round"/>
<path d="M625.288 26.0485L625.869 25.9283C626.536 25.7905 627.222 25.7866 627.89 25.9167C628.558 26.0468 629.193 26.3084 629.759 26.6863C630.324 27.0642 630.809 27.5507 631.185 28.1177C631.561 28.6847 631.821 29.3208 631.948 29.9889L633.107 35.5953L622.476 37.793L621.317 32.1867C621.17 31.5226 621.156 30.8358 621.276 30.1662C621.396 29.4967 621.648 28.8577 622.018 28.2865C622.387 27.7154 622.867 27.2233 623.428 26.8391C623.989 26.4549 624.622 26.1862 625.288 26.0485V26.0485Z" fill="#263238" stroke="#263238" stroke-linecap="round" stroke-linejoin="round"/>
<path d="M617.475 21.3416C617.475 21.3416 624.098 21.57 626.687 25.7266C626.968 23.3661 628.042 21.1707 629.732 19.4993" stroke="#263238" stroke-linecap="round" stroke-linejoin="round"/>
</svg>
