<svg width="1920" height="597" viewBox="0 0 1920 597" fill="none" xmlns="http://www.w3.org/2000/svg">
<path opacity="0.3" fill-rule="evenodd" clip-rule="evenodd" d="M1919.42 64.8259V71.8787L1616.25 0H1627.2L1919.42 64.8259ZM1919.41 186.097V170.221L1641.17 110.439L1919.42 111.112V105.085H1616.25H1596.44L1919.41 186.097ZM376.095 370.596L0.585938 597H144.798L228.97 536.955H898.372L893.431 597H1033.31L1008.32 438.805H1553.44L1775.2 597H1919.41L1817.41 535.497L1919.42 533.192V476.909H1720.24L1375.56 269.093L1784.52 269.507L1629.54 210.162H1919.42V196.307H1593.36L1427.49 132.794H1418.5H1400.16H1149.49H1141.63H1124.47L1491.93 394.924H1001.4L960.001 132.794H931.628L925.059 212.634H683.61L795.53 132.794H770.506L712.8 167.587H610.173H589.595L574.934 174.367H574.988L455.567 229.794L348.848 229.573L393.476 210.162H393.396H361.316H0.585938V224.017H325.133L0.585938 348.291V370.976L376.095 370.596ZM316.047 243.841L461.824 243.649L596.95 174.367H701.555L424.975 341.124L88.882 342.647L316.047 243.841ZM1162.66 140.733H1418.41L1659 245.382L1333.78 243.907L1162.66 140.733ZM644.983 240.188L319.803 472.158H903.704L922.791 240.188H644.983ZM1919.41 332.267L1748.17 337.188L1919.41 406.993V443.969L1649.62 316.398L1919.41 312.392V332.267ZM0.585938 71.8787V64.8259L292.798 0H303.751L0.585938 71.8787ZM166.005 210.162L428.585 125.004H0.585938V131.194H370.19L115.866 210.162H166.005Z" fill="url(#paint0_linear_2861:4347)"/>
<defs>
<linearGradient id="paint0_linear_2861:4347" x1="960.001" y1="118.674" x2="960.001" y2="597" gradientUnits="userSpaceOnUse">
<stop stop-color="white"/>
<stop offset="1" stop-color="#D9E7FC"/>
</linearGradient>
</defs>
</svg>
